<?xml version="1.0" standalone="no"?>
<!DOCTYPE svg PUBLIC "-//W3C//DTD SVG 1.1//EN" "http://www.w3.org/Graphics/SVG/1.1/DTD/svg11.dtd" >
<svg xmlns="http://www.w3.org/2000/svg" xmlns:xlink="http://www.w3.org/1999/xlink" version="1.1">
<metadata>
Created by FontForge 20170924 at Fri Feb  8 20:52:35 2008
 By www-data
Copyright (c) 2007 Monotype Imaging Inc. Soho is designed by Sebastian Lester. All rights reserved.
</metadata>
<defs>
<font id="SohoGothicPro-Light" horiz-adv-x="580" >
  <font-face 
    font-family="Soho Gothic Pro"
    font-weight="300"
    font-stretch="normal"
    units-per-em="1000"
    panose-1="2 11 3 3 3 5 4 2 2 4"
    ascent="782"
    descent="-218"
    x-height="543"
    cap-height="743"
    bbox="-76 -292 1358 1148"
    underline-thickness="50"
    underline-position="-100"
    stemh="60"
    stemv="65"
    unicode-range="U+0020-FE6A"
  />
<missing-glyph horiz-adv-x="500" 
d="M12 0v665h475v-665h-475zM88 618l162 -243l161 243h-323zM60 575v-484c0 -1 161 242 161 242zM440 575l-162 -242l162 -243v485zM411 48l-161 242l-162 -242h323z" />
    <glyph glyph-name="f_i" unicode="fi" horiz-adv-x="587" 
d="M192 0h-65v488l-108 6v49h108v74c0 99 16 166 137 166c35 0 80 -7 98 -11v-46c-17 2 -61 5 -92 5c-69 0 -78 -30 -78 -114v-74h309v-543h-65v488h-244v-488zM502 649h-67v124h67v-124z" />
    <glyph glyph-name="f_l" unicode="fl" horiz-adv-x="600" 
d="M192 0h-65v488l-108 6v49h108v74c0 132 49 167 171 167c57 0 125 -8 151 -11h66v-773h-66v724c-25 3 -93 7 -144 7c-86 0 -113 -13 -113 -114v-74h167v-55h-167v-488z" />
    <glyph glyph-name="f_f" unicode="ff" horiz-adv-x="708" 
d="M509 0h-65v488h-251v-488h-66v488l-107 6v49h107v74c0 95 16 166 137 166c36 0 81 -7 99 -11v-46c-17 2 -61 5 -92 5c-69 0 -78 -32 -78 -114v-74h251v74c0 95 16 166 136 166c36 0 81 -7 99 -11v-46c-17 2 -61 5 -92 5c-69 0 -78 -30 -78 -114v-74h166v-55h-166v-488z
" />
    <glyph glyph-name="f_f_i" unicode="ffi" horiz-adv-x="912" 
d="M827 0h-66v488h-252v-488h-65v488h-251v-488h-66v488l-107 6v49h107v74c0 97 16 166 137 166c36 0 81 -7 99 -11v-46c-17 2 -61 5 -92 5c-68 0 -78 -30 -78 -114v-74h251v74c0 97 16 166 136 166c36 0 81 -7 99 -11v-46c-17 2 -61 5 -92 5c-68 0 -78 -30 -78 -114v-74
h318v-543zM828 649h-67v124h67v-124z" />
    <glyph glyph-name="f_f_l" unicode="ffl" horiz-adv-x="916" 
d="M831 0h-66v724c-21 2 -93 7 -142 7c-90 0 -114 -15 -114 -114v-74h167v-55h-167v-488h-65v488h-251v-488h-66v488l-107 6v49h107v74c0 99 18 166 138 166c37 0 82 -7 98 -11v-46c-17 2 -60 5 -91 5c-69 0 -79 -28 -79 -114v-74h251v74c0 130 46 167 171 167
c54 0 127 -9 150 -11h66v-773z" />
    <glyph glyph-name="f_b" unicode="fb" horiz-adv-x="913" 
d="M192 0h-65v488l-108 6v49h108v74c0 127 47 167 158 167c52 0 109 -7 149 -11h64v-248c51 24 108 33 150 33c145 0 210 -75 210 -244v-70c0 -182 -75 -257 -237 -257c-54 0 -99 2 -187 12v725c-44 4 -94 7 -142 7c-75 0 -100 -15 -100 -114v-74h165v-55h-165v-488zM499 51
c40 -4 82 -6 124 -6c117 0 169 49 169 199v70c0 136 -43 186 -151 186c-30 0 -95 -6 -142 -28v-421z" />
    <glyph glyph-name="f_f_b" unicode="ffb" horiz-adv-x="1231" 
d="M510 0h-65v488h-252v-488h-66v488l-110 5v50h110v74c0 95 15 166 137 166c36 0 74 -6 97 -11v-46c-22 2 -59 5 -89 5c-70 0 -79 -30 -79 -114v-74h252v74c0 127 47 167 158 167c51 0 109 -7 149 -11h65v-248c49 24 108 33 150 33c145 0 210 -75 210 -244v-70
c0 -182 -76 -257 -237 -257c-55 0 -99 2 -188 12v725c-35 3 -95 7 -142 7c-75 0 -100 -15 -100 -114v-74h166v-55h-166v-488zM1111 244v70c0 136 -43 186 -152 186c-29 0 -95 -6 -141 -28v-421c37 -4 81 -6 124 -6c117 0 169 49 169 199z" />
    <glyph glyph-name="f_f_h" unicode="ffh" horiz-adv-x="1251" 
d="M1175 0h-66v342c0 122 -33 158 -120 158c-64 0 -131 -25 -173 -46v-454h-65v724c-32 3 -94 7 -140 7c-79 0 -103 -15 -103 -114v-74h165v-55h-165v-488h-65v488h-250v-488h-66v488l-110 6v49h110v74c0 95 15 166 137 166c36 0 79 -7 97 -11v-46c-16 2 -59 5 -90 5
c-69 0 -78 -30 -78 -114v-74h250v74c0 130 49 167 162 167c50 0 112 -7 146 -11h65v-266c41 21 106 50 185 50c123 0 174 -67 174 -213v-344z" />
    <glyph glyph-name="f_f_k" unicode="ffk" horiz-adv-x="1168" 
d="M1155 0h-88l-241 275v-275h-65v724c-37 3 -96 7 -147 7c-78 0 -103 -15 -103 -114v-74h166v-55h-166v-488h-65v488h-253v-488h-66v488l-110 6v49h110v74c0 95 16 166 137 166c36 0 79 -7 97 -11v-46c-16 2 -59 5 -90 5c-69 0 -78 -30 -78 -114v-74h253v74
c0 130 50 167 161 167c58 0 116 -7 154 -11h65v-478l240 248h86l-252 -257z" />
    <glyph glyph-name="f_h" unicode="fh" horiz-adv-x="937" 
d="M860 0h-65v342c0 122 -34 158 -121 158c-64 0 -131 -25 -173 -46v-454h-65v724c-34 3 -90 7 -140 7c-79 0 -103 -15 -103 -114v-74h165v-55h-165v-488h-66v488l-110 6v49h110v74c0 130 50 167 163 167c56 0 113 -7 146 -11h65v-266c41 21 107 50 185 50
c123 0 174 -67 174 -213v-344z" />
    <glyph glyph-name="f_j" unicode="fj" horiz-adv-x="599" 
d="M193 0h-66v488l-110 6v49h110v74c0 95 17 166 137 166c36 0 79 -7 97 -11v-46c-16 2 -59 5 -90 5c-69 0 -78 -30 -78 -114v-74h320v-617c0 -101 -28 -145 -121 -145c-23 0 -49 3 -66 6v48c19 -2 39 -3 58 -3c54 0 64 24 64 94v562h-255v-488zM514 648h-68v125h68v-125z
" />
    <glyph glyph-name="f_f_j" unicode="ffj" horiz-adv-x="917" 
d="M511 0h-65v488h-254v-488h-65v488l-110 6v49h110v74c0 95 17 166 136 166c36 0 81 -7 99 -11v-46c-17 2 -61 5 -92 5c-68 0 -78 -33 -78 -114v-74h254v74c0 95 16 166 137 166c35 0 78 -7 96 -11v-46c-16 2 -58 5 -90 5c-69 0 -78 -30 -78 -114v-74h321v-617
c0 -101 -29 -145 -121 -145c-23 0 -51 3 -67 6v48c19 -2 39 -3 59 -3c52 0 63 24 63 94v562h-255v-488zM832 648h-67v125h67v-125z" />
    <glyph glyph-name="f_k" unicode="fk" horiz-adv-x="852" 
d="M838 0h-87l-241 275v-275h-65v724c-37 3 -96 7 -149 7c-79 0 -103 -15 -103 -114v-74h165v-55h-165v-488h-66v488l-110 6v49h110v74c0 130 50 167 163 167c59 0 116 -7 155 -11h65v-478l240 248h86l-253 -257z" />
    <glyph glyph-name=".notdef" horiz-adv-x="500" 
d="M12 0v665h475v-665h-475zM88 618l162 -243l161 243h-323zM60 575v-484c0 -1 161 242 161 242zM440 575l-162 -242l162 -243v485zM411 48l-161 242l-162 -242h323z" />
    <glyph glyph-name="space" unicode=" " horiz-adv-x="201" 
 />
    <glyph glyph-name="exclam" unicode="!" horiz-adv-x="231" 
d="M149 0h-67v127h67v-127zM151 765l-6 -574h-58l-7 574h71z" />
    <glyph glyph-name="quotedbl" unicode="&#x22;" horiz-adv-x="314" 
d="M20 519l19 240h66l-35 -240h-50zM294 759l-35 -240h-50l19 240h66z" />
    <glyph glyph-name="numbersign" unicode="#" horiz-adv-x="729" 
d="M651 205h-153l-23 -205h-59l22 205h-189l-22 -205h-60l23 205h-107v57h113l23 212h-136v57h142l24 212h59l-23 -212h189l24 212h59l-23 -212h117v-57h-123l-23 -212h146v-57zM468 474h-189l-23 -212h189z" />
    <glyph glyph-name="dollar" unicode="$" horiz-adv-x="592" 
d="M264 -119v106c-80 2 -151 12 -181 18v53c50 -6 123 -13 206 -13c109 0 172 37 172 138c0 73 -34 108 -132 154l-101 47c-100 46 -161 98 -161 199c0 108 69 161 197 170v102h64v-101c74 -1 143 -11 176 -17v-54c-43 5 -127 13 -199 13c-106 0 -171 -27 -171 -113
c0 -68 37 -104 124 -143l101 -46c116 -53 170 -105 170 -211c0 -119 -69 -184 -201 -194v-108h-64z" />
    <glyph glyph-name="percent" unicode="%" horiz-adv-x="1015" 
d="M959 189c0 -136 -63 -200 -166 -200c-104 0 -167 64 -167 200v58c0 136 63 199 167 199c103 0 166 -63 166 -199v-58zM900 189v58c0 117 -47 149 -107 149c-61 0 -108 -32 -108 -149v-58c0 -117 47 -149 108 -149c60 0 107 32 107 149zM779 743l-474 -743h-67l474 743h67
zM391 497c0 -127 -51 -201 -166 -201s-166 77 -166 201v56c0 125 51 201 166 201s166 -73 166 -201v-56zM332 497v56c0 114 -39 151 -107 151s-107 -40 -107 -151v-56c0 -114 39 -150 107 -150s107 36 107 150z" />
    <glyph glyph-name="ampersand" unicode="&#x26;" horiz-adv-x="728" 
d="M659 0h-78l-64 64c-48 -47 -119 -77 -220 -77c-130 0 -237 51 -237 191v6c1 85 40 142 141 197l-6 7c-66 67 -110 117 -110 207c0 118 87 160 213 160c74 0 152 -8 203 -18v-53c-55 6 -129 12 -200 12c-84 0 -148 -17 -148 -104c0 -66 29 -101 98 -171l265 -267
c37 63 43 150 43 226l-62 4v51h186v-51l-62 -4c0 -90 -12 -192 -62 -268l100 -100v-12zM477 104l-234 236c-84 -43 -115 -82 -115 -156v-6c0 -97 74 -134 169 -134c83 0 141 22 180 60z" />
    <glyph glyph-name="quoteright" unicode="&#x2019;" horiz-adv-x="162" 
d="M142 773l-70 -229h-52l52 229h70z" />
    <glyph glyph-name="parenleft" unicode="(" horiz-adv-x="331" 
d="M292 -207h-63c-73 86 -163 249 -163 471v7c0 222 90 385 163 472h63c-91 -118 -160 -263 -160 -472v-7c0 -209 69 -353 160 -471z" />
    <glyph glyph-name="parenright" unicode=")" horiz-adv-x="331" 
d="M264 264c0 -222 -89 -385 -162 -471h-65c92 118 162 262 162 471v7c0 209 -70 354 -162 472h65c73 -87 162 -250 162 -472v-7z" />
    <glyph glyph-name="asterisk" unicode="*" horiz-adv-x="515" 
d="M451 611l-87 -28c-19 -6 -43 -14 -66 -18c16 -16 31 -35 44 -52l53 -73l-47 -34l-53 73c-13 17 -26 37 -38 57c-11 -19 -24 -39 -36 -56l-53 -74l-47 34l53 74c12 17 27 36 42 52c-21 4 -45 11 -64 17l-86 28l17 55l86 -27c20 -6 44 -16 64 -24c-2 21 -4 45 -4 66v92h58
v-92c0 -21 -1 -45 -4 -68c21 9 44 18 63 25l87 29z" />
    <glyph glyph-name="plus" unicode="+" horiz-adv-x="696" 
d="M598 364h-222v-223h-55v223h-224v55h224v223h55v-223h222v-55z" />
    <glyph glyph-name="comma" unicode="," horiz-adv-x="243" 
d="M189 136l-98 -223h-60l82 223h76z" />
    <glyph glyph-name="hyphen" unicode="-" horiz-adv-x="395" 
d="M320 262h-245v56h245v-56z" />
    <glyph glyph-name="period" unicode="." horiz-adv-x="213" 
d="M139 0h-65v136h65v-136z" />
    <glyph glyph-name="slash" unicode="/" horiz-adv-x="405" 
d="M382 743l-299 -743h-63l299 743h63z" />
    <glyph glyph-name="zero" unicode="0" horiz-adv-x="627" 
d="M567 313c0 -226 -95 -326 -253 -326c-159 0 -253 100 -253 326v116c0 226 94 326 253 326c158 0 253 -100 253 -326v-116zM500 313v116c0 203 -79 268 -186 268s-186 -65 -186 -268v-116c0 -204 79 -269 186 -269s186 65 186 269z" />
    <glyph glyph-name="one" unicode="1" horiz-adv-x="498" 
d="M442 0h-383v55l159 4v620l-160 -54v59l176 64h50v-689l158 -4v-55z" />
    <glyph glyph-name="two" unicode="2" horiz-adv-x="584" 
d="M516 0h-450v72c0 176 60 231 229 324c133 73 162 109 162 185c0 85 -55 116 -188 116c-62 0 -140 -8 -189 -16v53c33 7 114 21 192 21c171 0 252 -53 252 -174c0 -94 -40 -153 -192 -235c-164 -89 -200 -130 -200 -273v-14h384v-59z" />
    <glyph glyph-name="three" unicode="3" horiz-adv-x="584" 
d="M522 196c0 -148 -84 -209 -254 -209c-77 0 -167 14 -196 20v51c60 -5 123 -14 195 -14c133 0 188 40 188 152v29c0 67 -13 133 -136 133h-220v57h220c122 0 136 66 136 135v14c0 96 -42 133 -188 133c-70 0 -148 -8 -193 -13v52c18 4 117 19 194 19
c178 0 254 -53 254 -191v-14c0 -70 -23 -136 -100 -164c79 -28 100 -94 100 -161v-29z" />
    <glyph glyph-name="four" unicode="4" horiz-adv-x="638" 
d="M591 207h-119v-207h-67v207h-360v68l350 469h77v-479h119v-58zM405 265v390l-292 -390h292z" />
    <glyph glyph-name="five" unicode="5" horiz-adv-x="581" 
d="M520 206c0 -152 -81 -219 -262 -219c-91 0 -177 16 -202 22v53c41 -5 122 -17 201 -17c150 0 197 48 197 161v27c0 115 -55 150 -205 150h-177l32 360h387v-60h-330l-22 -242h113c180 0 268 -55 268 -208v-27z" />
    <glyph glyph-name="six" unicode="6" horiz-adv-x="626" 
d="M564 221c0 -189 -139 -234 -246 -234c-138 0 -257 48 -257 297v192c0 179 64 279 271 279c83 0 174 -15 202 -21v-52c-39 5 -128 15 -201 15c-177 0 -205 -85 -205 -220v-47c59 16 139 26 191 26c122 0 245 -30 245 -199v-36zM497 221v34c0 125 -77 146 -180 146
c-48 0 -121 -5 -189 -23v-99c0 -183 75 -234 190 -234c102 0 179 52 179 176z" />
    <glyph glyph-name="seven" unicode="7" horiz-adv-x="562" 
d="M520 672l-328 -672h-75l340 683h-403v60h466v-71z" />
    <glyph glyph-name="eight" unicode="8" horiz-adv-x="644" 
d="M580 211c0 -196 -112 -224 -256 -224h-5c-144 0 -256 29 -256 225v7c0 87 29 141 94 168c-62 25 -91 82 -91 160v10c0 157 110 197 253 197h5c143 0 253 -40 253 -197v-10c0 -79 -29 -135 -91 -160c65 -27 94 -81 94 -167v-9zM513 211v9c-1 86 -26 138 -120 138h-143
c-94 0 -120 -53 -120 -139v-7c0 -140 69 -168 189 -168h5c120 0 189 28 189 167zM511 547v10c0 112 -69 140 -187 140h-5c-118 0 -187 -28 -187 -140v-10c0 -74 24 -131 118 -131h143c94 0 118 56 118 131z" />
    <glyph glyph-name="nine" unicode="9" horiz-adv-x="626" 
d="M564 265c0 -179 -64 -279 -271 -279c-83 0 -174 15 -202 21v53c39 -5 129 -16 200 -16c178 0 206 85 206 220v47c-59 -16 -139 -25 -192 -25c-122 0 -244 29 -244 198v37c0 188 139 234 246 234c137 0 257 -48 257 -297v-193zM497 363v99c0 183 -75 235 -190 235
c-102 0 -180 -52 -180 -176v-35c0 -125 78 -146 181 -146c48 0 120 6 189 23z" />
    <glyph glyph-name="colon" unicode=":" horiz-adv-x="217" 
d="M143 0h-66v136h66v-136zM143 410h-66v136h66v-136z" />
    <glyph glyph-name="semicolon" unicode=";" horiz-adv-x="236" 
d="M168 136l-99 -223h-59l82 223h76zM160 410h-66v136h66v-136z" />
    <glyph glyph-name="less" unicode="&#x3c;" horiz-adv-x="696" 
d="M536 139h-91l-286 252l286 251h91l-287 -251z" />
    <glyph glyph-name="equal" unicode="=" horiz-adv-x="696" 
d="M571 307v-55h-447v55h447zM571 477h-447v55h447v-55z" />
    <glyph glyph-name="greater" unicode="&#x3e;" horiz-adv-x="696" 
d="M535 391l-286 -252h-90l286 252l-286 251h90z" />
    <glyph glyph-name="question" unicode="?" horiz-adv-x="453" 
d="M188 0h-66v129h66v-129zM390 616c0 -68 -22 -115 -103 -195c-93 -92 -101 -119 -101 -190v-39h-64v39c0 81 11 126 106 217c78 75 95 110 95 168v6c0 84 -53 103 -140 103c-43 0 -99 -5 -151 -12v51c48 11 105 19 156 19c123 0 202 -39 202 -161v-6z" />
    <glyph glyph-name="at" unicode="@" horiz-adv-x="823" 
d="M771 377c0 -176 -79 -319 -349 -319c-136 0 -193 47 -193 153c0 217 77 271 196 271c47 0 99 -6 146 -17l-35 -343c134 27 183 127 183 256c0 148 -83 230 -268 230c-195 0 -298 -91 -332 -302c-6 -39 -10 -82 -10 -128c0 -154 79 -243 272 -243c70 0 148 7 167 10v-38
c-27 -5 -98 -15 -167 -15c-221 0 -324 105 -324 286c0 48 5 94 11 133c37 231 152 342 383 342c220 0 320 -106 320 -276zM504 422c-20 3 -54 6 -78 6c-80 0 -137 -31 -137 -217c0 -77 38 -102 132 -102c23 0 35 1 52 2z" />
    <glyph glyph-name="A" unicode="A" horiz-adv-x="643" 
d="M619 0h-71l-87 263h-282l-88 -263h-68l252 743h93zM440 324l-84 249c-13 38 -23 74 -32 115h-7c-10 -41 -20 -77 -32 -115l-86 -249h241z" />
    <glyph glyph-name="B" unicode="B" horiz-adv-x="624" 
d="M569 202c0 -164 -115 -206 -295 -206c-91 0 -117 2 -189 4v743c65 1 101 3 191 3c185 0 289 -36 289 -188v-9c0 -65 -28 -137 -118 -163c91 -26 122 -96 122 -170v-14zM502 202v14c-1 76 -31 142 -182 142h-168v-299c38 -2 70 -4 122 -4c151 0 228 30 228 147zM498 549v9
c0 110 -75 128 -222 128c-49 0 -83 -1 -124 -2v-268h168c149 0 178 63 178 133z" />
    <glyph glyph-name="C" unicode="C" horiz-adv-x="550" 
d="M520 2c-25 -4 -96 -15 -173 -15c-177 0 -292 80 -292 342v85c0 261 115 341 292 341c74 0 144 -11 173 -16v-55c-56 7 -109 11 -173 11c-153 0 -225 -74 -225 -281v-85c0 -207 72 -282 225 -282c66 0 123 4 173 11v-56z" />
    <glyph glyph-name="D" unicode="D" horiz-adv-x="659" 
d="M604 328c0 -215 -91 -332 -319 -332c-84 0 -127 2 -200 4v743c80 2 108 3 200 3c223 0 319 -115 319 -330v-88zM537 328v88c0 201 -88 270 -257 270c-50 0 -89 -1 -128 -2v-625c38 -2 81 -4 128 -4c169 0 257 72 257 273z" />
    <glyph glyph-name="E" unicode="E" horiz-adv-x="568" 
d="M513 0h-428v743h428v-60h-361v-265h337v-61h-337v-298h361v-59z" />
    <glyph glyph-name="F" unicode="F" horiz-adv-x="558" 
d="M513 683h-361v-265h337v-61h-337v-357h-67v743h428v-60z" />
    <glyph glyph-name="G" unicode="G" horiz-adv-x="619" 
d="M554 5c-44 -7 -122 -18 -206 -18c-170 0 -293 84 -293 339v91c0 266 134 338 293 338c97 0 185 -14 206 -17v-55c-43 4 -148 12 -197 12c-142 0 -235 -54 -235 -278v-91c0 -214 87 -278 234 -278c43 0 92 1 131 5v330h67v-378z" />
    <glyph glyph-name="H" unicode="H" horiz-adv-x="708" 
d="M623 0h-67v365h-404v-365h-67v743h67v-317h404v317h67v-743z" />
    <glyph glyph-name="I" unicode="I" horiz-adv-x="240" 
d="M154 0h-67v743h67v-743z" />
    <glyph glyph-name="J" unicode="J" horiz-adv-x="240" 
d="M153 -56c0 -101 -27 -157 -139 -157c-23 0 -55 4 -69 7v51c22 -1 42 -1 65 -1c71 0 77 33 77 100v799h66v-799z" />
    <glyph glyph-name="K" unicode="K" horiz-adv-x="601" 
d="M586 0h-92l-337 364v-364h-67v743h67v-353l341 353h87l-353 -365z" />
    <glyph glyph-name="L" unicode="L" horiz-adv-x="531" 
d="M506 0h-421v743h67v-684h354v-59z" />
    <glyph glyph-name="M" unicode="M" horiz-adv-x="791" 
d="M706 0h-66v539c0 44 2 74 4 116h-2c-16 -35 -33 -66 -50 -99l-155 -292h-84l-153 292c-16 33 -33 66 -50 99h-2c2 -42 3 -71 3 -116v-539h-66v743h88l177 -341c15 -29 30 -60 44 -89h2c14 30 30 61 44 90l179 340h87v-743z" />
    <glyph glyph-name="N" unicode="N" horiz-adv-x="692" 
d="M607 -1h-95l-313 577c-17 32 -36 68 -53 104h-1c2 -41 3 -85 3 -128v-552h-63v743h95l314 -571c16 -30 35 -69 51 -102h1c-2 47 -3 92 -3 130v543h64v-744z" />
    <glyph glyph-name="O" unicode="O" horiz-adv-x="671" 
d="M616 332c0 -235 -103 -345 -280 -345c-178 0 -281 110 -281 345v78c0 235 103 345 281 345c177 0 280 -110 280 -345v-78zM549 332v78c0 215 -89 285 -213 285c-125 0 -214 -70 -214 -285v-78c0 -215 90 -285 214 -285s213 70 213 285z" />
    <glyph glyph-name="P" unicode="P" horiz-adv-x="590" 
d="M550 520c0 -170 -114 -218 -290 -218c-33 0 -71 0 -110 1v-303h-67v744c60 1 116 3 179 3c175 0 287 -44 288 -214v-13zM483 520v13c-1 123 -71 154 -221 154c-43 0 -81 -2 -112 -3v-322c40 -1 77 -1 110 -1c151 0 223 36 223 159z" />
    <glyph glyph-name="Q" unicode="Q" horiz-adv-x="671" 
d="M616 332c0 -221 -92 -329 -247 -343v-58c0 -50 9 -69 74 -69h85v-46c-16 -3 -65 -8 -102 -8c-84 0 -123 29 -123 123v58c-156 14 -248 121 -248 343v78c0 235 103 345 281 345c177 0 280 -110 280 -345v-78zM549 332v78c0 215 -89 285 -213 285
c-125 0 -214 -70 -214 -285v-78c0 -215 90 -285 214 -285s213 70 213 285z" />
    <glyph glyph-name="R" unicode="R" horiz-adv-x="622" 
d="M595 0h-79l-185 303c-22 -1 -50 -1 -70 -1c-37 0 -79 0 -109 1v-303h-67v743c71 3 112 4 174 4c175 0 293 -46 293 -215v-8c0 -120 -53 -180 -150 -207zM484 524v8c0 122 -74 155 -225 155c-33 0 -73 -2 -107 -3v-322c33 -1 72 -1 109 -1c153 0 223 41 223 163z" />
    <glyph glyph-name="S" unicode="S" horiz-adv-x="572" 
d="M517 183c0 -129 -81 -196 -240 -196c-87 0 -173 11 -206 18v53c50 -6 123 -13 206 -13c109 0 172 37 172 138c0 73 -34 108 -132 154l-101 47c-100 46 -161 98 -161 199c0 119 82 172 236 172c83 0 166 -11 201 -18v-54c-43 5 -127 13 -199 13c-106 0 -171 -27 -171 -113
c0 -67 37 -104 124 -143l101 -46c116 -53 170 -105 170 -211z" />
    <glyph glyph-name="T" unicode="T" horiz-adv-x="608" 
d="M578 683h-241v-683h-67v683h-240v60h548v-60z" />
    <glyph glyph-name="U" unicode="U" horiz-adv-x="683" 
d="M603 319c0 -220 -81 -331 -261 -331c-182 0 -262 111 -262 331v424h67v-417c0 -196 46 -278 195 -278c147 0 195 83 195 278v417h66v-424z" />
    <glyph glyph-name="V" unicode="V" horiz-adv-x="657" 
d="M627 743l-254 -743h-90l-253 743h71l199 -588c12 -34 20 -72 29 -104h2c8 33 17 70 29 104l198 588h69z" />
    <glyph glyph-name="W" unicode="W" horiz-adv-x="884" 
d="M839 743l-146 -743h-107l-123 492c-6 28 -13 54 -19 82h-3c-7 -28 -13 -54 -20 -82l-122 -492h-108l-146 743h71l109 -572c7 -38 14 -79 21 -118h3c9 39 18 79 27 118l114 460h106l115 -463c9 -38 18 -76 26 -115h4c6 41 12 76 20 118l109 572h69z" />
    <glyph glyph-name="X" unicode="X" horiz-adv-x="654" 
d="M622 0h-82l-219 324l-214 -324h-75l252 377l-250 366h81l215 -318l212 318h75l-251 -369z" />
    <glyph glyph-name="Y" unicode="Y" horiz-adv-x="601" 
d="M574 743l-240 -443v-300h-67v300l-240 443h73l150 -277c16 -31 36 -68 50 -102h4c14 33 36 71 52 102l149 277h69z" />
    <glyph glyph-name="Z" unicode="Z" horiz-adv-x="604" 
d="M557 0h-510v73l423 610h-407v60h479v-73l-422 -611h437v-59z" />
    <glyph glyph-name="bracketleft" unicode="[" horiz-adv-x="381" 
d="M328 -208h-218v951h218v-57h-153v-839h153v-55z" />
    <glyph glyph-name="backslash" unicode="\" horiz-adv-x="429" 
d="M397 0h-64l-304 743h63z" />
    <glyph glyph-name="bracketright" unicode="]" horiz-adv-x="381" 
d="M270 -208h-218v55h153v840h-153v56h218v-951z" />
    <glyph glyph-name="asciicircum" unicode="^" horiz-adv-x="696" 
d="M587 406h-72l-168 276l-166 -276h-74l186 310h109z" />
    <glyph glyph-name="underscore" unicode="_" horiz-adv-x="575" 
d="M576 -99h-585v45h585v-45z" />
    <glyph glyph-name="quoteleft" unicode="&#x2018;" horiz-adv-x="162" 
d="M142 773l-52 -229h-70l71 229h51z" />
    <glyph glyph-name="a" unicode="a" horiz-adv-x="531" 
d="M458 0h-63v39c-38 -23 -100 -52 -181 -52c-106 0 -162 48 -162 156v15c0 138 89 166 248 166h92v46c0 106 -23 131 -144 131c-53 0 -98 -4 -159 -11v48c51 9 94 19 164 19c173 0 205 -59 205 -187v-370zM392 87v186h-92c-131 0 -183 -18 -183 -115v-19
c0 -75 42 -101 110 -101s135 30 165 49z" />
    <glyph glyph-name="b" unicode="b" horiz-adv-x="559" 
d="M504 244c0 -185 -75 -257 -237 -257c-54 0 -99 2 -187 12v774h65v-248c51 24 107 33 149 33c144 0 210 -71 210 -244v-70zM438 244v70c0 141 -43 186 -151 186c-31 0 -96 -6 -142 -28v-421c39 -4 82 -6 123 -6c118 0 170 46 170 199z" />
    <glyph glyph-name="c" unicode="c" horiz-adv-x="466" 
d="M421 4c-36 -8 -86 -17 -149 -17c-149 0 -217 78 -217 255v60c0 175 70 255 217 255c65 0 116 -10 149 -17v-50c-66 7 -110 10 -140 10c-103 0 -160 -39 -160 -198v-60c0 -162 56 -199 160 -199c28 0 72 3 140 11v-50z" />
    <glyph glyph-name="d" unicode="d" horiz-adv-x="559" 
d="M479 0h-63v31c-38 -21 -94 -44 -161 -44c-131 0 -200 73 -200 247v67c0 197 88 256 226 256c38 0 79 -3 133 -12v228h65v-773zM414 83v407c-52 7 -101 11 -129 11c-108 0 -164 -38 -164 -200v-67c0 -137 43 -191 145 -191c57 0 107 20 148 40z" />
    <glyph glyph-name="e" unicode="e" horiz-adv-x="559" 
d="M506 249h-386v-12c0 -124 34 -193 182 -193c60 0 136 7 186 15v-52c-39 -9 -107 -20 -188 -20c-185 0 -245 83 -245 264v38c0 170 69 268 225 268c157 0 226 -96 226 -275v-33zM438 304v9c0 97 -27 187 -158 187c-132 0 -159 -93 -159 -187l-1 -9h318z" />
    <glyph glyph-name="f" unicode="f" horiz-adv-x="392" 
d="M359 488h-166v-488h-66v488l-107 5v50h107v74c0 95 16 166 137 166c36 0 74 -5 98 -11v-46c-23 2 -60 5 -90 5c-70 0 -79 -30 -79 -114v-74h166v-55z" />
    <glyph glyph-name="g" unicode="g" horiz-adv-x="560" 
d="M480 -20c0 -129 -42 -199 -209 -199c-77 0 -160 12 -189 17v48c59 -5 124 -9 189 -9c119 0 144 40 144 143v27c-24 -7 -79 -20 -130 -20c-151 0 -229 66 -229 250v70c0 171 70 250 241 250c52 0 122 -6 183 -14v-563zM415 62v430c-26 4 -76 9 -118 9
c-131 0 -176 -58 -176 -194v-70c0 -146 47 -194 165 -194c50 0 106 12 129 19z" />
    <glyph glyph-name="h" unicode="h" 
d="M504 0h-66v342c0 122 -33 158 -120 158c-65 0 -131 -25 -173 -46v-454h-65v773h65v-266c41 21 106 50 185 50c122 0 174 -67 174 -213v-344z" />
    <glyph glyph-name="i" unicode="i" horiz-adv-x="236" 
d="M151 0h-66v543h66v-543zM152 649h-67v124h67v-124z" />
    <glyph glyph-name="j" unicode="j" horiz-adv-x="236" 
d="M151 -74c0 -104 -28 -145 -123 -145c-20 0 -49 2 -65 4v49c20 -1 40 -2 59 -2c54 0 63 24 63 94v617h66v-617zM152 648h-67v125h67v-125z" />
    <glyph glyph-name="k" unicode="k" horiz-adv-x="487" 
d="M473 0h-87l-241 275v-275h-65v773h65v-478l240 248h86l-253 -257z" />
    <glyph glyph-name="l" unicode="l" horiz-adv-x="232" 
d="M149 0h-65v773h65v-773z" />
    <glyph glyph-name="m" unicode="m" horiz-adv-x="835" 
d="M759 0h-66v363c0 86 -7 137 -95 137c-42 0 -98 -18 -153 -51c5 -25 7 -51 7 -86v-363h-66v363c0 88 -5 137 -90 137c-47 0 -103 -23 -151 -51v-449h-65v543h65v-43c51 35 108 57 165 57c65 0 101 -23 121 -61c64 43 125 61 175 61c146 0 153 -103 153 -194v-363z" />
    <glyph glyph-name="n" unicode="n" 
d="M504 0h-66v344c0 116 -25 156 -112 156c-52 0 -113 -20 -181 -52v-448h-65v543h65v-44c60 32 122 58 187 58c140 0 172 -74 172 -213v-344z" />
    <glyph glyph-name="o" unicode="o" horiz-adv-x="564" 
d="M508 243c0 -168 -72 -256 -226 -256s-226 88 -226 256v58c0 167 72 256 226 256s226 -89 226 -256v-58zM443 243v58c0 139 -48 198 -161 198c-112 0 -161 -59 -161 -198v-58c0 -139 48 -199 161 -199s161 60 161 199z" />
    <glyph glyph-name="p" unicode="p" horiz-adv-x="560" 
d="M504 256c0 -204 -90 -269 -231 -269c-33 0 -81 5 -129 13v-209h-64v752h62v-39c46 30 109 53 169 53c130 0 193 -73 193 -261v-40zM439 256v40c0 152 -40 203 -137 203c-52 0 -101 -18 -158 -46v-398c53 -8 96 -12 129 -12c107 0 166 44 166 213z" />
    <glyph glyph-name="q" unicode="q" horiz-adv-x="559" 
d="M479 -209h-65v230c-55 -25 -115 -34 -161 -34c-136 0 -198 69 -198 261v40c0 210 76 269 241 269c53 0 98 -2 183 -13v-753zM414 75v419c-38 3 -91 5 -119 5c-120 0 -175 -33 -175 -211v-40c0 -154 39 -203 143 -203c33 0 90 6 151 30z" />
    <glyph glyph-name="r" unicode="r" horiz-adv-x="361" 
d="M348 498c-60 0 -144 -14 -204 -50v-448h-64v543h64v-44c64 46 141 58 204 58v-59z" />
    <glyph glyph-name="s" unicode="s" horiz-adv-x="472" 
d="M428 134c0 -77 -44 -147 -197 -147c-73 0 -148 13 -174 20v51c34 -4 107 -15 172 -15c102 0 134 35 134 90c0 54 -24 75 -122 115l-39 15c-104 42 -152 85 -152 162c0 90 63 132 194 132c67 0 133 -11 159 -19v-50c-51 7 -114 12 -156 12c-90 0 -131 -16 -131 -75
c0 -51 28 -73 112 -107l39 -16c121 -51 161 -86 161 -168z" />
    <glyph glyph-name="t" unicode="t" horiz-adv-x="390" 
d="M362 -1c-22 -5 -64 -12 -98 -12c-92 0 -123 35 -123 135v366l-118 5v50h118v146h65v-146h156v-55h-156v-363c0 -69 9 -85 65 -85c27 0 67 2 91 5v-46z" />
    <glyph glyph-name="u" unicode="u" 
d="M500 0h-65v44c-66 -34 -128 -57 -193 -57c-133 0 -165 83 -165 212v344h64v-344c0 -116 26 -156 113 -156c54 0 114 21 181 53v447h65v-543z" />
    <glyph glyph-name="v" unicode="v" horiz-adv-x="505" 
d="M485 543l-187 -543h-91l-187 543h71l122 -367c15 -46 27 -88 39 -131h2c13 43 24 84 39 131l121 367h71z" />
    <glyph glyph-name="w" unicode="w" horiz-adv-x="810" 
d="M780 543l-129 -543h-94l-121 358c-14 42 -23 73 -29 96h-3c-7 -23 -15 -54 -29 -96l-121 -358h-94l-130 543h67l86 -369c9 -41 17 -83 22 -123h4c13 42 24 85 37 123l109 328h101l109 -328c13 -38 24 -81 37 -123h4c5 40 13 82 22 123l85 369h67z" />
    <glyph glyph-name="x" unicode="x" horiz-adv-x="513" 
d="M489 0h-79l-158 223l-155 -223h-77l195 278l-185 265h77l157 -222l150 222h75l-191 -273z" />
    <glyph glyph-name="y" unicode="y" horiz-adv-x="520" 
d="M495 543l-207 -586c-42 -119 -74 -176 -183 -176c-37 0 -73 4 -95 7v52c39 -3 63 -4 93 -4c66 0 83 28 120 128l13 37l-210 542h72l130 -348c15 -41 25 -74 41 -122c13 48 23 80 37 123l119 347h70z" />
    <glyph glyph-name="z" unicode="z" horiz-adv-x="479" 
d="M433 0h-391v72l319 416h-307v55h378v-67l-323 -422h324v-54z" />
    <glyph glyph-name="braceleft" unicode="{" horiz-adv-x="401" 
d="M347 -209h-55c-136 0 -159 52 -159 136v182c0 70 -14 95 -70 134v48c56 39 70 64 70 134v182c0 86 23 136 159 136h54v-56h-54c-86 0 -94 -22 -94 -80v-182c0 -77 -20 -120 -75 -158c55 -39 75 -82 75 -158v-182c0 -59 8 -81 94 -81h55v-55z" />
    <glyph glyph-name="bar" unicode="|" horiz-adv-x="282" 
d="M173 -209h-65v952h65v-952z" />
    <glyph glyph-name="braceright" unicode="}" horiz-adv-x="401" 
d="M338 243c-56 -39 -70 -64 -70 -134v-182c0 -84 -23 -136 -159 -136h-55v55h55c86 0 94 22 94 81v182c0 76 20 119 75 158c-55 38 -75 81 -75 158v182c0 58 -8 80 -94 80h-54v56h54c136 0 159 -50 159 -136v-182c0 -70 14 -95 70 -134v-48z" />
    <glyph glyph-name="asciitilde" unicode="~" horiz-adv-x="696" 
d="M572 481c0 -83 -19 -139 -101 -139c-43 0 -79 18 -113 48l-58 51c-28 27 -44 40 -72 40c-44 0 -51 -32 -51 -88v-42h-54v42c0 85 24 140 106 140c40 0 66 -18 103 -51l56 -48c26 -24 51 -40 80 -40c46 0 50 34 50 87v43h54v-43z" />
    <glyph glyph-name="exclamdown" unicode="&#xa1;" horiz-adv-x="231" 
d="M151 -219h-71l7 570h58zM149 415h-67v127h67v-127z" />
    <glyph glyph-name="cent" unicode="&#xa2;" horiz-adv-x="478" 
d="M424 540v-50c-65 7 -110 10 -140 10c-102 0 -160 -44 -160 -188v-80c0 -147 57 -189 160 -189c29 0 73 3 140 11v-50c-32 -7 -72 -14 -122 -17v-109h-60v111c-126 12 -184 93 -184 243v80c0 148 59 230 184 243v111h60v-110c50 -2 90 -9 122 -16z" />
    <glyph glyph-name="sterling" unicode="&#xa3;" horiz-adv-x="619" 
d="M552 735v-53c-33 4 -108 11 -177 11c-137 0 -159 -46 -159 -188v-89h260v-56h-260v-166c0 -54 -13 -97 -44 -137h380v-57h-454v52c40 43 51 92 51 142v166h-82v56h82v89c0 167 40 247 222 247c79 0 145 -10 181 -17z" />
    <glyph glyph-name="fraction" unicode="&#x2044;" horiz-adv-x="396" 
d="M470 743l-473 -743h-67l473 743h67z" />
    <glyph glyph-name="yen" unicode="&#xa5;" horiz-adv-x="650" 
d="M583 259h-226v-259h-67v259h-227v53h220l-62 116h-158v53h128l-141 262h73l150 -277c16 -31 36 -68 50 -102h4c14 33 36 71 52 102l149 277h69l-142 -262h128v-53h-157l-63 -116h220v-53z" />
    <glyph glyph-name="florin" unicode="&#x192;" horiz-adv-x="628" 
d="M572 745l-6 -47c-26 3 -53 5 -76 5c-64 0 -92 -17 -103 -108l-24 -175h178l-8 -55h-179l-47 -356c-16 -122 -69 -155 -158 -155c-33 0 -68 4 -93 10l7 47c25 -3 53 -5 78 -5c59 0 89 15 101 107l47 352h-156l8 55h157l24 179c17 121 66 156 161 156c29 0 65 -4 89 -10z
" />
    <glyph glyph-name="section" unicode="&#xa7;" horiz-adv-x="629" 
d="M101 -205v56c44 -5 125 -13 201 -13c118 0 172 45 172 135c0 73 -23 101 -143 163l-101 51c-93 48 -146 101 -146 190c0 33 8 74 30 106c-19 28 -31 61 -31 102c0 120 84 170 237 170c87 0 163 -11 200 -18v-56c-39 4 -117 13 -198 13c-117 0 -169 -29 -169 -109
c0 -66 31 -101 126 -148l97 -48c126 -61 169 -113 169 -202c0 -33 -6 -69 -29 -107c20 -33 29 -66 29 -107c0 -117 -79 -196 -240 -196c-83 0 -168 11 -204 18zM469 125c6 14 8 32 8 50c0 79 -24 104 -130 156l-97 48c-50 25 -73 43 -92 60c-7 -14 -12 -33 -12 -54
c0 -82 32 -102 117 -145l98 -49c45 -22 82 -45 108 -66z" />
    <glyph glyph-name="currency" unicode="&#xa4;" horiz-adv-x="641" 
d="M562 183l-46 -46l-76 76c-35 -26 -78 -40 -120 -40s-85 12 -120 40l-77 -75l-45 45l76 76c-26 34 -40 79 -40 120c0 44 13 85 40 120l-76 76l46 45l76 -75c35 27 78 39 120 39s85 -12 121 -39l75 75l46 -45l-76 -75c25 -35 40 -77 40 -121c0 -43 -13 -85 -39 -121z
M471 379c0 82 -66 153 -151 153c-81 0 -150 -67 -150 -153c0 -83 68 -153 150 -153c81 0 150 68 151 153z" />
    <glyph glyph-name="quotesingle" unicode="'" horiz-adv-x="125" 
d="M105 759l-35 -240h-50l19 240h66z" />
    <glyph glyph-name="quotedblleft" unicode="&#x201c;" horiz-adv-x="346" 
d="M326 773l-53 -229h-70l71 229h52zM91 773h51l-52 -229h-70z" />
    <glyph glyph-name="guillemotleft" unicode="&#xab;" horiz-adv-x="613" 
d="M215 78l-159 207l159 206h78l-156 -206l156 -207h-78zM318 285l161 206h78l-158 -206l158 -207h-78z" />
    <glyph glyph-name="guilsinglleft" unicode="&#x2039;" horiz-adv-x="350" 
d="M294 78h-78l-160 207l160 206h78l-157 -206z" />
    <glyph glyph-name="guilsinglright" unicode="&#x203a;" horiz-adv-x="350" 
d="M295 285l-161 -207h-78l158 207l-158 206h78z" />
    <glyph glyph-name="endash" unicode="&#x2013;" horiz-adv-x="498" 
d="M427 262h-356v57h356v-57z" />
    <glyph glyph-name="dagger" unicode="&#x2020;" horiz-adv-x="494" 
d="M419 495h-144v-615h-65v615h-132v58h132v220h65v-220h144v-58z" />
    <glyph glyph-name="daggerdbl" unicode="&#x2021;" horiz-adv-x="494" 
d="M421 277h-146v-397h-65v397h-134v58h134v156h-134v58h134v221h65v-221h146v-58h-146v-156h146v-58z" />
    <glyph glyph-name="periodcentered" unicode="&#xb7;" horiz-adv-x="213" 
d="M140 300h-67v138h67v-138z" />
    <glyph glyph-name="paragraph" unicode="&#xb6;" horiz-adv-x="712" 
d="M635 -201h-61v888h-75v-888h-61v464h-57c-182 0 -315 45 -315 235v10c0 199 133 236 321 236h248v-945z" />
    <glyph glyph-name="bullet" unicode="&#x2022;" horiz-adv-x="533" 
d="M398 369c0 -72 -59 -132 -132 -132c-72 0 -132 60 -132 132c0 73 60 132 132 132c73 0 132 -59 132 -132z" />
    <glyph glyph-name="quotesinglbase" unicode="&#x201a;" horiz-adv-x="162" 
d="M142 134l-70 -228h-52l52 228h70z" />
    <glyph glyph-name="quotedblbase" unicode="&#x201e;" horiz-adv-x="346" 
d="M20 -95l53 229h70l-71 -229h-52zM255 -95h-51l52 229h70z" />
    <glyph glyph-name="quotedblright" unicode="&#x201d;" horiz-adv-x="346" 
d="M20 544l53 229h70l-71 -229h-52zM255 544h-51l52 229h70z" />
    <glyph glyph-name="guillemotright" unicode="&#xbb;" horiz-adv-x="613" 
d="M557 285l-159 -207h-78l156 207l-156 206h78zM134 491l161 -206l-161 -207h-78l158 207l-158 206h78z" />
    <glyph glyph-name="ellipsis" unicode="&#x2026;" horiz-adv-x="768" 
d="M142 0h-66v136h66v-136zM417 0h-66v136h66v-136zM691 0h-65v136h65v-136z" />
    <glyph glyph-name="perthousand" unicode="&#x2030;" horiz-adv-x="1414" 
d="M1358 189c0 -136 -62 -200 -166 -200s-166 64 -166 200v58c0 136 62 199 166 199s166 -63 166 -199v-58zM1299 189v58c0 117 -46 149 -107 149s-107 -32 -107 -149v-58c0 -117 46 -149 107 -149s107 32 107 149zM959 189c0 -136 -63 -200 -166 -200
c-104 0 -167 64 -167 200v58c0 136 63 199 167 199c103 0 166 -63 166 -199v-58zM900 189v58c0 117 -47 149 -107 149c-61 0 -108 -32 -108 -149v-58c0 -117 47 -149 108 -149c60 0 107 32 107 149zM779 743l-474 -743h-67l474 743h67zM391 497c0 -127 -51 -201 -166 -201
s-166 77 -166 201v56c0 125 51 201 166 201s166 -73 166 -201v-56zM332 497v56c0 114 -39 151 -107 151s-107 -40 -107 -151v-56c0 -114 39 -150 107 -150s107 36 107 150z" />
    <glyph glyph-name="questiondown" unicode="&#xbf;" horiz-adv-x="453" 
d="M424 -213c-49 -12 -106 -20 -157 -20c-123 0 -202 38 -202 154v6c0 68 22 115 103 194c93 92 101 119 101 190v39h64v-39c0 -81 -11 -126 -105 -217c-79 -75 -96 -109 -96 -167v-6c0 -78 53 -96 140 -96c44 0 100 6 152 12v-50zM333 413h-66v130h66v-130z" />
    <glyph glyph-name="grave" unicode="`" horiz-adv-x="431" 
d="M276 616h-67l-148 154h80z" />
    <glyph glyph-name="acute" unicode="&#xb4;" horiz-adv-x="443" 
d="M371 770l-148 -154h-66l134 154h80z" />
    <glyph glyph-name="circumflex" unicode="&#x2c6;" horiz-adv-x="453" 
d="M407 616h-67l-114 116l-112 -116h-67l138 154h84z" />
    <glyph glyph-name="tilde" unicode="&#x2dc;" horiz-adv-x="448" 
d="M414 737c0 -75 -20 -123 -89 -123c-36 0 -63 14 -96 44l-41 38c-25 24 -39 34 -62 34c-37 0 -43 -32 -43 -77v-34h-49v34c0 76 24 124 92 124c37 0 59 -13 92 -42l42 -39c24 -23 40 -35 64 -35c37 0 42 31 42 76v34h48v-34z" />
    <glyph glyph-name="macron" unicode="&#xaf;" horiz-adv-x="451" 
d="M397 664h-343v52h343v-52z" />
    <glyph glyph-name="breve" unicode="&#x2d8;" horiz-adv-x="445" 
d="M385 771c-8 -87 -45 -156 -162 -156c-118 0 -155 69 -162 156h50c7 -73 35 -111 112 -111c76 0 104 38 112 111h50z" />
    <glyph glyph-name="dotaccent" unicode="&#x2d9;" horiz-adv-x="431" 
d="M253 649h-65v121h65v-121z" />
    <glyph glyph-name="dieresis" unicode="&#xa8;" horiz-adv-x="441" 
d="M365 642h-59v119h59v-119zM136 761v-119h-60v119h60z" />
    <glyph glyph-name="ring" unicode="&#x2da;" horiz-adv-x="445" 
d="M338 711c0 -75 -49 -108 -114 -108s-116 33 -116 108s51 108 116 108s114 -33 114 -108zM292 711c0 51 -32 67 -68 67c-38 0 -69 -16 -69 -67s31 -67 69 -67c36 0 68 16 68 67z" />
    <glyph glyph-name="cedilla" unicode="&#xb8;" horiz-adv-x="435" 
d="M279 -68l-134 -141h-69l121 141h82z" />
    <glyph glyph-name="hungarumlaut" unicode="&#x2dd;" horiz-adv-x="449" 
d="M477 768l-147 -154h-67l135 154h79zM209 768h80l-147 -154h-68z" />
    <glyph glyph-name="ogonek" unicode="&#x2db;" horiz-adv-x="445" 
d="M338 -207c-12 -4 -46 -10 -85 -10c-84 0 -121 37 -121 94c0 53 58 99 135 132l71 -9c-113 -50 -150 -82 -150 -120c0 -33 17 -54 71 -54c27 0 56 4 79 6v-39z" />
    <glyph glyph-name="caron" unicode="&#x2c7;" horiz-adv-x="453" 
d="M47 770h67l112 -117l114 117h67l-138 -154h-84z" />
    <glyph glyph-name="emdash" unicode="&#x2014;" horiz-adv-x="637" 
d="M566 262h-495v57h495v-57z" />
    <glyph glyph-name="AE" unicode="&#xc6;" horiz-adv-x="942" 
d="M887 0h-427v263h-275l-87 -263h-68l249 743h608v-60h-361v-265h338v-61h-338v-298h361v-59zM460 323v361h-135c-11 -36 -22 -71 -34 -108l-86 -253h255z" />
    <glyph glyph-name="ordfeminine" unicode="&#xaa;" horiz-adv-x="395" 
d="M320 437h-52v24c-22 -13 -62 -32 -114 -32c-63 0 -104 30 -104 94v10c0 87 66 99 161 99h55v22c0 60 -14 74 -88 74c-29 0 -82 -4 -103 -6v36c18 4 66 12 111 12c110 0 134 -34 134 -116v-217zM266 499v96h-55c-78 0 -108 -8 -108 -61v-13c0 -41 26 -50 65 -50
c40 0 81 17 98 28z" />
    <glyph glyph-name="Lslash" unicode="&#x141;" horiz-adv-x="531" 
d="M-3 229v80l89 85v349h66v-282l119 118v-80l-119 -118v-322h354v-59h-420v315z" />
    <glyph glyph-name="Oslash" unicode="&#xd8;" horiz-adv-x="671" 
d="M616 332c0 -235 -103 -345 -280 -345c-79 0 -142 21 -189 66l-37 -53h-70l69 98c-35 55 -54 133 -54 234v78c0 235 103 345 281 345c78 0 143 -22 190 -69l40 57h69l-71 -101c34 -56 52 -132 52 -232v-78zM488 633c-38 44 -91 62 -152 62c-125 0 -214 -70 -214 -285v-78
c0 -75 11 -132 32 -173zM549 332v78c0 74 -11 129 -30 170l-334 -474c38 -43 90 -59 151 -59c124 0 213 70 213 285z" />
    <glyph glyph-name="OE" unicode="&#x152;" horiz-adv-x="961" 
d="M903 59v-59h-407c-54 -8 -96 -14 -154 -14c-182 0 -287 112 -287 338v94c0 226 105 337 287 337c53 0 99 -5 149 -12h412v-60h-361v-265h337v-61h-337v-298h361zM475 56v628c-54 8 -93 11 -133 11c-128 0 -219 -72 -219 -277v-94c0 -206 91 -278 219 -278
c41 0 77 2 133 10z" />
    <glyph glyph-name="ordmasculine" unicode="&#xba;" horiz-adv-x="398" 
d="M348 584c0 -98 -49 -157 -149 -157s-149 59 -149 157v31c0 98 49 155 149 155s149 -57 149 -155v-31zM294 584v31c0 74 -28 110 -95 110c-66 0 -95 -36 -95 -110v-31c0 -74 28 -111 95 -111s95 37 95 111z" />
    <glyph glyph-name="ae" unicode="&#xe6;" horiz-adv-x="896" 
d="M827 7c-40 -9 -112 -20 -188 -20c-111 0 -176 20 -211 72c-63 -47 -131 -72 -217 -72c-100 0 -160 48 -160 153v21c0 135 89 163 248 163h93v46c0 105 -23 131 -144 131c-51 0 -103 -4 -161 -11v48c30 6 100 19 165 19c126 0 166 -30 186 -84c32 51 89 83 181 83
c159 0 226 -101 226 -261v-46h-387v-55c0 -97 38 -152 182 -152c70 0 135 9 187 18v-53zM778 304v15c0 89 -28 181 -159 181c-132 0 -160 -94 -160 -173v-23h319zM392 93v180h-93c-131 0 -182 -17 -182 -112v-26c0 -71 42 -97 106 -97c70 0 137 32 169 55z" />
    <glyph glyph-name="dotlessi" unicode="&#x131;" horiz-adv-x="236" 
d="M151 0h-66v543h66v-543z" />
    <glyph glyph-name="lslash" unicode="&#x142;" horiz-adv-x="232" 
d="M150 0h-66v328l-72 -70v80l72 70v365h66v-298l71 68v-80l-71 -69v-394z" />
    <glyph glyph-name="oslash" unicode="&#xf8;" horiz-adv-x="564" 
d="M508 243c0 -168 -72 -256 -226 -256c-61 0 -108 14 -144 41l-39 -53h-69l69 92c-29 42 -43 101 -43 176v58c0 167 72 256 226 256c65 0 115 -17 152 -48l44 59h69l-77 -101c26 -42 38 -97 38 -166v-58zM443 243v58c0 44 -6 80 -18 107l-250 -331c26 -22 61 -33 107 -33
c112 0 161 60 161 199zM396 460c-25 26 -63 39 -114 39c-113 0 -161 -59 -161 -198v-58c0 -51 7 -91 21 -120z" />
    <glyph glyph-name="oe" unicode="&#x153;" horiz-adv-x="945" 
d="M893 249h-387v-17c0 -120 39 -190 182 -190c70 0 134 9 187 18v-53c-39 -9 -113 -20 -189 -20c-108 0 -180 32 -215 105c-31 -63 -91 -106 -192 -106c-154 0 -226 94 -226 249v73c0 155 72 249 226 249c98 0 162 -42 194 -106c32 65 96 106 193 106
c158 0 227 -102 227 -263v-45zM825 304v14c0 90 -28 182 -159 182c-132 0 -159 -93 -160 -172v-24h319zM440 235v73c0 130 -49 192 -161 192s-160 -64 -161 -192v-73c1 -128 49 -192 161 -192c113 0 161 64 161 192z" />
    <glyph glyph-name="germandbls" unicode="&#xdf;" horiz-adv-x="611" 
d="M154 0h-66v511c0 176 60 276 230 276c159 0 222 -84 222 -200v-9c0 -86 -40 -147 -115 -171c79 -21 131 -82 131 -175v-21c0 -135 -72 -220 -236 -220c-11 0 -29 0 -58 3v52c29 -2 44 -2 56 -2c118 0 174 52 174 168v20c0 92 -53 146 -184 146h-46v52h46
c127 0 168 61 168 148v9c0 86 -35 143 -158 143c-121 0 -164 -59 -164 -219v-511z" />
    <glyph glyph-name="one.superior" unicode="&#xb9;" horiz-adv-x="387" 
d="M334 335h-273v44l106 2v340l-107 -34v49l122 42h45v-397l107 -2v-44z" />
    <glyph glyph-name="logicalnot" unicode="&#xac;" horiz-adv-x="696" 
d="M571 252h-56v225h-391v55h447v-280z" />
    <glyph glyph-name="mu" unicode="&#xb5;" horiz-adv-x="627" 
d="M525 0h-65v44c-66 -34 -129 -57 -194 -57c-47 0 -79 11 -99 38v-234h-66v752h65v-344c0 -116 26 -156 113 -156c54 0 114 21 181 53v447h65v-543z" />
    <glyph glyph-name="trademark" unicode="&#x2122;" horiz-adv-x="867" 
d="M791 349h-55v249c0 27 1 54 2 81h-1c-12 -22 -25 -45 -38 -65l-70 -110h-45l-69 109c-13 19 -27 44 -39 66h-1c1 -27 2 -54 2 -81v-249h-54v394h66l88 -143c11 -17 19 -31 29 -50h1c10 19 18 33 29 50l88 143h67v-394zM355 698h-129v-349h-55v349h-129v45h313v-45z" />
    <glyph glyph-name="Eth" unicode="&#xd0;" horiz-adv-x="659" 
d="M604 328c0 -215 -91 -332 -319 -332c-73 0 -138 2 -200 4v357h-57v59h57v327c69 2 124 3 200 3c223 0 319 -115 319 -330v-88zM537 328v88c0 201 -88 270 -257 270c-50 0 -89 -1 -128 -2v-268h166v-59h-166v-298c38 -2 81 -4 128 -4c169 0 257 72 257 273z" />
    <glyph glyph-name="onehalf" unicode="&#xbd;" horiz-adv-x="970" 
d="M745 743l-474 -743h-66l473 743h67zM335 307h-273v44l106 2v340l-107 -34v49l122 42h45v-397l107 -2v-44zM625 394v41c22 5 83 13 137 13c106 0 160 -29 160 -106c0 -59 -27 -94 -124 -142c-103 -51 -120 -72 -120 -147v-5h238v-48h-298v44c0 104 33 139 144 194
c89 43 100 62 100 103c0 47 -32 62 -106 62c-45 0 -103 -6 -131 -9z" />
    <glyph glyph-name="plusminus" unicode="&#xb1;" horiz-adv-x="696" 
d="M593 0h-492v55h492v-55zM598 384h-222v-223h-55v223h-224v55h224v223h55v-223h222v-55z" />
    <glyph glyph-name="Thorn" unicode="&#xde;" horiz-adv-x="590" 
d="M550 390c0 -170 -114 -218 -290 -218c-33 0 -71 0 -110 1v-173h-67v744h67v-129c36 1 73 2 112 2c175 0 287 -44 288 -214v-13zM483 390v13c-1 123 -71 154 -221 154c-43 0 -81 -2 -112 -3v-322c40 -1 77 -1 110 -1c151 0 223 36 223 159z" />
    <glyph glyph-name="onequarter" unicode="&#xbc;" horiz-adv-x="888" 
d="M745 743l-474 -743h-66l473 743h67zM335 307h-273v44l106 2v340l-107 -34v49l122 42h45v-397l107 -2v-44zM762 0h-60v117h-225v49l226 275h59v-279h72v-45h-72v-117zM704 162v210l-170 -210h170z" />
    <glyph glyph-name="divide" unicode="&#xf7;" horiz-adv-x="696" 
d="M381 109h-67v132h67v-132zM590 418v-55h-485v55h485zM381 530h-67v131h67v-131z" />
    <glyph glyph-name="brokenbar" unicode="&#xa6;" horiz-adv-x="282" 
d="M173 -209h-65v392h65v-392zM173 743v-392h-65v392h65z" />
    <glyph glyph-name="degree" unicode="&#xb0;" horiz-adv-x="447" 
d="M398 581c0 -97 -77 -172 -174 -172c-96 0 -173 75 -173 172s77 173 173 173c97 0 174 -76 174 -173zM342 581c0 70 -53 119 -118 119s-118 -49 -118 -119c0 -69 53 -118 118 -118s118 49 118 118z" />
    <glyph glyph-name="thorn" unicode="&#xfe;" horiz-adv-x="560" 
d="M145 -209h-65v982h65v-268c48 30 103 52 164 52c132 0 195 -77 195 -252v-60c0 -191 -90 -258 -230 -258c-34 0 -75 5 -129 13v-209zM439 245v60c0 140 -40 194 -137 194c-52 0 -101 -18 -157 -46v-398c52 -7 101 -12 128 -12c108 0 166 47 166 202z" />
    <glyph glyph-name="threequarters" unicode="&#xbe;" horiz-adv-x="917" 
d="M748 743l-473 -743h-67l474 743h66zM58 701v41c17 4 79 13 130 13c112 0 168 -28 168 -113v-6c0 -42 -16 -84 -63 -102c49 -17 63 -57 63 -98v-8c0 -92 -53 -130 -168 -130c-52 0 -115 9 -130 12v42c24 -2 79 -8 125 -8c79 0 113 19 113 85v8c0 41 -10 75 -85 75h-135v45
h136c75 0 84 38 84 77v5c0 52 -27 70 -112 70c-44 0 -101 -6 -126 -8zM786 0h-60v117h-225v49l226 275h59v-279h72v-45h-72v-117zM728 162v210l-170 -210h170z" />
    <glyph glyph-name="two.superior" unicode="&#xb2;" horiz-adv-x="421" 
d="M65 729v41c22 5 83 13 137 13c106 0 160 -29 160 -106c0 -59 -27 -94 -124 -142c-103 -51 -120 -72 -120 -147v-5h238v-48h-298v44c0 104 33 139 144 194c89 43 100 62 100 103c0 47 -32 62 -106 62c-45 0 -103 -6 -131 -9z" />
    <glyph glyph-name="registered" unicode="&#xae;" horiz-adv-x="674" 
d="M603 478c0 -168 -107 -282 -268 -282s-267 114 -267 282c0 169 106 282 267 282s268 -113 268 -282zM557 478c0 146 -85 239 -222 239s-222 -93 -222 -239c0 -147 85 -240 222 -240s222 93 222 240zM466 329h-56l-80 124h-51v-124h-46v317c35 1 51 2 82 2
c79 0 131 -21 131 -94v-3c0 -51 -26 -79 -67 -90zM398 551v3c0 46 -29 55 -83 55h-36v-119h41c50 0 78 14 78 61z" />
    <glyph glyph-name="minus" unicode="&#x2212;" horiz-adv-x="696" 
d="M585 364h-476v55h476v-55z" />
    <glyph glyph-name="eth" unicode="&#xf0;" horiz-adv-x="564" 
d="M508 236c0 -157 -72 -249 -226 -249s-226 92 -226 249v64c0 157 72 249 226 249c61 0 107 -21 137 -54c-23 86 -62 147 -132 185l-137 -90l-26 35l113 78c-40 14 -86 21 -133 22c-6 1 -16 1 -26 0v53h30c67 -1 128 -12 183 -36l83 53l28 -35l-64 -43
c116 -74 170 -213 170 -417v-64zM443 236v64c0 130 -48 192 -161 192c-112 0 -161 -62 -161 -192v-64c0 -129 48 -192 161 -192s161 62 161 192z" />
    <glyph glyph-name="multiply" unicode="&#xd7;" horiz-adv-x="696" 
d="M550 227l-39 -38l-163 163l-165 -165l-38 38l165 166l-166 165l38 38l166 -165l164 165l39 -39l-165 -165z" />
    <glyph glyph-name="three.superior" unicode="&#xb3;" horiz-adv-x="417" 
d="M191 326c-53 0 -116 9 -131 12v42c24 -2 79 -8 126 -8c78 0 112 19 112 85v8c0 41 -9 75 -84 75h-135v45h135c75 0 84 38 84 77v5c0 52 -27 70 -112 70c-44 0 -101 -6 -126 -8v41c17 4 79 13 131 13c112 0 167 -28 167 -113v-6c0 -42 -16 -84 -63 -102
c50 -17 63 -57 63 -98v-8c0 -92 -53 -130 -167 -130z" />
    <glyph glyph-name="copyright" unicode="&#xa9;" horiz-adv-x="837" 
d="M767 377c0 -231 -148 -363 -350 -363s-351 132 -351 363c0 230 149 363 351 363s350 -133 350 -363zM714 377c0 196 -123 313 -297 313c-173 0 -296 -117 -296 -313c0 -197 123 -314 296 -314c174 0 297 117 297 314zM423 162c-117 0 -180 65 -180 187v55
c0 124 63 187 180 187c41 0 92 -5 109 -9v-48c-37 4 -73 7 -107 7c-89 0 -122 -39 -122 -137v-55c0 -98 33 -137 122 -137c34 0 70 2 107 7v-48c-17 -5 -68 -9 -109 -9z" />
    <glyph glyph-name="Aacute" unicode="&#xc1;" horiz-adv-x="643" 
d="M619 0h-71l-87 263h-282l-88 -263h-68l252 743h93zM440 324l-84 249c-13 38 -23 74 -32 115h-7c-10 -41 -20 -77 -32 -115l-86 -249h241zM475 943l-147 -154h-67l134 154h80z" />
    <glyph glyph-name="Acircumflex" unicode="&#xc2;" horiz-adv-x="643" 
d="M619 0h-71l-87 263h-282l-88 -263h-68l252 743h93zM440 324l-84 249c-13 38 -23 74 -32 115h-7c-10 -41 -20 -77 -32 -115l-86 -249h241zM500 789h-67l-113 116l-113 -116h-67l138 154h84z" />
    <glyph glyph-name="Adieresis" unicode="&#xc4;" horiz-adv-x="643" 
d="M619 0h-71l-87 263h-282l-88 -263h-68l252 743h93zM440 324l-84 249c-13 38 -23 74 -32 115h-7c-10 -41 -20 -77 -32 -115l-86 -249h241zM465 809h-60v119h60v-119zM236 928v-119h-60v119h60z" />
    <glyph glyph-name="Agrave" unicode="&#xc0;" horiz-adv-x="643" 
d="M619 0h-71l-87 263h-282l-88 -263h-68l252 743h93zM440 324l-84 249c-13 38 -23 74 -32 115h-7c-10 -41 -20 -77 -32 -115l-86 -249h241zM399 789h-67l-147 154h80z" />
    <glyph glyph-name="Aring" unicode="&#xc5;" horiz-adv-x="643" 
d="M619 0h-71l-87 263h-282l-88 -263h-68l252 743h93zM440 324l-84 249c-13 38 -23 74 -32 115h-7c-10 -41 -20 -77 -32 -115l-86 -249h241zM436 879c0 -75 -49 -108 -114 -108s-116 33 -116 108s51 108 116 108s114 -33 114 -108zM391 879c0 51 -33 67 -69 67
c-37 0 -69 -16 -69 -67c0 -50 32 -67 69 -67c36 0 69 17 69 67z" />
    <glyph glyph-name="Atilde" unicode="&#xc3;" horiz-adv-x="643" 
d="M619 0h-71l-87 263h-282l-88 -263h-68l252 743h93zM440 324l-84 249c-13 38 -23 74 -32 115h-7c-10 -41 -20 -77 -32 -115l-86 -249h241zM511 908c0 -76 -21 -124 -90 -124c-36 0 -63 15 -96 44l-41 39c-24 23 -38 33 -62 33c-37 0 -43 -31 -43 -76v-34h-48v34
c0 75 23 123 91 123c37 0 59 -12 92 -41l42 -39c24 -23 40 -35 64 -35c37 0 43 31 43 76v34h48v-34z" />
    <glyph glyph-name="Ccedilla" unicode="&#xc7;" horiz-adv-x="550" 
d="M520 2c-25 -4 -96 -15 -173 -15c-177 0 -292 80 -292 342v85c0 261 115 341 292 341c74 0 144 -11 173 -16v-55c-41 4 -109 11 -173 11c-153 0 -225 -74 -225 -281v-85c0 -207 72 -282 225 -282c66 0 132 7 173 11v-56zM376 -68l-135 -141h-68l121 141h82z" />
    <glyph glyph-name="Eacute" unicode="&#xc9;" horiz-adv-x="568" 
d="M513 0h-428v743h428v-60h-361v-265h337v-61h-337v-298h361v-59zM466 943l-148 -154h-66l134 154h80z" />
    <glyph glyph-name="Ecircumflex" unicode="&#xca;" horiz-adv-x="568" 
d="M513 0h-428v743h428v-60h-361v-265h337v-61h-337v-298h361v-59zM481 789h-67l-113 116l-113 -116h-67l138 154h84z" />
    <glyph glyph-name="Edieresis" unicode="&#xcb;" horiz-adv-x="568" 
d="M513 0h-428v743h428v-60h-361v-265h337v-61h-337v-298h361v-59zM445 808h-59v119h59v-119zM216 927v-119h-60v119h60z" />
    <glyph glyph-name="Egrave" unicode="&#xc8;" horiz-adv-x="568" 
d="M513 0h-428v743h428v-60h-361v-265h337v-61h-337v-298h361v-59zM352 789h-67l-147 154h79z" />
    <glyph glyph-name="Iacute" unicode="&#xcd;" horiz-adv-x="240" 
d="M154 0h-67v743h67v-743zM271 942l-147 -154h-67l134 154h80z" />
    <glyph glyph-name="Icircumflex" unicode="&#xce;" horiz-adv-x="240" 
d="M154 0h-67v743h67v-743zM300 789h-67l-113 116l-113 -116h-67l138 154h84z" />
    <glyph glyph-name="Idieresis" unicode="&#xcf;" horiz-adv-x="240" 
d="M154 0h-67v743h67v-743zM265 809h-59v119h59v-119zM36 928v-119h-60v119h60z" />
    <glyph glyph-name="Igrave" unicode="&#xcc;" horiz-adv-x="240" 
d="M154 0h-67v743h67v-743zM201 789h-67l-148 154h80z" />
    <glyph glyph-name="Ntilde" unicode="&#xd1;" horiz-adv-x="692" 
d="M607 -1h-95l-313 577c-17 32 -36 68 -53 104h-1c2 -41 3 -85 3 -128v-552h-63v743h95l314 -571c16 -30 35 -69 51 -102h1c-2 47 -3 92 -3 130v543h64v-744zM536 907c0 -76 -20 -124 -89 -124c-36 0 -63 14 -96 44l-41 38c-25 24 -39 34 -62 34c-37 0 -43 -31 -43 -77v-34
h-49v34c0 76 24 124 92 124c37 0 59 -12 92 -42l42 -39c24 -22 40 -34 64 -34c37 0 42 30 42 76v33h48v-33z" />
    <glyph glyph-name="Oacute" unicode="&#xd3;" horiz-adv-x="671" 
d="M616 332c0 -235 -103 -345 -280 -345c-178 0 -281 110 -281 345v78c0 235 103 345 281 345c177 0 280 -110 280 -345v-78zM549 332v78c0 215 -89 285 -213 285c-125 0 -214 -70 -214 -285v-78c0 -215 90 -285 214 -285s213 70 213 285zM485 943l-147 -154h-67l135 154h79
z" />
    <glyph glyph-name="Ocircumflex" unicode="&#xd4;" horiz-adv-x="671" 
d="M616 332c0 -235 -103 -345 -280 -345c-178 0 -281 110 -281 345v78c0 235 103 345 281 345c177 0 280 -110 280 -345v-78zM549 332v78c0 215 -89 285 -213 285c-125 0 -214 -70 -214 -285v-78c0 -215 90 -285 214 -285s213 70 213 285zM515 788h-67l-113 117l-113 -117
h-67l138 154h84z" />
    <glyph glyph-name="Odieresis" unicode="&#xd6;" horiz-adv-x="671" 
d="M616 332c0 -235 -103 -345 -280 -345c-178 0 -281 110 -281 345v78c0 235 103 345 281 345c177 0 280 -110 280 -345v-78zM549 332v78c0 215 -89 285 -213 285c-125 0 -214 -70 -214 -285v-78c0 -215 90 -285 214 -285s213 70 213 285zM480 810h-59v119h59v-119zM251 929
v-119h-60v119h60z" />
    <glyph glyph-name="Ograve" unicode="&#xd2;" horiz-adv-x="671" 
d="M616 332c0 -235 -103 -345 -280 -345c-178 0 -281 110 -281 345v78c0 235 103 345 281 345c177 0 280 -110 280 -345v-78zM549 332v78c0 215 -89 285 -213 285c-125 0 -214 -70 -214 -285v-78c0 -215 90 -285 214 -285s213 70 213 285zM403 789h-67l-147 154h79z" />
    <glyph glyph-name="Otilde" unicode="&#xd5;" horiz-adv-x="671" 
d="M616 332c0 -235 -103 -345 -280 -345c-178 0 -281 110 -281 345v78c0 235 103 345 281 345c177 0 280 -110 280 -345v-78zM549 332v78c0 215 -89 285 -213 285c-125 0 -214 -70 -214 -285v-78c0 -215 90 -285 214 -285s213 70 213 285zM525 908c0 -76 -20 -124 -89 -124
c-36 0 -63 14 -96 44l-41 38c-25 24 -39 34 -62 34c-37 0 -43 -31 -43 -77v-34h-49v34c0 76 24 124 92 124c37 0 59 -12 92 -42l42 -39c24 -22 40 -34 64 -34c37 0 42 30 42 76v33h48v-33z" />
    <glyph glyph-name="Scaron" unicode="&#x160;" horiz-adv-x="572" 
d="M517 183c0 -129 -81 -196 -240 -196c-87 0 -173 11 -206 18v53c50 -6 123 -13 206 -13c109 0 172 37 172 138c0 74 -34 107 -132 154l-101 47c-100 47 -161 98 -161 199c0 119 82 172 236 172c83 0 166 -11 201 -18v-54c-43 5 -127 13 -199 13c-106 0 -171 -27 -171 -113
c0 -68 38 -102 124 -143l101 -46c115 -55 170 -105 170 -211zM105 943h67l112 -117l114 117h67l-138 -154h-84z" />
    <glyph glyph-name="Uacute" unicode="&#xda;" horiz-adv-x="683" 
d="M603 319c0 -220 -81 -331 -261 -331c-182 0 -262 111 -262 331v424h67v-417c0 -196 46 -278 195 -278c147 0 195 83 195 278v417h66v-424zM503 944l-147 -154h-67l134 154h80z" />
    <glyph glyph-name="Ucircumflex" unicode="&#xdb;" horiz-adv-x="683" 
d="M603 319c0 -220 -81 -331 -261 -331c-182 0 -262 111 -262 331v424h67v-417c0 -196 46 -278 195 -278c147 0 195 83 195 278v417h66v-424zM522 789h-67l-113 116l-113 -116h-67l138 154h84z" />
    <glyph glyph-name="Udieresis" unicode="&#xdc;" horiz-adv-x="683" 
d="M603 319c0 -220 -81 -331 -261 -331c-182 0 -262 111 -262 331v424h67v-417c0 -196 46 -278 195 -278c147 0 195 83 195 278v417h66v-424zM485 809h-60v119h60v-119zM256 928v-119h-60v119h60z" />
    <glyph glyph-name="Ugrave" unicode="&#xd9;" horiz-adv-x="683" 
d="M603 319c0 -220 -81 -331 -261 -331c-182 0 -262 111 -262 331v424h67v-417c0 -196 46 -278 195 -278c147 0 195 83 195 278v417h66v-424zM398 789h-67l-147 154h79z" />
    <glyph glyph-name="Yacute" unicode="&#xdd;" horiz-adv-x="601" 
d="M574 743l-240 -443v-300h-67v300l-240 443h73l150 -277c16 -31 36 -68 50 -102h4c14 33 36 71 52 102l149 277h69zM473 943l-147 -154h-67l134 154h80z" />
    <glyph glyph-name="Ydieresis" unicode="&#x178;" horiz-adv-x="601" 
d="M574 743l-240 -443v-300h-67v300l-240 443h73l150 -277c16 -31 36 -68 50 -102h4c14 33 36 71 52 102l149 277h69zM447 809h-60v119h60v-119zM218 928v-119h-60v119h60z" />
    <glyph glyph-name="Zcaron" unicode="&#x17d;" horiz-adv-x="604" 
d="M557 0h-510v73l423 610h-407v60h479v-73l-422 -611h437v-59zM132 943h67l112 -117l114 117h67l-138 -154h-84z" />
    <glyph glyph-name="aacute" unicode="&#xe1;" horiz-adv-x="531" 
d="M458 0h-63v39c-38 -23 -100 -52 -181 -52c-106 0 -162 48 -162 156v15c0 138 89 166 248 166h92v46c0 106 -23 131 -144 131c-53 0 -98 -4 -159 -11v48c31 6 94 19 164 19c173 0 205 -59 205 -187v-370zM392 87v186h-92c-131 0 -183 -18 -183 -115v-19
c0 -75 42 -101 110 -101s135 30 165 49zM432 770l-148 -154h-66l134 154h80z" />
    <glyph glyph-name="acircumflex" unicode="&#xe2;" horiz-adv-x="531" 
d="M458 0h-63v39c-38 -23 -100 -52 -181 -52c-106 0 -162 48 -162 156v15c0 138 89 166 248 166h92v46c0 106 -23 131 -144 131c-53 0 -98 -4 -159 -11v48c31 6 94 19 164 19c173 0 205 -59 205 -187v-370zM392 87v186h-92c-131 0 -183 -18 -183 -115v-19
c0 -75 42 -101 110 -101s135 30 165 49zM447 616h-67l-114 116l-112 -116h-67l138 154h84z" />
    <glyph glyph-name="adieresis" unicode="&#xe4;" horiz-adv-x="531" 
d="M458 0h-63v39c-38 -23 -100 -52 -181 -52c-106 0 -162 48 -162 156v15c0 138 89 166 248 166h92v46c0 106 -23 131 -144 131c-53 0 -98 -4 -159 -11v48c31 6 94 19 164 19c173 0 205 -59 205 -187v-370zM392 87v186h-92c-131 0 -183 -18 -183 -115v-19
c0 -75 42 -101 110 -101s135 30 165 49zM412 642h-60v119h60v-119zM183 761v-119h-61v119h61z" />
    <glyph glyph-name="agrave" unicode="&#xe0;" horiz-adv-x="531" 
d="M458 0h-63v39c-38 -23 -100 -52 -181 -52c-106 0 -162 48 -162 156v15c0 138 89 166 248 166h92v46c0 106 -23 131 -144 131c-53 0 -98 -4 -159 -11v48c31 6 94 19 164 19c173 0 205 -59 205 -187v-370zM392 87v186h-92c-131 0 -183 -18 -183 -115v-19
c0 -75 42 -101 110 -101s135 30 165 49zM328 616h-67l-147 154h80z" />
    <glyph glyph-name="aring" unicode="&#xe5;" horiz-adv-x="531" 
d="M458 0h-63v39c-38 -23 -100 -52 -181 -52c-106 0 -162 48 -162 156v15c0 138 89 166 248 166h92v46c0 106 -23 131 -144 131c-53 0 -98 -4 -159 -11v48c31 6 94 19 164 19c173 0 205 -59 205 -187v-370zM392 87v186h-92c-131 0 -183 -18 -183 -115v-19
c0 -75 42 -101 110 -101s135 30 165 49zM388 708c0 -75 -49 -108 -113 -108c-66 0 -116 33 -116 108c0 74 50 107 116 107c64 0 113 -33 113 -107zM343 708c0 51 -32 66 -68 66c-38 0 -70 -15 -70 -66s32 -67 70 -67c36 0 68 16 68 67z" />
    <glyph glyph-name="atilde" unicode="&#xe3;" horiz-adv-x="531" 
d="M458 0h-63v39c-38 -23 -100 -52 -181 -52c-106 0 -162 48 -162 156v15c0 138 89 166 248 166h92v46c0 106 -23 131 -144 131c-53 0 -98 -4 -159 -11v48c31 6 94 19 164 19c173 0 205 -59 205 -187v-370zM392 87v186h-92c-131 0 -183 -18 -183 -115v-19
c0 -75 42 -101 110 -101s135 30 165 49zM457 737c0 -75 -21 -123 -90 -123c-36 0 -63 14 -96 44l-41 38c-24 24 -38 34 -62 34c-37 0 -43 -32 -43 -77v-34h-48v34c0 76 23 124 91 124c37 0 59 -13 92 -42l42 -39c24 -23 40 -35 64 -35c37 0 43 31 43 76v34h48v-34z" />
    <glyph glyph-name="ccedilla" unicode="&#xe7;" horiz-adv-x="466" 
d="M421 4c-36 -8 -86 -17 -149 -17c-149 0 -217 78 -217 255v60c0 175 70 255 217 255c65 0 116 -10 149 -17v-50c-66 7 -110 10 -140 10c-103 0 -160 -39 -160 -198v-60c0 -162 56 -199 160 -199c28 0 72 3 140 11v-50zM321 -68l-135 -141h-68l121 141h82z" />
    <glyph glyph-name="eacute" unicode="&#xe9;" horiz-adv-x="559" 
d="M506 249h-386v-12c0 -124 34 -193 182 -193c60 0 136 7 186 15v-52c-39 -9 -107 -20 -188 -20c-185 0 -245 83 -245 264v38c0 170 69 268 225 268c157 0 226 -96 226 -275v-33zM438 304v9c0 97 -27 187 -158 187c-132 0 -159 -93 -159 -187v-9h317zM454 770l-148 -154
h-66l134 154h80z" />
    <glyph glyph-name="ecircumflex" unicode="&#xea;" horiz-adv-x="559" 
d="M506 249h-386v-12c0 -124 34 -193 182 -193c60 0 136 7 186 15v-52c-39 -9 -107 -20 -188 -20c-185 0 -245 83 -245 264v38c0 170 69 268 225 268c157 0 226 -96 226 -275v-33zM438 304v9c0 97 -27 187 -158 187c-132 0 -159 -93 -159 -187v-9h317zM462 616h-67l-113 116
l-113 -116h-67l138 154h84z" />
    <glyph glyph-name="edieresis" unicode="&#xeb;" horiz-adv-x="559" 
d="M506 249h-386v-12c0 -124 34 -193 182 -193c60 0 136 7 186 15v-52c-39 -9 -107 -20 -188 -20c-185 0 -245 83 -245 264v38c0 170 69 268 225 268c157 0 226 -96 226 -275v-33zM438 304v9c0 97 -27 187 -158 187c-132 0 -159 -93 -159 -187v-9h317zM424 642h-59v119h59
v-119zM195 761v-119h-60v119h60z" />
    <glyph glyph-name="egrave" unicode="&#xe8;" horiz-adv-x="559" 
d="M506 249h-386v-12c0 -124 34 -193 182 -193c60 0 136 7 186 15v-52c-39 -9 -107 -20 -188 -20c-185 0 -245 83 -245 264v38c0 170 69 268 225 268c157 0 226 -96 226 -275v-33zM438 304v9c0 97 -27 187 -158 187c-132 0 -159 -93 -159 -187v-9h317zM352 616h-67l-148 154
h80z" />
    <glyph glyph-name="iacute" unicode="&#xed;" horiz-adv-x="236" 
d="M151 0h-66v543h66v-543zM265 770l-147 -154h-67l135 154h79z" />
    <glyph glyph-name="icircumflex" unicode="&#xee;" horiz-adv-x="236" 
d="M151 0h-66v543h66v-543zM299 616h-67l-114 116l-112 -116h-67l138 154h84z" />
    <glyph glyph-name="idieresis" unicode="&#xef;" horiz-adv-x="236" 
d="M151 0h-66v543h66v-543zM263 642h-59v119h59v-119zM34 761v-119h-60v119h60z" />
    <glyph glyph-name="igrave" unicode="&#xec;" horiz-adv-x="236" 
d="M151 0h-66v543h66v-543zM186 616h-67l-148 154h80z" />
    <glyph glyph-name="ntilde" unicode="&#xf1;" 
d="M504 0h-66v344c0 116 -25 156 -112 156c-52 0 -113 -20 -181 -52v-448h-65v543h65v-44c60 32 122 58 187 58c140 0 172 -74 172 -213v-344zM480 737c0 -75 -20 -123 -89 -123c-37 0 -64 14 -96 44l-42 38c-24 24 -38 34 -62 34c-36 0 -42 -32 -42 -77v-34h-49v34
c0 76 24 124 91 124c37 0 60 -13 92 -42l43 -39c24 -23 39 -35 63 -35c37 0 43 31 43 76v34h48v-34z" />
    <glyph glyph-name="oacute" unicode="&#xf3;" horiz-adv-x="564" 
d="M508 243c0 -168 -72 -256 -226 -256s-226 88 -226 256v58c0 167 72 256 226 256s226 -89 226 -256v-58zM443 243v58c0 139 -48 198 -161 198c-112 0 -161 -59 -161 -198v-58c0 -139 48 -199 161 -199s161 60 161 199zM439 770l-147 -154h-67l135 154h79z" />
    <glyph glyph-name="ocircumflex" unicode="&#xf4;" horiz-adv-x="564" 
d="M508 243c0 -168 -72 -256 -226 -256s-226 88 -226 256v58c0 167 72 256 226 256s226 -89 226 -256v-58zM443 243v58c0 139 -48 198 -161 198c-112 0 -161 -59 -161 -198v-58c0 -139 48 -199 161 -199s161 60 161 199zM462 616h-67l-113 116l-113 -116h-67l138 154h84z
" />
    <glyph glyph-name="odieresis" unicode="&#xf6;" horiz-adv-x="564" 
d="M508 243c0 -168 -72 -256 -226 -256s-226 88 -226 256v58c0 167 72 256 226 256s226 -89 226 -256v-58zM443 243v58c0 139 -48 198 -161 198c-112 0 -161 -59 -161 -198v-58c0 -139 48 -199 161 -199s161 60 161 199zM427 642h-59v119h59v-119zM198 761v-119h-60v119h60z
" />
    <glyph glyph-name="ograve" unicode="&#xf2;" horiz-adv-x="564" 
d="M508 243c0 -168 -72 -256 -226 -256s-226 88 -226 256v58c0 167 72 256 226 256s226 -89 226 -256v-58zM443 243v58c0 139 -48 198 -161 198c-112 0 -161 -59 -161 -198v-58c0 -139 48 -199 161 -199s161 60 161 199zM345 616h-67l-148 154h80z" />
    <glyph glyph-name="otilde" unicode="&#xf5;" horiz-adv-x="564" 
d="M508 243c0 -168 -72 -256 -226 -256s-226 88 -226 256v58c0 167 72 256 226 256s226 -89 226 -256v-58zM443 243v58c0 139 -48 198 -161 198c-112 0 -161 -59 -161 -198v-58c0 -139 48 -199 161 -199s161 60 161 199zM472 737c0 -75 -20 -123 -89 -123
c-37 0 -64 14 -96 44l-42 38c-24 24 -38 34 -62 34c-36 0 -42 -32 -42 -77v-34h-49v34c0 76 24 124 91 124c37 0 60 -13 92 -42l43 -39c24 -23 39 -35 63 -35c37 0 43 31 43 76v34h48v-34z" />
    <glyph glyph-name="scaron" unicode="&#x161;" horiz-adv-x="472" 
d="M428 134c0 -77 -44 -147 -197 -147c-73 0 -148 13 -174 20v51c34 -4 107 -15 172 -15c102 0 134 35 134 90c0 54 -24 75 -122 115l-39 15c-104 42 -152 85 -152 162c0 90 63 132 194 132c67 0 133 -11 159 -19v-50c-51 7 -114 12 -156 12c-90 0 -131 -16 -131 -75
c0 -51 28 -73 112 -107l39 -16c121 -51 161 -86 161 -168zM59 770h67l112 -117l114 117h67l-138 -154h-84z" />
    <glyph glyph-name="uacute" unicode="&#xfa;" 
d="M500 0h-65v44c-66 -34 -128 -57 -193 -57c-133 0 -165 83 -165 212v344h64v-344c0 -116 26 -156 113 -156c54 0 114 21 181 53v447h65v-543zM460 770l-148 -154h-66l134 154h80z" />
    <glyph glyph-name="ucircumflex" unicode="&#xfb;" 
d="M500 0h-65v44c-66 -34 -128 -57 -193 -57c-133 0 -165 83 -165 212v344h64v-344c0 -116 26 -156 113 -156c54 0 114 21 181 53v447h65v-543zM471 616h-67l-113 116l-113 -116h-67l138 154h84z" />
    <glyph glyph-name="udieresis" unicode="&#xfc;" 
d="M500 0h-65v44c-66 -34 -128 -57 -193 -57c-133 0 -165 83 -165 212v344h64v-344c0 -116 26 -156 113 -156c54 0 114 21 181 53v447h65v-543zM435 642h-59v119h59v-119zM206 761v-119h-60v119h60z" />
    <glyph glyph-name="ugrave" unicode="&#xf9;" 
d="M500 0h-65v44c-66 -34 -128 -57 -193 -57c-133 0 -165 83 -165 212v344h64v-344c0 -116 26 -156 113 -156c54 0 114 21 181 53v447h65v-543zM346 616h-67l-148 154h80z" />
    <glyph glyph-name="yacute" unicode="&#xfd;" horiz-adv-x="520" 
d="M495 543l-207 -586c-42 -119 -74 -176 -183 -176c-37 0 -73 4 -95 7v52c39 -3 63 -4 93 -4c66 0 83 28 120 128l13 37l-210 542h72l130 -348c14 -41 25 -74 39 -122h2c13 48 23 80 37 123l119 347h70zM434 770l-147 -154h-67l135 154h79z" />
    <glyph glyph-name="ydieresis" unicode="&#xff;" horiz-adv-x="520" 
d="M495 543l-207 -586c-42 -119 -74 -176 -183 -176c-37 0 -73 4 -95 7v52c39 -3 63 -4 93 -4c66 0 83 28 120 128l13 37l-210 542h72l130 -348c14 -41 25 -74 39 -122h2c13 48 23 80 37 123l119 347h70zM413 642h-60v119h60v-119zM184 761v-119h-60v119h60z" />
    <glyph glyph-name="zcaron" unicode="&#x17e;" horiz-adv-x="479" 
d="M433 0h-391v72l319 416h-307v55h378v-67l-323 -422h324v-54zM69 770h67l113 -117l113 117h67l-138 -154h-84z" />
    <glyph glyph-name="dollar.oldstyle" horiz-adv-x="483" 
d="M71 6v49c30 -3 94 -9 166 -9c89 0 128 33 128 93c0 51 -24 71 -107 108l-65 29c-89 40 -134 78 -134 156c0 76 54 121 158 130v102h59v-99c56 -3 111 -11 136 -17v-50c-29 4 -101 11 -158 11c-81 0 -129 -20 -129 -76c0 -46 23 -70 99 -103l66 -29
c98 -44 140 -77 140 -161c0 -82 -50 -138 -156 -148v-102h-59v99c-58 2 -114 10 -144 17z" />
    <glyph glyph-name="dollar.superior" horiz-adv-x="393" 
d="M58 340v46c27 -2 76 -8 130 -8c65 0 99 22 99 70c0 38 -21 54 -75 77l-62 27c-61 27 -104 55 -104 122c0 70 52 101 125 108v75h54v-74c46 -1 92 -7 109 -11v-47c-34 4 -91 9 -129 9c-55 0 -98 -13 -98 -59c0 -34 23 -53 70 -73l63 -24c70 -29 108 -61 108 -127
c0 -76 -51 -113 -123 -121v-77h-54v74c-43 1 -89 8 -113 13z" />
    <glyph glyph-name="parenleft.superior" unicode="&#x207d;" horiz-adv-x="250" 
d="M205 262h-59c-37 46 -87 137 -87 260v5c0 124 50 216 88 263h59c-46 -64 -86 -146 -86 -263v-5c0 -115 39 -197 85 -260z" />
    <glyph glyph-name="parenright.superior" unicode="&#x207e;" horiz-adv-x="250" 
d="M190 522c0 -123 -49 -214 -87 -260h-58c46 63 84 145 84 260v5c0 117 -39 199 -86 263h59c38 -47 88 -139 88 -263v-5z" />
    <glyph glyph-name="twodotenleader" unicode="&#x2025;" horiz-adv-x="428" 
d="M138 0h-66v136h66v-136zM356 0h-66v136h66v-136z" />
    <glyph glyph-name="onedotenleader" unicode="&#x2024;" horiz-adv-x="210" 
d="M138 0h-66v136h66v-136z" />
    <glyph glyph-name="zero.oldstyle" horiz-adv-x="630" 
d="M566 257c0 -175 -94 -270 -252 -270s-253 95 -253 270v41c0 174 95 269 253 269s252 -95 252 -269v-41zM500 257v41c0 154 -79 211 -186 211s-186 -57 -186 -211v-41c0 -153 79 -212 186 -212s186 59 186 212z" />
    <glyph glyph-name="one.oldstyle" horiz-adv-x="488" 
d="M439 0h-386v56l162 3v433l-163 -56v64l179 63h50v-504l158 -3v-56z" />
    <glyph glyph-name="two.oldstyle" 
d="M75 493v53c51 13 136 21 199 21c182 0 249 -52 249 -157c0 -101 -60 -162 -253 -286l-100 -64h348v-60h-454v60l166 105c178 113 227 166 227 245c0 73 -58 99 -187 99c-56 0 -144 -8 -195 -16z" />
    <glyph glyph-name="three.oldstyle" horiz-adv-x="579" 
d="M506 9c0 -148 -83 -210 -254 -210c-76 0 -167 15 -196 21v51c36 -5 123 -14 196 -14c133 0 188 40 188 152v28c0 67 -14 134 -137 134h-219v56h219c122 0 137 67 137 136v14c0 95 -43 132 -189 132c-70 0 -148 -7 -193 -12v52c18 4 117 18 194 18c178 0 255 -53 255 -190
v-14c0 -70 -24 -136 -101 -164c79 -29 100 -94 100 -162v-28z" />
    <glyph glyph-name="four.oldstyle" horiz-adv-x="637" 
d="M587 20h-119v-207h-66v207h-361v68l350 469h77v-479h119v-58zM402 78v390l-293 -390h293z" />
    <glyph glyph-name="five.oldstyle" horiz-adv-x="576" 
d="M518 12c0 -152 -82 -219 -262 -219c-91 0 -177 16 -202 21v54c40 -5 122 -17 200 -17c150 0 197 48 197 161v26c0 116 -54 151 -204 151h-177l31 360h388v-60h-330l-22 -242h113c180 0 268 -55 268 -209v-26z" />
    <glyph glyph-name="six.oldstyle" horiz-adv-x="624" 
d="M565 221c0 -189 -139 -234 -246 -234c-138 0 -257 48 -257 297v192c0 179 64 279 271 279c83 0 174 -15 202 -21v-52c-39 5 -128 15 -201 15c-177 0 -205 -85 -205 -220v-47c59 16 139 26 191 26c122 0 245 -30 245 -199v-36zM498 221v34c0 125 -77 146 -180 146
c-48 0 -121 -5 -189 -23v-99c0 -183 75 -234 190 -234c102 0 179 52 179 176z" />
    <glyph glyph-name="seven.oldstyle" horiz-adv-x="559" 
d="M516 487l-328 -673h-75l340 683h-403v60h466v-70z" />
    <glyph glyph-name="eight.oldstyle" horiz-adv-x="643" 
d="M581 211c0 -196 -112 -224 -256 -224h-4c-144 0 -256 29 -256 225v7c0 87 28 141 93 168c-62 25 -91 82 -91 160v10c0 157 110 197 254 197h4c144 0 254 -40 254 -197v-10c0 -79 -30 -135 -91 -160c64 -27 93 -81 93 -167v-9zM514 211v9c0 86 -26 138 -119 138h-144
c-94 0 -120 -53 -120 -139v-7c0 -140 69 -168 190 -168h4c121 0 189 28 189 167zM512 547v10c0 112 -68 140 -187 140h-4c-119 0 -188 -28 -188 -140v-10c0 -74 24 -131 118 -131h144c93 0 117 56 117 131z" />
    <glyph glyph-name="nine.oldstyle" horiz-adv-x="624" 
d="M556 78c0 -180 -64 -279 -272 -279c-83 0 -174 15 -201 20v53c39 -5 128 -15 200 -15c177 0 206 85 206 219v48c-60 -17 -139 -26 -192 -26c-122 0 -245 30 -245 199v36c0 188 139 234 246 234c138 0 258 -48 258 -297v-192zM489 176v99c0 183 -76 234 -191 234
c-101 0 -179 -52 -179 -176v-34c0 -125 77 -146 180 -146c48 0 121 5 190 23z" />
    <glyph glyph-name="comma.superior" horiz-adv-x="208" 
d="M157 425l-62 -143h-51l51 143h62z" />
    <glyph glyph-name="period.superior" horiz-adv-x="166" 
d="M112 337h-57v88h57v-88z" />
    <glyph glyph-name="a.superior" horiz-adv-x="378" 
d="M313 302h-54v23c-22 -13 -63 -31 -111 -31c-68 0 -103 30 -103 97v9c0 88 59 102 159 102h52v25c0 60 -13 73 -84 73c-28 0 -70 -2 -102 -4v36c21 4 66 13 110 13c109 0 133 -35 133 -118v-225zM257 360v105h-52c-75 0 -104 -8 -104 -64v-10c0 -42 23 -57 62 -57
c38 0 76 16 94 26z" />
    <glyph glyph-name="b.superior" horiz-adv-x="392" 
d="M65 775h58v-143c32 11 60 15 83 15c98 0 141 -49 141 -157v-32c0 -117 -51 -163 -155 -163c-37 0 -68 1 -127 7v473zM289 458v32c0 81 -24 110 -89 110c-15 0 -49 -2 -77 -12v-244c21 -2 46 -4 70 -4c68 0 96 30 96 118z" />
    <glyph glyph-name="cent.superior" horiz-adv-x="368" 
d="M323 339c-25 -5 -59 -9 -89 -10v-76h-52v79c-84 12 -136 65 -136 197v56c0 120 45 184 136 196v74h52v-72c30 -1 64 -5 89 -9v-48c-33 3 -71 6 -101 6c-85 0 -117 -40 -117 -147v-56c0 -107 29 -148 117 -148c36 0 72 2 101 5v-47z" />
    <glyph glyph-name="d.superior" horiz-adv-x="392" 
d="M327 302h-55v19c-22 -13 -58 -27 -100 -27c-82 0 -127 49 -127 153v42c0 116 54 155 146 155c24 0 48 -2 78 -6v135h58v-471zM270 361v232c-30 5 -57 7 -74 7c-62 0 -93 -23 -93 -111v-42c0 -75 24 -108 83 -108c32 0 61 11 84 22z" />
    <glyph glyph-name="e.superior" horiz-adv-x="387" 
d="M342 452h-239v-10c0 -62 19 -105 105 -105c45 0 88 5 120 10v-41c-24 -5 -74 -12 -124 -12c-125 0 -159 67 -159 160v30c0 102 50 161 148 161c107 0 149 -68 149 -162v-31zM283 490v9c0 51 -16 101 -89 101c-75 0 -90 -53 -90 -101v-9h179z" />
    <glyph glyph-name="i.superior" unicode="&#x2071;" horiz-adv-x="190" 
d="M66 635h58v-333h-58v333zM125 696h-60v77h60v-77z" />
    <glyph glyph-name="l.superior" horiz-adv-x="188" 
d="M123 302h-58v471h58v-471z" />
    <glyph glyph-name="m.superior" horiz-adv-x="576" 
d="M121 609c31 22 67 36 103 36c41 0 64 -15 78 -37c40 26 79 37 110 37c91 0 99 -59 99 -121v-222h-59v221c0 49 -2 77 -53 77c-24 0 -56 -10 -86 -28c3 -16 4 -33 4 -48v-222h-58v222c0 48 -3 76 -51 76c-27 0 -58 -13 -85 -29v-268h-58v332h56v-26z" />
    <glyph glyph-name="n.superior" unicode="&#x207f;" horiz-adv-x="399" 
d="M340 302h-58v208c0 67 -14 89 -63 89c-31 0 -66 -12 -102 -29v-268h-59v333h57v-23c37 18 76 33 115 33c93 0 110 -52 110 -133v-210z" />
    <glyph glyph-name="o.superior" horiz-adv-x="387" 
d="M342 455c0 -105 -49 -161 -149 -161s-148 56 -148 161v29c0 105 48 161 148 161s149 -56 149 -161v-29zM284 455v29c0 79 -26 115 -91 115c-64 0 -90 -35 -90 -115v-29c0 -80 26 -116 90 -116c65 0 91 37 91 116z" />
    <glyph glyph-name="r.superior" horiz-adv-x="282" 
d="M123 302h-58v333h55v-26c35 25 76 36 119 36v-49c-42 0 -86 -11 -116 -27v-267z" />
    <glyph glyph-name="s.superior" horiz-adv-x="340" 
d="M295 387c0 -50 -33 -93 -132 -93c-45 0 -95 7 -113 12v39c22 -3 69 -9 111 -9c60 0 76 21 76 50c0 31 -12 41 -68 64l-27 11c-64 26 -97 45 -97 97c0 60 41 87 128 87c44 0 95 -7 112 -12v-38c-20 2 -73 7 -109 7c-51 0 -73 -10 -73 -42c0 -26 16 -38 63 -56l28 -11
c76 -30 101 -54 101 -106z" />
    <glyph glyph-name="t.superior" horiz-adv-x="307" 
d="M263 302c-13 -3 -40 -8 -64 -8c-64 0 -85 24 -85 89v210l-71 4v38h71v90h58v-90h92v-42h-92v-209c0 -41 5 -48 37 -48c16 0 40 1 54 2v-36z" />
    <glyph glyph-name="parenleft.inferior" unicode="&#x208d;" horiz-adv-x="250" 
d="M204 -242h-58c-38 46 -87 137 -87 261v4c0 124 50 216 88 263h59c-47 -63 -86 -146 -86 -263v-4c0 -116 38 -198 84 -261z" />
    <glyph glyph-name="parenright.inferior" unicode="&#x208e;" horiz-adv-x="250" 
d="M190 19c0 -124 -50 -215 -87 -261h-59c47 63 85 145 85 261v4c0 117 -39 200 -86 263h59c38 -47 88 -139 88 -263v-4z" />
    <glyph glyph-name="hyphen.superior" horiz-adv-x="262" 
d="M207 506h-152v46h152v-46z" />
    <glyph glyph-name="colonmonetary" unicode="&#x20a1;" horiz-adv-x="467" 
d="M425 540v-50c-27 4 -87 10 -139 10c-102 0 -161 -43 -161 -187v-81c0 -145 57 -189 159 -189c30 0 74 3 141 11v-50c-19 -4 -40 -8 -66 -11v-106h-55v100h-25c-19 0 -33 1 -46 3v-103h-54v119c-80 31 -120 105 -120 226v81c0 117 41 193 120 225v125h54v-110
c15 3 32 4 51 4h20v106h55v-112c26 -3 49 -7 66 -11z" />
    <glyph glyph-name="cent.oldstyle" horiz-adv-x="486" 
d="M430 551v-51c-46 4 -91 8 -133 8c-115 0 -166 -52 -166 -188v-86c0 -137 50 -188 166 -188c41 0 86 3 133 10v-52c-39 -8 -79 -13 -116 -14v-110h-60v111c-129 14 -189 92 -189 243v86c0 148 62 229 189 243v110h60v-109c37 -1 77 -6 116 -13z" />
    <glyph glyph-name="figuredash" unicode="&#x2012;" horiz-adv-x="653" 
d="M588 264h-513v56h513v-56z" />
    <glyph glyph-name="hyphen.inferior" horiz-adv-x="262" 
d="M207 5h-152v46h152v-46z" />
    <glyph glyph-name="oneeighth" unicode="&#x215b;" horiz-adv-x="980" 
d="M727 743l-473 -743h-67l474 743h66zM335 307h-273v46h106v340l-107 -34v49l122 42h45v-399h107v-44zM922 123c0 -116 -79 -132 -175 -132c-93 0 -172 16 -172 132v7c0 49 21 82 59 99c-37 17 -57 50 -57 97v6c0 95 77 116 173 116c93 0 170 -21 170 -116v-6
c0 -46 -20 -80 -56 -97c37 -17 58 -50 58 -99v-7zM862 124v6c0 48 -17 78 -71 78h-84c-55 0 -72 -30 -72 -78v-6c0 -74 44 -89 115 -89c68 0 112 15 112 89zM861 325v6c0 59 -44 73 -114 73c-67 0 -111 -14 -111 -73v-6c0 -42 16 -74 71 -74h84c54 0 70 33 70 74z" />
    <glyph glyph-name="threeeighths" unicode="&#x215c;" horiz-adv-x="1011" 
d="M749 743l-473 -743h-67l473 743h67zM60 701v41c17 4 79 13 130 13c112 0 168 -28 168 -113v-6c0 -42 -16 -84 -64 -102c50 -17 64 -57 64 -98v-8c0 -92 -54 -130 -168 -130c-53 0 -116 9 -130 12v42c23 -2 78 -8 125 -8c78 0 113 19 113 85v8c0 41 -10 75 -85 75h-135v45
h136c74 0 84 38 84 77v5c0 52 -28 70 -112 70c-45 0 -102 -6 -126 -8zM922 123c0 -116 -79 -132 -175 -132c-93 0 -172 16 -172 132v7c0 49 21 82 59 99c-37 17 -57 50 -57 97v6c0 95 77 116 173 116c93 0 170 -21 170 -116v-6c0 -46 -20 -80 -56 -97c37 -17 58 -50 58 -99
v-7zM862 124v6c0 48 -17 78 -71 78h-84c-55 0 -72 -30 -72 -78v-6c0 -74 44 -89 115 -89c68 0 112 15 112 89zM861 325v6c0 59 -44 73 -114 73c-67 0 -111 -14 -111 -73v-6c0 -42 16 -74 71 -74h84c54 0 70 33 70 74z" />
    <glyph glyph-name="fiveeighths" unicode="&#x215d;" horiz-adv-x="1016" 
d="M754 743l-474 -743h-67l474 743h67zM959 123c0 -116 -79 -132 -175 -132c-93 0 -172 16 -172 132v7c0 49 21 82 59 99c-37 17 -57 50 -57 97v6c0 95 77 116 173 116c93 0 170 -21 170 -116v-6c0 -46 -20 -80 -56 -97c37 -17 58 -50 58 -99v-7zM899 124v6
c0 48 -17 78 -71 78h-84c-55 0 -72 -30 -72 -78v-6c0 -74 44 -89 115 -89c68 0 112 15 112 89zM898 325v6c0 59 -44 73 -114 73c-67 0 -111 -14 -111 -73v-6c0 -42 16 -74 71 -74h84c54 0 70 33 70 74zM347 701h-209l-12 -129h68c116 0 171 -31 171 -127v-9
c0 -98 -58 -138 -173 -138c-59 0 -112 9 -132 14v42c37 -5 79 -10 125 -10c89 0 119 26 119 91v10c0 65 -31 82 -117 82h-119l20 221h259v-47z" />
    <glyph glyph-name="seveneighths" unicode="&#x215e;" horiz-adv-x="933" 
d="M671 743l-474 -743h-66l474 743h66zM56 701v47h302v-54l-208 -387h-65l214 394h-243zM875 123c0 -116 -79 -132 -175 -132c-93 0 -172 16 -172 132v7c0 49 21 82 59 99c-37 17 -57 50 -57 97v6c0 95 77 116 173 116c93 0 170 -21 170 -116v-6c0 -46 -20 -80 -56 -97
c37 -17 58 -50 58 -99v-7zM815 124v6c0 48 -17 78 -71 78h-84c-55 0 -72 -30 -72 -78v-6c0 -74 44 -89 115 -89c68 0 112 15 112 89zM814 325v6c0 59 -44 73 -114 73c-67 0 -111 -14 -111 -73v-6c0 -42 16 -74 71 -74h84c54 0 70 33 70 74z" />
    <glyph glyph-name="onethird" unicode="&#x2153;" horiz-adv-x="963" 
d="M727 743l-473 -743h-67l474 743h66zM335 307h-273v44l106 2v340l-107 -34v49l122 42h45v-397l107 -2v-44zM620 394v42c17 3 79 12 130 12c112 0 168 -28 168 -113v-6c0 -41 -16 -84 -64 -102c50 -16 64 -57 64 -98v-8c0 -92 -54 -130 -168 -130c-53 0 -116 9 -130 13v41
c23 -2 78 -8 125 -8c78 0 113 19 113 86v8c0 41 -10 74 -85 74h-135v45h136c74 0 84 38 84 77v6c0 51 -28 69 -112 69c-45 0 -102 -6 -126 -8z" />
    <glyph glyph-name="twothirds" unicode="&#x2154;" horiz-adv-x="1012" 
d="M766 743l-474 -743h-66l474 743h66zM64 701v41c22 5 83 13 137 13c106 0 160 -29 160 -106c0 -59 -27 -94 -124 -142c-103 -51 -120 -72 -120 -147v-5h238v-48h-298v44c0 104 33 139 144 194c89 43 100 62 100 103c0 47 -32 62 -106 62c-45 0 -103 -6 -131 -9zM651 394
v42c17 3 79 12 130 12c112 0 168 -28 168 -113v-6c0 -41 -16 -84 -63 -102c49 -16 63 -57 63 -98v-8c0 -92 -53 -130 -168 -130c-52 0 -115 9 -130 13v41c24 -2 79 -8 125 -8c79 0 113 19 113 86v8c0 41 -10 74 -85 74h-135v45h136c75 0 84 38 84 77v6c0 51 -27 69 -112 69
c-44 0 -101 -6 -126 -8z" />
    <glyph glyph-name="zero.superior" unicode="&#x2070;" horiz-adv-x="438" 
d="M387 525c0 -136 -64 -199 -169 -199s-168 63 -168 199v58c0 137 63 200 168 200s169 -63 169 -200v-58zM326 525v58c0 118 -47 151 -108 151c-62 0 -108 -33 -108 -151v-58c0 -117 46 -149 108 -149c61 0 108 32 108 149z" />
    <glyph glyph-name="four.superior" unicode="&#x2074;" horiz-adv-x="449" 
d="M331 335h-60v117h-225v49l227 275h58v-279h72v-45h-72v-117zM273 497v210l-170 -210h170z" />
    <glyph glyph-name="five.superior" unicode="&#x2075;" horiz-adv-x="422" 
d="M346 729h-209l-13 -129h69c116 0 171 -31 171 -127v-9c0 -98 -59 -138 -174 -138c-58 0 -111 9 -132 14v42c37 -5 79 -10 126 -10c89 0 119 26 119 91v10c0 65 -31 82 -118 82h-119l21 221h259v-47z" />
    <glyph glyph-name="six.superior" unicode="&#x2076;" horiz-adv-x="447" 
d="M366 770v-43c-32 4 -84 9 -131 9c-102 0 -120 -45 -121 -121v-22c37 9 83 14 113 14c83 0 160 -18 160 -120v-21c0 -108 -83 -140 -162 -140c-101 0 -170 38 -170 180v104c0 112 42 173 176 173c56 0 110 -8 135 -13zM327 466v20c0 68 -44 79 -104 79
c-27 0 -67 -2 -109 -12v-53c0 -104 46 -129 111 -129c58 0 102 27 102 95z" />
    <glyph glyph-name="seven.superior" unicode="&#x2077;" horiz-adv-x="414" 
d="M59 729v47h303v-54l-208 -387h-66l215 394h-244z" />
    <glyph glyph-name="eight.superior" unicode="&#x2078;" horiz-adv-x="462" 
d="M401 458c0 -116 -79 -132 -175 -132c-93 0 -172 16 -172 132v7c0 49 21 82 59 99c-37 17 -57 50 -57 97v6c0 95 77 116 173 116c93 0 170 -21 170 -116v-6c0 -46 -20 -80 -56 -97c37 -17 58 -50 58 -99v-7zM341 459v6c0 48 -17 78 -71 78h-84c-55 0 -72 -30 -72 -78v-6
c0 -74 44 -89 115 -89c68 0 112 15 112 89zM340 660v6c0 59 -44 73 -114 73c-67 0 -111 -14 -111 -73v-6c0 -42 16 -74 71 -74h84c54 0 70 33 70 74z" />
    <glyph glyph-name="nine.superior" unicode="&#x2079;" horiz-adv-x="447" 
d="M75 339v43c25 -3 83 -9 132 -9c102 0 120 46 120 121v23c-36 -9 -82 -14 -112 -14c-83 0 -161 18 -161 120v21c0 108 84 139 164 139c99 0 169 -37 169 -179v-104c0 -111 -43 -174 -176 -174c-56 0 -111 9 -136 13zM327 557v53c0 104 -44 129 -110 129
c-58 0 -103 -27 -103 -95v-20c0 -68 44 -79 104 -79c28 0 68 2 109 12z" />
    <glyph glyph-name="zero.inferior" unicode="&#x2080;" horiz-adv-x="447" 
d="M392 -19c0 -137 -64 -200 -169 -200s-168 64 -168 200v58c0 136 63 199 168 199s169 -63 169 -199v-58zM332 -20v59c0 118 -47 150 -109 150c-61 0 -108 -32 -108 -150v-59c0 -117 47 -149 108 -149c62 0 109 32 109 149z" />
    <glyph glyph-name="one.inferior" unicode="&#x2081;" horiz-adv-x="379" 
d="M326 -210h-272v44l105 2v340l-106 -34v49l122 42h44v-397l107 -2v-44z" />
    <glyph glyph-name="two.inferior" unicode="&#x2082;" horiz-adv-x="421" 
d="M65 184v41c22 5 83 13 137 13c106 0 160 -29 160 -106c0 -59 -27 -94 -124 -142c-103 -51 -120 -72 -120 -147v-5h238v-48h-298v44c0 104 33 139 144 194c89 43 100 62 100 103c0 47 -32 62 -106 62c-45 0 -103 -6 -131 -9z" />
    <glyph glyph-name="three.inferior" unicode="&#x2083;" horiz-adv-x="416" 
d="M190 -219c-53 0 -116 9 -130 13v41c23 -2 78 -8 125 -8c78 0 113 19 113 86v8c0 41 -10 74 -85 74h-135v45h136c74 0 84 38 84 77v6c0 51 -28 69 -112 69c-45 0 -102 -6 -126 -8v42c17 3 79 12 130 12c112 0 168 -28 168 -113v-6c0 -41 -16 -84 -64 -102
c50 -16 64 -57 64 -98v-8c0 -92 -54 -130 -168 -130z" />
    <glyph glyph-name="four.inferior" unicode="&#x2084;" horiz-adv-x="447" 
d="M329 -210h-60v117h-225v49l227 275h58v-279h72v-45h-72v-117zM271 -48v210l-170 -210h170z" />
    <glyph glyph-name="five.inferior" unicode="&#x2085;" horiz-adv-x="422" 
d="M346 184h-209l-13 -129h69c116 0 171 -31 171 -127v-9c0 -98 -59 -138 -174 -138c-58 0 -111 9 -132 14v42c37 -5 79 -10 126 -10c89 0 119 26 119 91v10c0 65 -31 82 -118 82h-119l21 221h259v-47z" />
    <glyph glyph-name="six.inferior" unicode="&#x2086;" horiz-adv-x="443" 
d="M366 225v-43c-32 4 -84 9 -131 9c-102 0 -120 -45 -121 -121v-22c37 9 83 14 113 14c83 0 160 -18 160 -120v-21c0 -108 -83 -140 -162 -140c-101 0 -170 38 -170 180v104c0 112 42 173 176 173c56 0 110 -8 135 -13zM327 -79v20c0 68 -44 79 -104 79
c-27 0 -67 -2 -109 -12v-53c0 -104 46 -129 111 -129c58 0 102 27 102 95z" />
    <glyph glyph-name="seven.inferior" unicode="&#x2087;" horiz-adv-x="412" 
d="M57 184v47h303v-54l-208 -387h-66l215 394h-244z" />
    <glyph glyph-name="eight.inferior" unicode="&#x2088;" horiz-adv-x="455" 
d="M401 -87c0 -116 -79 -132 -172 -132h-3c-93 0 -172 16 -172 132v7c0 49 21 82 59 99c-37 17 -57 50 -57 97v6c0 95 77 116 170 116h3c93 0 170 -21 170 -116v-6c0 -46 -20 -80 -56 -97c37 -17 58 -50 58 -99v-7zM341 -86v6c0 48 -17 78 -71 78h-84c-55 0 -72 -30 -72 -78
v-6c0 -74 44 -89 112 -89h3c68 0 112 15 112 89zM340 115v6c0 59 -44 73 -111 73h-3c-67 0 -111 -14 -111 -73v-6c0 -42 16 -74 71 -74h84c54 0 70 33 70 74z" />
    <glyph glyph-name="nine.inferior" unicode="&#x2089;" horiz-adv-x="443" 
d="M76 -206v43c25 -3 83 -9 131 -9c102 0 121 46 121 121v23c-36 -9 -82 -14 -113 -14c-82 0 -160 18 -160 120v21c0 108 84 139 164 139c99 0 168 -37 168 -179v-104c0 -111 -42 -174 -176 -174c-55 0 -111 9 -135 13zM328 12v53c0 104 -45 129 -110 129
c-58 0 -103 -27 -103 -95v-20c0 -68 44 -79 104 -79c27 0 68 2 109 12z" />
    <glyph glyph-name="cent.inferior" horiz-adv-x="368" 
d="M322 -206c-25 -5 -59 -9 -89 -10v-76h-52v79c-84 12 -135 65 -135 197v56c0 120 45 184 135 196v74h52v-72c30 -1 64 -5 89 -9v-48c-33 3 -71 6 -100 6c-86 0 -117 -40 -117 -147v-56c0 -107 28 -148 117 -148c35 0 71 2 100 5v-47z" />
    <glyph glyph-name="dollar.inferior" horiz-adv-x="393" 
d="M57 -204v46c27 -2 76 -8 130 -8c65 0 99 22 99 70c0 38 -21 54 -75 77l-62 27c-61 27 -104 55 -104 122c0 70 52 101 125 108v75h54v-74c46 -1 92 -7 109 -11v-47c-34 4 -91 9 -129 9c-55 0 -98 -13 -98 -59c0 -34 22 -55 70 -73l63 -24c71 -27 108 -61 108 -127
c0 -76 -51 -113 -123 -121v-77h-54v74c-43 1 -89 8 -113 13z" />
    <glyph glyph-name="period.inferior" horiz-adv-x="166" 
d="M112 -164h-57v88h57v-88z" />
    <glyph glyph-name="comma.inferior" horiz-adv-x="208" 
d="M157 -76l-62 -143h-51l51 143h62z" />
    <glyph glyph-name="commaaccent" horiz-adv-x="497" 
d="M294 -68l-95 -141h-62l80 141h77z" />
    <glyph glyph-name="Abreve" unicode="&#x102;" horiz-adv-x="643" 
d="M619 0h-71l-87 263h-282l-88 -263h-68l252 743h93zM440 324l-84 249c-13 38 -23 74 -32 115h-7c-10 -41 -20 -77 -32 -115l-86 -249h241zM483 940c-7 -87 -45 -156 -162 -156c-118 0 -155 69 -161 156h49c7 -72 36 -111 112 -111c77 0 105 39 112 111h50z" />
    <glyph glyph-name="Amacron" unicode="&#x100;" horiz-adv-x="643" 
d="M619 0h-71l-87 263h-282l-88 -263h-68l252 743h93zM440 324l-84 249c-13 38 -23 74 -32 115h-7c-10 -41 -20 -77 -32 -115l-86 -249h241zM493 829h-343v52h343v-52z" />
    <glyph glyph-name="Aogonek" unicode="&#x104;" horiz-adv-x="643" 
d="M619 -207c-12 -4 -45 -10 -84 -10c-84 0 -122 37 -122 94c0 52 55 97 132 130l-84 256h-282l-88 -263h-68l252 743h93l251 -743c-113 -50 -149 -82 -149 -120c0 -33 17 -54 70 -54c28 0 56 4 79 6v-39zM440 324l-84 249c-13 38 -23 74 -32 115h-7
c-10 -41 -20 -77 -32 -115l-86 -249h241z" />
    <glyph glyph-name="Aringacute" unicode="&#x1fa;" horiz-adv-x="643" 
d="M619 0h-71l-87 263h-282l-88 -263h-68l252 743h93zM440 324l-84 249c-13 38 -23 74 -32 115h-7c-10 -41 -20 -77 -32 -115l-86 -249h241zM436 862c0 -75 -49 -108 -114 -108s-116 33 -116 108c0 74 51 107 116 107s114 -33 114 -107zM391 862c0 51 -33 66 -69 66
c-37 0 -69 -15 -69 -66s32 -67 69 -67c36 0 69 16 69 67zM346 982h-66l134 154h80z" />
    <glyph glyph-name="AEacute" unicode="&#x1fc;" horiz-adv-x="942" 
d="M98 0h-68l249 743h608v-60h-361v-265h338v-61h-338v-298h361v-59h-427v263h-275zM460 323v361h-135c-11 -36 -22 -71 -34 -108l-86 -253h255zM731 943l-147 -154h-67l134 154h80z" />
    <glyph glyph-name="Cacute" unicode="&#x106;" horiz-adv-x="550" 
d="M520 2c-25 -4 -96 -15 -173 -15c-177 0 -292 80 -292 342v85c0 261 115 341 292 341c74 0 144 -11 173 -16v-55c-41 4 -109 11 -173 11c-153 0 -225 -74 -225 -281v-85c0 -207 72 -282 225 -282c66 0 132 7 173 11v-56zM492 943l-147 -154h-67l134 154h80z" />
    <glyph glyph-name="Ccaron" unicode="&#x10c;" horiz-adv-x="550" 
d="M520 2c-25 -4 -96 -15 -173 -15c-177 0 -292 80 -292 342v85c0 261 115 341 292 341c74 0 144 -11 173 -16v-55c-41 4 -109 11 -173 11c-153 0 -225 -74 -225 -281v-85c0 -207 72 -282 225 -282c66 0 132 7 173 11v-56zM149 943h67l113 -117l113 117h67l-138 -154h-84z
" />
    <glyph glyph-name="Ccircumflex" unicode="&#x108;" horiz-adv-x="550" 
d="M520 2c-25 -4 -96 -15 -173 -15c-177 0 -292 80 -292 342v85c0 261 115 341 292 341c74 0 144 -11 173 -16v-55c-41 4 -109 11 -173 11c-153 0 -225 -74 -225 -281v-85c0 -207 72 -282 225 -282c66 0 132 7 173 11v-56zM494 789h-67l-113 116l-113 -116h-67l138 154h84z
" />
    <glyph glyph-name="Cdotaccent" unicode="&#x10a;" horiz-adv-x="550" 
d="M520 2c-25 -4 -96 -15 -173 -15c-177 0 -292 80 -292 342v85c0 261 115 341 292 341c74 0 144 -11 173 -16v-55c-41 4 -109 11 -173 11c-153 0 -225 -74 -225 -281v-85c0 -207 72 -282 225 -282c66 0 132 7 173 11v-56zM359 819h-65v120h65v-120z" />
    <glyph glyph-name="Dcaron" unicode="&#x10e;" horiz-adv-x="659" 
d="M604 328c0 -215 -91 -332 -319 -332c-84 0 -127 2 -200 4v743c80 2 108 3 200 3c223 0 319 -115 319 -330v-88zM537 328v88c0 201 -88 270 -257 270c-50 0 -89 -1 -128 -2v-625c38 -2 81 -4 128 -4c169 0 257 72 257 273zM144 942h67l113 -117l113 117h67l-138 -154h-84z
" />
    <glyph glyph-name="Dcroat" unicode="&#x110;" horiz-adv-x="659" 
d="M604 328c0 -215 -91 -332 -319 -332c-73 0 -138 2 -200 4v357h-57v59h57v327c69 2 124 3 200 3c223 0 319 -115 319 -330v-88zM537 328v88c0 200 -86 270 -257 270c-50 0 -89 -1 -128 -2v-268h166v-59h-166v-298c38 -2 81 -4 128 -4c170 0 257 72 257 273z" />
    <glyph glyph-name="Ebreve" unicode="&#x114;" horiz-adv-x="568" 
d="M513 0h-428v743h428v-60h-361v-265h337v-61h-337v-298h361v-59zM466 945c-7 -87 -45 -156 -162 -156c-118 0 -155 69 -161 156h49c7 -72 36 -111 112 -111c77 0 105 39 112 111h50z" />
    <glyph glyph-name="Ecaron" unicode="&#x11a;" horiz-adv-x="568" 
d="M513 0h-428v743h428v-60h-361v-265h337v-61h-337v-298h361v-59zM124 943h67l113 -117l113 117h67l-138 -154h-84z" />
    <glyph glyph-name="Edotaccent" unicode="&#x116;" horiz-adv-x="568" 
d="M513 0h-428v743h428v-60h-361v-265h337v-61h-337v-298h361v-59zM331 809h-64v121h64v-121z" />
    <glyph glyph-name="Emacron" unicode="&#x112;" horiz-adv-x="568" 
d="M513 0h-428v743h428v-60h-361v-265h337v-61h-337v-298h361v-59zM471 833h-343v52h343v-52z" />
    <glyph glyph-name="Eng" unicode="&#x14a;" horiz-adv-x="692" 
d="M607 -56c0 -101 -28 -157 -140 -157c-22 0 -55 4 -69 7v51c23 -1 44 -1 65 -1c71 0 77 33 77 100v55l-341 577c-23 39 -36 68 -53 104h-2c2 -41 4 -86 4 -129v-551h-63v743h95l314 -527c21 -37 35 -69 50 -101h2c-3 46 -3 90 -3 127v501h64v-799z" />
    <glyph glyph-name="Eogonek" unicode="&#x118;" horiz-adv-x="568" 
d="M513 -207c-12 -4 -45 -10 -84 -10c-84 0 -122 37 -122 94c0 50 51 91 117 123h-339v743h428v-60h-361v-265h337v-61h-337v-298h361v-59c-113 -50 -150 -82 -150 -120c0 -33 18 -54 71 -54c28 0 56 4 79 6v-39z" />
    <glyph glyph-name="Gbreve" unicode="&#x11e;" horiz-adv-x="619" 
d="M554 5c-44 -7 -122 -18 -206 -18c-170 0 -293 84 -293 339v91c0 266 134 338 293 338c97 0 185 -14 206 -17v-55c-43 4 -148 12 -197 12c-142 0 -235 -54 -235 -278v-91c0 -214 87 -278 234 -278c43 0 92 1 131 5v330h67v-378zM496 945c-7 -87 -44 -157 -162 -157
c-117 0 -154 70 -161 157h50c6 -73 35 -112 111 -112c77 0 105 39 112 112h50z" />
    <glyph glyph-name="Gcircumflex" unicode="&#x11c;" horiz-adv-x="619" 
d="M554 5c-44 -7 -122 -18 -206 -18c-170 0 -293 84 -293 339v91c0 266 134 338 293 338c97 0 185 -14 206 -17v-55c-43 4 -148 12 -197 12c-142 0 -235 -54 -235 -278v-91c0 -214 87 -278 234 -278c43 0 92 1 131 5v330h67v-378zM505 789h-67l-114 116l-112 -116h-67
l138 154h84z" />
    <glyph glyph-name="Gcommaaccent" unicode="&#x122;" horiz-adv-x="619" 
d="M554 5c-44 -7 -122 -18 -206 -18c-170 0 -293 84 -293 339v91c0 266 134 338 293 338c97 0 185 -14 206 -17v-55c-43 4 -148 12 -197 12c-142 0 -235 -54 -235 -278v-91c0 -214 87 -278 234 -278c43 0 92 1 131 5v330h67v-378zM387 -68l-95 -141h-61l80 141h76z" />
    <glyph glyph-name="Gdotaccent" unicode="&#x120;" horiz-adv-x="619" 
d="M554 5c-44 -7 -122 -18 -206 -18c-170 0 -293 84 -293 339v91c0 266 134 338 293 338c97 0 185 -14 206 -17v-55c-43 4 -148 12 -197 12c-142 0 -235 -54 -235 -278v-91c0 -214 87 -278 234 -278c43 0 92 1 131 5v330h67v-378zM371 809h-65v121h65v-121z" />
    <glyph glyph-name="Hbar" unicode="&#x126;" horiz-adv-x="708" 
d="M21 548v53h64v142h67v-142h404v142h67v-142h64v-53h-64v-548h-67v365h-404v-365h-67v548h-64zM152 426h404v122h-404v-122z" />
    <glyph glyph-name="Hcircumflex" unicode="&#x124;" horiz-adv-x="708" 
d="M623 0h-67v365h-404v-365h-67v743h67v-317h404v317h67v-743zM535 788h-67l-113 117l-113 -117h-67l138 154h84z" />
    <glyph glyph-name="Ibreve" unicode="&#x12c;" horiz-adv-x="240" 
d="M154 0h-67v743h67v-743zM282 945c-7 -87 -44 -156 -162 -156c-117 0 -154 69 -161 156h50c6 -73 35 -111 111 -111c77 0 105 38 112 111h50z" />
    <glyph glyph-name="IJ" unicode="&#x132;" horiz-adv-x="486" 
d="M154 0h-67v743h67v-743zM399 -56c0 -101 -27 -157 -139 -157c-23 0 -55 4 -69 7v51c22 -1 43 -1 65 -1c71 0 77 33 77 100v799h66v-799z" />
    <glyph glyph-name="Imacron" unicode="&#x12a;" horiz-adv-x="240" 
d="M154 0h-67v743h67v-743zM292 833h-343v52h343v-52z" />
    <glyph glyph-name="Iogonek" unicode="&#x12e;" horiz-adv-x="240" 
d="M154 0c-66 -39 -86 -84 -86 -117c0 -36 18 -57 71 -57c28 0 54 4 77 6v-39c-12 -4 -44 -10 -83 -10c-88 0 -121 38 -121 97c0 50 31 93 75 129v734h67v-743z" />
    <glyph glyph-name="Itilde" unicode="&#x128;" horiz-adv-x="240" 
d="M154 0h-67v743h67v-743zM309 907c0 -75 -20 -123 -89 -123c-36 0 -63 14 -96 44l-41 38c-25 24 -39 34 -62 34c-37 0 -43 -32 -43 -77v-34h-49v34c0 76 24 124 92 124c37 0 59 -13 92 -42l42 -39c24 -23 40 -35 64 -35c37 0 42 31 42 76v34h48v-34z" />
    <glyph glyph-name="Jcircumflex" unicode="&#x134;" horiz-adv-x="240" 
d="M153 -56c0 -101 -27 -157 -139 -157c-23 0 -55 4 -69 7v51c22 -1 42 -1 65 -1c71 0 77 33 77 100v799h66v-799zM300 789h-67l-113 116l-113 -116h-67l138 154h84z" />
    <glyph glyph-name="Kcommaaccent" unicode="&#x136;" horiz-adv-x="601" 
d="M586 0h-92l-337 364v-364h-67v743h67v-353l341 353h87l-353 -365zM365 -68l-95 -141h-62l81 141h76z" />
    <glyph glyph-name="Lacute" unicode="&#x139;" horiz-adv-x="531" 
d="M506 0h-421v743h67v-684h354v-59zM457 943l-147 -154h-67l135 154h79z" />
    <glyph glyph-name="Lcaron" unicode="&#x13d;" horiz-adv-x="531" 
d="M506 0h-421v743h67v-684h354v-59zM423 765l-71 -229h-52l53 229h70z" />
    <glyph glyph-name="Lcommaaccent" unicode="&#x13b;" horiz-adv-x="531" 
d="M506 0h-421v743h67v-684h354v-59zM342 -68l-95 -141h-62l81 141h76z" />
    <glyph glyph-name="Ldot" unicode="&#x13f;" horiz-adv-x="531" 
d="M506 0h-421v743h67v-684h354v-59zM359 347h-67v137h67v-137z" />
    <glyph glyph-name="Nacute" unicode="&#x143;" horiz-adv-x="692" 
d="M607 -1h-95l-313 577c-17 32 -36 68 -53 104h-1c2 -41 3 -85 3 -128v-552h-63v743h95l314 -571c16 -30 35 -69 51 -102h1c-2 47 -3 92 -3 130v543h64v-744zM515 943l-147 -154h-67l134 154h80z" />
    <glyph glyph-name="Ncaron" unicode="&#x147;" horiz-adv-x="692" 
d="M607 -1h-95l-313 577c-17 32 -36 68 -53 104h-1c2 -41 3 -85 3 -128v-552h-63v743h95l314 -571c16 -30 35 -69 51 -102h1c-2 47 -3 92 -3 130v543h64v-744zM166 943h67l112 -117l114 117h67l-138 -154h-84z" />
    <glyph glyph-name="Ncommaaccent" unicode="&#x145;" horiz-adv-x="692" 
d="M607 -1h-95l-313 577c-17 32 -36 68 -53 104h-1c2 -41 3 -85 3 -128v-552h-63v743h95l314 -571c16 -30 35 -69 51 -102h1c-2 47 -3 92 -3 130v543h64v-744zM400 -68l-95 -141h-62l80 141h77z" />
    <glyph glyph-name="Obreve" unicode="&#x14e;" horiz-adv-x="671" 
d="M616 332c0 -235 -103 -345 -280 -345c-178 0 -281 110 -281 345v78c0 235 103 345 281 345c177 0 280 -110 280 -345v-78zM549 332v78c0 215 -89 285 -213 285c-125 0 -214 -70 -214 -285v-78c0 -215 90 -285 214 -285s213 70 213 285zM497 945
c-7 -87 -45 -157 -162 -157c-118 0 -155 70 -161 157h49c7 -73 36 -112 112 -112c77 0 105 39 112 112h50z" />
    <glyph glyph-name="Ohungarumlaut" unicode="&#x150;" horiz-adv-x="671" 
d="M616 332c0 -235 -103 -345 -280 -345c-178 0 -281 110 -281 345v78c0 235 103 345 281 345c177 0 280 -110 280 -345v-78zM549 332v78c0 215 -89 285 -213 285c-125 0 -214 -70 -214 -285v-78c0 -215 90 -285 214 -285s213 70 213 285zM605 942l-148 -154h-67l135 154h80
zM323 942h80l-147 -154h-67z" />
    <glyph glyph-name="Omacron" unicode="&#x14c;" horiz-adv-x="671" 
d="M616 332c0 -235 -103 -345 -280 -345c-178 0 -281 110 -281 345v78c0 235 103 345 281 345c177 0 280 -110 280 -345v-78zM549 332v78c0 215 -89 285 -213 285c-125 0 -214 -70 -214 -285v-78c0 -215 90 -285 214 -285s213 70 213 285zM507 833h-343v52h343v-52z" />
    <glyph glyph-name="Oslashacute" unicode="&#x1fe;" horiz-adv-x="671" 
d="M616 332c0 -235 -103 -345 -280 -345c-79 0 -142 21 -189 66l-37 -53h-70l69 98c-35 55 -54 133 -54 234v78c0 235 103 345 281 345c78 0 143 -22 190 -69l40 57h69l-71 -101c34 -56 52 -132 52 -232v-78zM488 633c-38 44 -91 62 -152 62c-125 0 -214 -70 -214 -285v-78
c0 -75 11 -132 32 -173zM549 332v78c0 74 -11 129 -30 170l-334 -474c38 -43 90 -59 151 -59c124 0 213 70 213 285zM487 943l-148 -154h-66l134 154h80z" />
    <glyph glyph-name="Racute" unicode="&#x154;" horiz-adv-x="622" 
d="M595 0h-79l-185 303c-22 -1 -50 -1 -70 -1c-37 0 -79 0 -109 1v-303h-67v743c59 2 112 4 174 4c175 0 293 -46 293 -215v-8c0 -120 -53 -180 -150 -207zM484 524v8c0 122 -74 155 -225 155c-33 0 -73 -2 -107 -3v-322c33 -1 72 -1 109 -1c153 0 223 41 223 163zM457 943
l-147 -154h-67l134 154h80z" />
    <glyph glyph-name="Rcaron" unicode="&#x158;" horiz-adv-x="622" 
d="M595 0h-79l-185 303c-22 -1 -50 -1 -70 -1c-37 0 -79 0 -109 1v-303h-67v743c59 2 112 4 174 4c175 0 293 -46 293 -215v-8c0 -120 -53 -180 -150 -207zM484 524v8c0 122 -74 155 -225 155c-33 0 -73 -2 -107 -3v-322c33 -1 72 -1 109 -1c153 0 223 41 223 163zM128 942
h67l112 -117l114 117h67l-138 -154h-84z" />
    <glyph glyph-name="Rcommaaccent" unicode="&#x156;" horiz-adv-x="622" 
d="M595 0h-79l-185 303c-22 -1 -50 -1 -70 -1c-37 0 -79 0 -109 1v-303h-67v743c59 2 112 4 174 4c175 0 293 -46 293 -215v-8c0 -120 -53 -180 -150 -207zM484 524v8c0 122 -74 155 -225 155c-33 0 -73 -2 -107 -3v-322c33 -1 72 -1 109 -1c153 0 223 41 223 163zM366 -68
l-95 -141h-62l81 141h76z" />
    <glyph glyph-name="Sacute" unicode="&#x15a;" horiz-adv-x="572" 
d="M517 183c0 -129 -81 -196 -240 -196c-87 0 -173 11 -206 18v53c50 -6 123 -13 206 -13c109 0 172 37 172 138c0 74 -34 107 -132 154l-101 47c-100 47 -161 98 -161 199c0 119 82 172 236 172c83 0 166 -11 201 -18v-54c-43 5 -127 13 -199 13c-106 0 -171 -27 -171 -113
c0 -68 38 -102 124 -143l101 -46c115 -55 170 -105 170 -211zM448 943l-148 -154h-66l134 154h80z" />
    <glyph glyph-name="Scedilla" unicode="&#x15e;" horiz-adv-x="572" 
d="M517 183c0 -129 -81 -196 -240 -196c-87 0 -173 11 -206 18v53c50 -6 123 -13 206 -13c109 0 172 37 172 138c0 74 -34 107 -132 154l-101 47c-100 47 -161 98 -161 199c0 119 82 172 236 172c83 0 166 -11 201 -18v-54c-43 5 -127 13 -199 13c-106 0 -171 -27 -171 -113
c0 -68 38 -102 124 -143l101 -46c115 -55 170 -105 170 -211zM351 -68l-135 -141h-68l121 141h82z" />
    <glyph glyph-name="Scircumflex" unicode="&#x15c;" horiz-adv-x="572" 
d="M517 183c0 -129 -81 -196 -240 -196c-87 0 -173 11 -206 18v53c50 -6 123 -13 206 -13c109 0 172 37 172 138c0 74 -34 107 -132 154l-101 47c-100 47 -161 98 -161 199c0 119 82 172 236 172c83 0 166 -11 201 -18v-54c-43 5 -127 13 -199 13c-106 0 -171 -27 -171 -113
c0 -68 38 -102 124 -143l101 -46c115 -55 170 -105 170 -211zM456 789h-67l-113 116l-113 -116h-67l138 154h84z" />
    <glyph glyph-name="Scommaaccent" unicode="&#x218;" horiz-adv-x="572" 
d="M517 183c0 -129 -81 -196 -240 -196c-87 0 -173 11 -206 18v53c50 -6 123 -13 206 -13c109 0 172 37 172 138c0 74 -34 107 -132 154l-101 47c-100 47 -161 98 -161 199c0 119 82 172 236 172c83 0 166 -11 201 -18v-54c-43 5 -127 13 -199 13c-106 0 -171 -27 -171 -113
c0 -68 38 -102 124 -143l101 -46c115 -55 170 -105 170 -211zM333 -68l-95 -141h-61l80 141h76z" />
    <glyph glyph-name="Tbar" unicode="&#x166;" horiz-adv-x="608" 
d="M578 683h-241v-198h225v-59h-225v-426h-67v426h-223v59h223v198h-240v60h548v-60z" />
    <glyph glyph-name="Tcaron" unicode="&#x164;" horiz-adv-x="608" 
d="M578 683h-241v-683h-67v683h-240v60h548v-60zM123 942h67l113 -117l113 117h67l-138 -154h-84z" />
    <glyph glyph-name="Tcedilla" unicode="&#x162;" horiz-adv-x="608" 
d="M578 683h-241v-683h-67v683h-240v60h548v-60zM354 -68l-95 -141h-62l80 141h77z" />
    <glyph glyph-name="Tcommaaccent" unicode="&#x21a;" horiz-adv-x="608" 
d="M578 683h-241v-683h-67v683h-240v60h548v-60zM350 -68l-95 -141h-61l80 141h76z" />
    <glyph glyph-name="Ubreve" unicode="&#x16c;" horiz-adv-x="683" 
d="M603 319c0 -220 -81 -331 -261 -331c-182 0 -262 111 -262 331v424h67v-417c0 -196 46 -278 195 -278c147 0 195 83 195 278v417h66v-424zM503 933c-7 -87 -45 -156 -162 -156c-118 0 -155 69 -161 156h49c7 -72 36 -111 112 -111c77 0 105 39 112 111h50z" />
    <glyph glyph-name="Uhungarumlaut" unicode="&#x170;" horiz-adv-x="683" 
d="M603 319c0 -220 -81 -331 -261 -331c-182 0 -262 111 -262 331v424h67v-417c0 -196 46 -278 195 -278c147 0 195 83 195 278v417h66v-424zM610 943l-147 -154h-68l135 154h80zM328 943h81l-148 -154h-67z" />
    <glyph glyph-name="Umacron" unicode="&#x16a;" horiz-adv-x="683" 
d="M603 319c0 -220 -81 -331 -261 -331c-182 0 -262 111 -262 331v424h67v-417c0 -196 46 -278 195 -278c147 0 195 83 195 278v417h66v-424zM513 833h-343v52h343v-52z" />
    <glyph glyph-name="Uogonek" unicode="&#x172;" horiz-adv-x="683" 
d="M442 -207c-12 -4 -46 -10 -85 -10c-84 0 -121 37 -121 94c0 41 34 81 85 112c-167 8 -241 118 -241 330v424h67v-417c0 -196 46 -278 195 -278c147 0 195 83 195 278v417h66v-424c0 -183 -56 -291 -178 -321c-100 -46 -133 -82 -133 -118c0 -33 17 -54 71 -54
c27 0 56 4 79 6v-39z" />
    <glyph glyph-name="Uring" unicode="&#x16e;" horiz-adv-x="683" 
d="M603 319c0 -220 -81 -331 -261 -331c-182 0 -262 111 -262 331v424h67v-417c0 -196 46 -278 195 -278c147 0 195 83 195 278v417h66v-424zM456 879c0 -75 -49 -108 -114 -108s-116 33 -116 108s51 108 116 108s114 -33 114 -108zM411 879c0 51 -33 67 -69 67
c-37 0 -69 -16 -69 -67c0 -50 32 -67 69 -67c36 0 69 17 69 67z" />
    <glyph glyph-name="Utilde" unicode="&#x168;" horiz-adv-x="683" 
d="M603 319c0 -220 -81 -331 -261 -331c-182 0 -262 111 -262 331v424h67v-417c0 -196 46 -278 195 -278c147 0 195 83 195 278v417h66v-424zM535 907c0 -76 -20 -124 -89 -124c-37 0 -64 15 -96 44l-42 39c-24 23 -38 33 -62 33c-36 0 -42 -31 -42 -76v-34h-49v34
c0 75 24 123 91 123c37 0 60 -12 92 -41l43 -39c24 -23 39 -35 63 -35c37 0 43 31 43 76v34h48v-34z" />
    <glyph glyph-name="Wacute" unicode="&#x1e82;" horiz-adv-x="884" 
d="M839 743l-146 -743h-107l-123 492c-6 28 -13 54 -19 82h-3c-7 -28 -13 -54 -20 -82l-122 -492h-108l-146 743h71l109 -572c7 -38 14 -79 21 -118h3c9 39 18 79 27 118l114 460h106l115 -463c9 -38 18 -76 26 -115h4c6 41 12 76 20 118l109 572h69zM607 943l-147 -154h-67
l135 154h79z" />
    <glyph glyph-name="Wcircumflex" unicode="&#x174;" horiz-adv-x="884" 
d="M839 743l-146 -743h-107l-123 492c-6 28 -13 54 -19 82h-3c-7 -28 -13 -54 -20 -82l-122 -492h-108l-146 743h71l109 -572c7 -38 14 -79 21 -118h3c9 39 18 79 27 118l114 460h106l115 -463c9 -38 18 -76 26 -115h4c6 41 12 76 20 118l109 572h69zM623 789h-67l-113 116
l-113 -116h-67l138 154h84z" />
    <glyph glyph-name="Wdieresis" unicode="&#x1e84;" horiz-adv-x="884" 
d="M839 743l-146 -743h-107l-123 492c-6 28 -13 54 -19 82h-3c-7 -28 -13 -54 -20 -82l-122 -492h-108l-146 743h71l109 -572c7 -38 14 -79 21 -118h3c9 39 18 79 27 118l114 460h106l115 -463c9 -38 18 -76 26 -115h4c6 41 12 76 20 118l109 572h69zM587 809h-59v119h59
v-119zM358 928v-119h-60v119h60z" />
    <glyph glyph-name="Wgrave" unicode="&#x1e80;" horiz-adv-x="884" 
d="M839 743l-146 -743h-107l-123 492c-6 28 -13 54 -19 82h-3c-7 -28 -13 -54 -20 -82l-122 -492h-108l-146 743h71l109 -572c7 -38 14 -79 21 -118h3c9 39 18 79 27 118l114 460h106l115 -463c9 -38 18 -76 26 -115h4c6 41 12 76 20 118l109 572h69zM517 789h-67l-147 154
h79z" />
    <glyph glyph-name="Ycircumflex" unicode="&#x176;" horiz-adv-x="601" 
d="M574 743l-240 -443v-300h-67v300l-240 443h73l150 -277c16 -31 36 -68 50 -102h4c14 33 36 71 52 102l149 277h69zM483 789h-67l-114 116l-112 -116h-67l138 154h84z" />
    <glyph glyph-name="Ygrave" unicode="&#x1ef2;" horiz-adv-x="601" 
d="M574 743l-240 -443v-300h-67v300l-240 443h73l150 -277c16 -31 36 -68 50 -102h4c14 33 36 71 52 102l149 277h69zM365 788h-67l-147 154h79z" />
    <glyph glyph-name="Zacute" unicode="&#x179;" horiz-adv-x="604" 
d="M557 0h-510v73l423 610h-407v60h479v-73l-422 -611h437v-59zM480 943l-148 -154h-66l134 154h80z" />
    <glyph glyph-name="Zdotaccent" unicode="&#x17b;" horiz-adv-x="604" 
d="M557 0h-510v73l423 610h-407v60h479v-73l-422 -611h437v-59zM334 809h-65v121h65v-121z" />
    <glyph glyph-name="Idotaccent" unicode="&#x130;" horiz-adv-x="240" 
d="M154 0h-67v743h67v-743zM153 809h-65v121h65v-121z" />
    <glyph glyph-name="abreve" unicode="&#x103;" horiz-adv-x="531" 
d="M458 0h-63v39c-38 -23 -100 -52 -181 -52c-106 0 -162 48 -162 156v15c0 138 89 166 248 166h92v46c0 106 -23 131 -144 131c-53 0 -98 -4 -159 -11v48c31 6 94 19 164 19c173 0 205 -59 205 -187v-370zM392 87v186h-92c-131 0 -183 -18 -183 -115v-19
c0 -75 42 -101 110 -101s135 30 165 49zM433 772c-7 -87 -45 -157 -162 -157c-118 0 -155 70 -161 157h49c7 -73 36 -112 112 -112c77 0 105 39 112 112h50z" />
    <glyph glyph-name="amacron" unicode="&#x101;" horiz-adv-x="531" 
d="M458 0h-63v39c-38 -23 -100 -52 -181 -52c-106 0 -162 48 -162 156v15c0 138 89 166 248 166h92v46c0 106 -23 131 -144 131c-53 0 -98 -4 -159 -11v48c31 6 94 19 164 19c173 0 205 -59 205 -187v-370zM392 87v186h-92c-131 0 -183 -18 -183 -115v-19
c0 -75 42 -101 110 -101s135 30 165 49zM438 664h-343v52h343v-52z" />
    <glyph glyph-name="aogonek" unicode="&#x105;" horiz-adv-x="531" 
d="M458 -207c-12 -4 -39 -10 -78 -10c-84 0 -122 37 -122 94c0 53 60 97 137 134v30c-38 -23 -100 -54 -181 -54c-106 0 -162 48 -162 156v15c0 138 89 166 248 166h92v46c0 106 -23 131 -144 131c-53 0 -98 -4 -159 -11v48c31 6 94 19 164 19c173 0 205 -59 205 -187v-370
c-112 -52 -143 -83 -143 -120c0 -33 17 -54 70 -54c28 0 50 4 73 6v-39zM392 89v184h-92c-131 0 -183 -18 -183 -115v-19c0 -75 42 -101 110 -101s135 32 165 51z" />
    <glyph glyph-name="aringacute" unicode="&#x1fb;" horiz-adv-x="531" 
d="M458 0h-63v39c-38 -23 -100 -52 -181 -52c-106 0 -162 48 -162 156v15c0 138 89 166 248 166h92v46c0 106 -23 131 -144 131c-53 0 -98 -4 -159 -11v48c31 6 94 19 164 19c173 0 205 -59 205 -187v-370zM392 87v186h-92c-131 0 -183 -18 -183 -115v-19
c0 -75 42 -101 110 -101s135 30 165 49zM389 689c0 -75 -49 -108 -114 -108s-116 33 -116 108s51 108 116 108s114 -33 114 -108zM344 689c0 51 -33 67 -69 67c-37 0 -69 -16 -69 -67c0 -50 32 -67 69 -67c36 0 69 17 69 67zM442 969l-147 -154h-67l135 154h79z" />
    <glyph glyph-name="aeacute" unicode="&#x1fd;" horiz-adv-x="896" 
d="M827 7c-40 -9 -112 -20 -188 -20c-111 0 -176 20 -211 72c-63 -47 -131 -72 -217 -72c-100 0 -160 48 -160 153v21c0 135 89 163 248 163h93v46c0 105 -23 131 -144 131c-51 0 -103 -4 -161 -11v48c30 6 100 19 165 19c126 0 166 -30 186 -84c32 51 89 83 181 83
c159 0 226 -101 226 -261v-46h-387v-55c0 -97 38 -152 182 -152c70 0 135 9 187 18v-53zM778 304v15c0 89 -28 181 -159 181c-132 0 -160 -94 -160 -173v-23h319zM392 93v180h-93c-131 0 -182 -17 -182 -112v-26c0 -71 42 -97 106 -97c70 0 137 32 169 55zM627 770
l-148 -154h-66l134 154h80z" />
    <glyph glyph-name="cacute" unicode="&#x107;" horiz-adv-x="466" 
d="M421 4c-36 -8 -86 -17 -149 -17c-149 0 -217 78 -217 255v60c0 175 70 255 217 255c65 0 116 -10 149 -17v-50c-66 7 -110 10 -140 10c-103 0 -160 -39 -160 -198v-60c0 -162 56 -199 160 -199c28 0 72 3 140 11v-50zM437 770l-147 -154h-67l134 154h80z" />
    <glyph glyph-name="ccaron" unicode="&#x10d;" horiz-adv-x="466" 
d="M421 4c-36 -8 -86 -17 -149 -17c-149 0 -217 78 -217 255v60c0 175 70 255 217 255c65 0 116 -10 149 -17v-50c-66 7 -110 10 -140 10c-103 0 -160 -39 -160 -198v-60c0 -162 56 -199 160 -199c28 0 72 3 140 11v-50zM86 770h67l113 -117l113 117h67l-138 -154h-84z" />
    <glyph glyph-name="ccircumflex" unicode="&#x109;" horiz-adv-x="466" 
d="M421 4c-36 -8 -86 -17 -149 -17c-149 0 -217 78 -217 255v60c0 175 70 255 217 255c65 0 116 -10 149 -17v-50c-66 7 -110 10 -140 10c-103 0 -160 -39 -160 -198v-60c0 -162 56 -199 160 -199c28 0 72 3 140 11v-50zM441 616h-67l-113 116l-113 -116h-67l138 154h84z
" />
    <glyph glyph-name="cdotaccent" unicode="&#x10b;" horiz-adv-x="466" 
d="M421 4c-36 -8 -86 -17 -149 -17c-149 0 -217 78 -217 255v60c0 175 70 255 217 255c65 0 116 -10 149 -17v-50c-66 7 -110 10 -140 10c-103 0 -160 -39 -160 -198v-60c0 -162 56 -199 160 -199c28 0 72 3 140 11v-50zM305 649h-65v121h65v-121z" />
    <glyph glyph-name="dcaron" unicode="&#x10f;" horiz-adv-x="691" 
d="M479 0h-63v31c-38 -21 -94 -44 -161 -44c-131 0 -200 73 -200 247v67c0 197 88 256 226 256c38 0 79 -3 133 -12v228h65v-773zM414 83v407c-52 7 -101 11 -129 11c-108 0 -164 -38 -164 -200v-67c0 -137 43 -191 145 -191c57 0 107 20 148 40zM681 773l-70 -229h-52
l52 229h70z" />
    <glyph glyph-name="dcroat" unicode="&#x111;" horiz-adv-x="570" 
d="M414 773h66v-90h59v-57h-59v-626h-64v31c-37 -21 -93 -44 -161 -44c-131 0 -200 73 -200 247v67c0 197 88 256 226 256c38 0 79 -3 133 -12v81h-161v57h161v90zM414 83v407c-52 7 -100 11 -129 11c-108 0 -164 -38 -164 -200v-67c0 -137 44 -191 146 -191
c56 0 106 20 147 40z" />
    <glyph glyph-name="ebreve" unicode="&#x115;" horiz-adv-x="559" 
d="M506 249h-386v-12c0 -124 34 -193 182 -193c60 0 136 7 186 15v-52c-39 -9 -107 -20 -188 -20c-185 0 -245 83 -245 264v38c0 170 69 268 225 268c157 0 226 -96 226 -275v-33zM438 304v9c0 97 -27 187 -158 187c-132 0 -159 -93 -159 -187v-9h317zM443 771
c-8 -87 -45 -156 -162 -156c-118 0 -155 69 -162 156h50c7 -73 35 -111 112 -111c76 0 104 38 112 111h50z" />
    <glyph glyph-name="ecaron" unicode="&#x11b;" horiz-adv-x="559" 
d="M506 249h-386v-12c0 -124 34 -193 182 -193c60 0 136 7 186 15v-52c-39 -9 -107 -20 -188 -20c-185 0 -245 83 -245 264v38c0 170 69 268 225 268c157 0 226 -96 226 -275v-33zM438 304v9c0 97 -27 187 -158 187c-132 0 -159 -93 -159 -187v-9h317zM107 770h67l112 -117
l114 117h67l-138 -154h-84z" />
    <glyph glyph-name="edotaccent" unicode="&#x117;" horiz-adv-x="559" 
d="M506 249h-386v-12c0 -124 34 -193 182 -193c60 0 136 7 186 15v-52c-39 -9 -107 -20 -188 -20c-185 0 -245 83 -245 264v38c0 170 69 268 225 268c157 0 226 -96 226 -275v-33zM438 304v9c0 97 -27 187 -158 187c-132 0 -159 -93 -159 -187v-9h317zM310 649h-65v121h65
v-121z" />
    <glyph glyph-name="emacron" unicode="&#x113;" horiz-adv-x="559" 
d="M506 249h-386v-12c0 -124 34 -193 182 -193c60 0 136 7 186 15v-52c-39 -9 -107 -20 -188 -20c-185 0 -245 83 -245 264v38c0 170 69 268 225 268c157 0 226 -96 226 -275v-33zM438 304v9c0 97 -27 187 -158 187c-132 0 -159 -93 -159 -187v-9h317zM449 664h-343v52h343
v-52z" />
    <glyph glyph-name="eng" unicode="&#x14b;" 
d="M80 543h65v-44c61 32 127 58 188 58c139 0 171 -74 171 -213v-417c0 -101 -28 -145 -121 -145c-22 0 -51 3 -67 6v48c20 -2 40 -2 59 -2c54 0 63 24 63 93v417c0 116 -25 156 -111 156c-52 0 -114 -20 -181 -52v-448h-66v543z" />
    <glyph glyph-name="eogonek" unicode="&#x119;" horiz-adv-x="559" 
d="M501 -207c-12 -4 -45 -10 -84 -10c-84 0 -122 37 -122 94c0 44 35 82 90 115c-26 -3 -56 -5 -85 -5c-183 0 -245 82 -245 264v38c0 170 69 268 225 268c157 0 226 -96 226 -275v-33h-386v-12c0 -124 34 -193 182 -193c60 0 136 7 186 15v-52c-111 -55 -137 -90 -137 -127
c0 -33 18 -54 71 -54c28 0 56 4 79 6v-39zM438 304v9c0 97 -27 187 -158 187c-132 0 -159 -93 -159 -187v-9h317z" />
    <glyph glyph-name="gbreve" unicode="&#x11f;" horiz-adv-x="560" 
d="M480 -20c0 -129 -42 -199 -209 -199c-77 0 -160 12 -189 17v48c59 -5 124 -9 189 -9c119 0 144 40 144 143v27c-24 -7 -79 -20 -130 -20c-151 0 -229 66 -229 250v70c0 171 70 250 241 250c52 0 122 -6 183 -14v-563zM415 62v430c-26 4 -76 9 -118 9
c-131 0 -176 -58 -176 -194v-70c0 -146 47 -194 165 -194c50 0 106 12 129 19zM444 771c-8 -87 -45 -156 -162 -156c-118 0 -155 69 -162 156h50c7 -73 35 -111 112 -111c76 0 104 38 112 111h50z" />
    <glyph glyph-name="gcircumflex" unicode="&#x11d;" horiz-adv-x="560" 
d="M480 -20c0 -129 -42 -199 -209 -199c-77 0 -160 12 -189 17v48c59 -5 124 -9 189 -9c119 0 144 40 144 143v27c-24 -7 -79 -20 -130 -20c-151 0 -229 66 -229 250v70c0 171 70 250 241 250c52 0 122 -6 183 -14v-563zM415 62v430c-26 4 -76 9 -118 9
c-131 0 -176 -58 -176 -194v-70c0 -146 47 -194 165 -194c50 0 106 12 129 19zM462 616h-67l-113 116l-113 -116h-67l138 154h84z" />
    <glyph glyph-name="gcommaaccent" unicode="&#x123;" horiz-adv-x="560" 
d="M480 -20c0 -129 -42 -199 -209 -199c-77 0 -160 12 -189 17v48c59 -5 124 -9 189 -9c119 0 144 40 144 143v27c-24 -7 -79 -20 -130 -20c-151 0 -229 66 -229 250v70c0 171 70 250 241 250c52 0 122 -6 183 -14v-563zM415 62v430c-26 4 -76 9 -118 9
c-131 0 -176 -58 -176 -194v-70c0 -146 47 -194 165 -194c50 0 106 12 129 19zM250 616l95 141h62l-81 -141h-76z" />
    <glyph glyph-name="gdotaccent" unicode="&#x121;" horiz-adv-x="560" 
d="M480 -20c0 -129 -42 -199 -209 -199c-77 0 -160 12 -189 17v48c59 -5 124 -9 189 -9c119 0 144 40 144 143v27c-24 -7 -79 -20 -130 -20c-151 0 -229 66 -229 250v70c0 171 70 250 241 250c52 0 122 -6 183 -14v-563zM415 62v430c-26 4 -76 9 -118 9
c-131 0 -176 -58 -176 -194v-70c0 -146 47 -194 165 -194c50 0 106 12 129 19zM314 649h-64v121h64v-121z" />
    <glyph glyph-name="hbar" unicode="&#x127;" 
d="M21 628v55h59v90h65v-90h175v-55h-175v-121c41 21 107 50 185 50c123 0 174 -67 174 -213v-344h-66v342c0 122 -33 158 -120 158c-64 0 -131 -25 -173 -46v-454h-65v628h-59z" />
    <glyph glyph-name="hcircumflex" unicode="&#x125;" 
d="M504 0h-66v342c0 122 -33 158 -120 158c-65 0 -131 -25 -173 -46v-454h-65v773h65v-266c41 21 106 50 185 50c122 0 174 -67 174 -213v-344zM469 789h-67l-113 116l-113 -116h-67l138 154h84z" />
    <glyph glyph-name="ibreve" unicode="&#x12d;" horiz-adv-x="236" 
d="M151 0h-66v543h66v-543zM280 771c-7 -87 -44 -156 -162 -156c-117 0 -154 69 -161 156h50c6 -73 35 -111 111 -111c77 0 105 38 112 111h50z" />
    <glyph glyph-name="ij" unicode="&#x133;" horiz-adv-x="486" 
d="M152 0h-65v543h65v-543zM153 649h-66v124h66v-124zM400 -74c0 -104 -29 -145 -124 -145c-20 0 -48 2 -64 4v49c19 -1 40 -2 59 -2c53 0 63 24 63 94v617h66v-617zM400 648h-66v125h66v-125z" />
    <glyph glyph-name="imacron" unicode="&#x12b;" horiz-adv-x="236" 
d="M151 0h-66v543h66v-543zM290 664h-343v52h343v-52z" />
    <glyph glyph-name="iogonek" unicode="&#x12f;" horiz-adv-x="236" 
d="M220 -207c-12 -4 -49 -10 -84 -10c-83 0 -122 38 -122 98c0 53 33 93 71 123v539h66v-543c-60 -43 -81 -81 -81 -117c0 -34 18 -57 71 -57c30 0 56 4 79 6v-39zM152 649h-67v124h67v-124z" />
    <glyph glyph-name="itilde" unicode="&#x129;" horiz-adv-x="236" 
d="M151 0h-66v543h66v-543zM309 737c0 -75 -21 -123 -90 -123c-36 0 -63 14 -96 44l-41 38c-24 24 -38 34 -62 34c-37 0 -43 -32 -43 -77v-34h-48v34c0 76 23 124 91 124c37 0 59 -13 92 -42l42 -39c24 -23 40 -35 64 -35c37 0 43 31 43 76v34h48v-34z" />
    <glyph glyph-name="jcircumflex" unicode="&#x135;" horiz-adv-x="236" 
d="M151 -73c0 -105 -28 -146 -123 -146c-20 0 -49 2 -65 5v49c20 -1 40 -2 59 -2c54 0 63 24 63 94v616h66v-616zM299 616h-67l-114 116l-112 -116h-67l138 154h84z" />
    <glyph glyph-name="kcommaaccent" unicode="&#x137;" horiz-adv-x="487" 
d="M473 0h-87l-241 275v-275h-65v773h65v-478l240 248h86l-253 -257zM301 -68l-95 -141h-61l80 141h76z" />
    <glyph glyph-name="lacute" unicode="&#x13a;" horiz-adv-x="232" 
d="M149 0h-65v773h65v-773zM277 950l-147 -154h-67l134 154h80z" />
    <glyph glyph-name="lcaron" unicode="&#x13e;" horiz-adv-x="358" 
d="M149 0h-65v773h65v-773zM348 773l-71 -229h-52l53 229h70z" />
    <glyph glyph-name="lcommaaccent" unicode="&#x13c;" horiz-adv-x="232" 
d="M149 0h-65v773h65v-773zM165 -68l-95 -141h-62l80 141h77z" />
    <glyph glyph-name="ldot" unicode="&#x140;" horiz-adv-x="331" 
d="M149 0h-65v773h65v-773zM311 300h-66v138h66v-138z" />
    <glyph glyph-name="nacute" unicode="&#x144;" 
d="M504 0h-66v344c0 116 -25 156 -112 156c-52 0 -113 -20 -181 -52v-448h-65v543h65v-44c60 32 122 58 187 58c140 0 172 -74 172 -213v-344zM457 770l-147 -154h-67l134 154h80z" />
    <glyph glyph-name="ncaron" unicode="&#x148;" 
d="M504 0h-66v344c0 116 -25 156 -112 156c-52 0 -113 -20 -181 -52v-448h-65v543h65v-44c60 32 122 58 187 58c140 0 172 -74 172 -213v-344zM115 770h67l113 -117l113 117h67l-138 -154h-84z" />
    <glyph glyph-name="ncommaaccent" unicode="&#x146;" 
d="M504 0h-66v344c0 116 -25 156 -112 156c-52 0 -113 -20 -181 -52v-448h-65v543h65v-44c60 32 122 58 187 58c140 0 172 -74 172 -213v-344zM335 -68l-95 -141h-61l80 141h76z" />
    <glyph glyph-name="obreve" unicode="&#x14f;" horiz-adv-x="564" 
d="M508 243c0 -168 -72 -256 -226 -256s-226 88 -226 256v58c0 167 72 256 226 256s226 -89 226 -256v-58zM443 243v58c0 139 -48 198 -161 198c-112 0 -161 -59 -161 -198v-58c0 -139 48 -199 161 -199s161 60 161 199zM444 771c-8 -87 -45 -156 -162 -156
c-118 0 -155 69 -162 156h50c7 -73 35 -111 112 -111c76 0 104 38 112 111h50z" />
    <glyph glyph-name="ohungarumlaut" unicode="&#x151;" horiz-adv-x="564" 
d="M508 243c0 -168 -72 -256 -226 -256s-226 88 -226 256v58c0 167 72 256 226 256s226 -89 226 -256v-58zM443 243v58c0 139 -48 198 -161 198c-112 0 -161 -59 -161 -198v-58c0 -139 48 -199 161 -199s161 60 161 199zM555 770l-147 -154h-68l135 154h80zM273 770h81
l-148 -154h-67z" />
    <glyph glyph-name="omacron" unicode="&#x14d;" horiz-adv-x="564" 
d="M508 243c0 -168 -72 -256 -226 -256s-226 88 -226 256v58c0 167 72 256 226 256s226 -89 226 -256v-58zM443 243v58c0 139 -48 198 -161 198c-112 0 -161 -59 -161 -198v-58c0 -139 48 -199 161 -199s161 60 161 199zM453 664h-343v52h343v-52z" />
    <glyph glyph-name="oslashacute" unicode="&#x1ff;" horiz-adv-x="564" 
d="M447 770l-147 -154h-67l134 154h80zM508 243c0 -168 -72 -256 -226 -256c-61 0 -108 14 -144 41l-39 -53h-69l69 92c-29 42 -43 101 -43 176v58c0 167 72 256 226 256c65 0 115 -17 152 -48l44 59h69l-77 -101c26 -42 38 -97 38 -166v-58zM443 243v58c0 44 -6 80 -18 107
l-250 -331c26 -22 61 -33 107 -33c112 0 161 60 161 199zM396 460c-25 26 -63 39 -114 39c-113 0 -161 -59 -161 -198v-58c0 -51 7 -91 21 -120z" />
    <glyph glyph-name="racute" unicode="&#x155;" horiz-adv-x="361" 
d="M348 498c-60 0 -144 -14 -204 -50v-448h-64v543h64v-44c64 46 141 58 204 58v-59zM381 770l-147 -154h-67l135 154h79z" />
    <glyph glyph-name="rcaron" unicode="&#x159;" horiz-adv-x="361" 
d="M348 498c-60 0 -144 -14 -204 -50v-448h-64v543h64v-44c64 46 141 58 204 58v-59zM29 770h67l113 -117l113 117h67l-138 -154h-84z" />
    <glyph glyph-name="rcommaaccent" unicode="&#x157;" horiz-adv-x="361" 
d="M348 498c-60 0 -144 -14 -204 -50v-448h-64v543h64v-44c64 46 141 58 204 58v-59zM243 -68l-95 -141h-62l80 141h77z" />
    <glyph glyph-name="sacute" unicode="&#x15b;" horiz-adv-x="472" 
d="M428 134c0 -77 -44 -147 -197 -147c-73 0 -148 13 -174 20v51c34 -4 107 -15 172 -15c102 0 134 35 134 90c0 54 -24 75 -122 115l-39 15c-104 42 -152 85 -152 162c0 90 63 132 194 132c67 0 133 -11 159 -19v-50c-51 7 -114 12 -156 12c-90 0 -131 -16 -131 -75
c0 -51 28 -73 112 -107l39 -16c121 -51 161 -86 161 -168zM404 770l-147 -154h-67l134 154h80z" />
    <glyph glyph-name="scedilla" unicode="&#x15f;" horiz-adv-x="472" 
d="M428 134c0 -77 -44 -147 -197 -147c-73 0 -148 13 -174 20v51c34 -4 107 -15 172 -15c102 0 134 35 134 90c0 54 -24 75 -122 115l-39 15c-104 42 -152 85 -152 162c0 90 63 132 194 132c67 0 133 -11 159 -19v-50c-51 7 -114 12 -156 12c-90 0 -131 -16 -131 -75
c0 -51 28 -73 112 -107l39 -16c121 -51 161 -86 161 -168zM303 -68l-134 -141h-68l121 141h81z" />
    <glyph glyph-name="scircumflex" unicode="&#x15d;" horiz-adv-x="472" 
d="M428 134c0 -77 -44 -147 -197 -147c-73 0 -148 13 -174 20v51c34 -4 107 -15 172 -15c102 0 134 35 134 90c0 54 -24 75 -122 115l-39 15c-104 42 -152 85 -152 162c0 90 63 132 194 132c67 0 133 -11 159 -19v-50c-51 7 -114 12 -156 12c-90 0 -131 -16 -131 -75
c0 -51 28 -73 112 -107l39 -16c121 -51 161 -86 161 -168zM414 616h-67l-113 116l-113 -116h-67l138 154h84z" />
    <glyph glyph-name="scommaaccent" unicode="&#x219;" horiz-adv-x="472" 
d="M428 134c0 -77 -44 -147 -197 -147c-73 0 -148 13 -174 20v51c34 -4 107 -15 172 -15c102 0 134 35 134 90c0 54 -24 75 -122 115l-39 15c-104 42 -152 85 -152 162c0 90 63 132 194 132c67 0 133 -11 159 -19v-50c-51 7 -114 12 -156 12c-90 0 -131 -16 -131 -75
c0 -51 28 -73 112 -107l39 -16c121 -51 161 -86 161 -168zM288 -68l-95 -141h-62l81 141h76z" />
    <glyph glyph-name="tbar" unicode="&#x167;" horiz-adv-x="390" 
d="M361 339h-156v-214c0 -69 10 -85 65 -85c26 0 60 2 90 5v-46c-21 -5 -63 -12 -97 -12c-92 0 -123 35 -123 135v217l-117 6v49h117v94l-117 5v50h117v146h65v-146h156v-55h-156v-94h156v-55z" />
    <glyph glyph-name="tcaron" unicode="&#x165;" horiz-adv-x="399" 
d="M367 -1c-21 -5 -63 -12 -97 -12c-93 0 -124 35 -124 135v366l-117 5v50h117v146h66v-146h155v-55h-155v-363c0 -69 9 -85 65 -85c27 0 66 2 90 5v-46zM393 773l-60 -171h-52l42 171h70z" />
    <glyph glyph-name="tcedilla" unicode="&#x163;" horiz-adv-x="390" 
d="M361 488h-156v-363c0 -69 10 -85 65 -85c27 0 67 2 91 5v-46c-22 -5 -64 -12 -97 -12c-93 0 -124 35 -124 135v366l-117 5v50h117v146h65v-146h156v-55zM276 -68l-95 -141h-61l80 141h76z" />
    <glyph glyph-name="tcommaaccent" unicode="&#x21b;" horiz-adv-x="390" 
d="M362 -1c-22 -5 -64 -12 -98 -12c-92 0 -123 35 -123 135v366l-118 5v50h118v146h65v-146h156v-55h-156v-363c0 -69 9 -85 65 -85c27 0 67 2 91 5v-46zM284 -68l-95 -141h-62l81 141h76z" />
    <glyph glyph-name="ubreve" unicode="&#x16d;" 
d="M500 0h-65v44c-66 -34 -128 -57 -193 -57c-133 0 -165 83 -165 212v344h64v-344c0 -116 26 -156 113 -156c54 0 114 21 181 53v447h65v-543zM453 771c-8 -87 -45 -156 -162 -156c-118 0 -155 69 -162 156h50c7 -73 35 -111 112 -111c76 0 104 38 112 111h50z" />
    <glyph glyph-name="uhungarumlaut" unicode="&#x171;" 
d="M500 0h-65v44c-66 -34 -128 -57 -193 -57c-133 0 -165 83 -165 212v344h64v-344c0 -116 26 -156 113 -156c54 0 114 21 181 53v447h65v-543zM564 770l-147 -154h-68l135 154h80zM282 770h81l-148 -154h-67z" />
    <glyph glyph-name="umacron" unicode="&#x16b;" 
d="M500 0h-65v44c-66 -34 -128 -57 -193 -57c-133 0 -165 83 -165 212v344h64v-344c0 -116 26 -156 113 -156c54 0 114 21 181 53v447h65v-543zM462 664h-343v52h343v-52z" />
    <glyph glyph-name="uogonek" unicode="&#x173;" 
d="M500 -207c-12 -4 -42 -10 -81 -10c-84 0 -121 37 -121 94c0 52 55 97 137 132v38c-65 -34 -128 -60 -193 -60c-133 0 -165 83 -165 212v344h64v-344c0 -116 26 -156 113 -156c54 0 114 23 181 56v444h65v-543c-113 -50 -146 -82 -146 -120c0 -33 17 -54 71 -54
c27 0 52 4 75 6v-39z" />
    <glyph glyph-name="uring" unicode="&#x16f;" 
d="M500 0h-65v44c-66 -34 -128 -57 -193 -57c-133 0 -165 83 -165 212v344h64v-344c0 -116 26 -156 113 -156c54 0 114 21 181 53v447h65v-543zM407 711c0 -75 -49 -108 -114 -108s-116 33 -116 108s51 108 116 108s114 -33 114 -108zM362 711c0 51 -33 67 -69 67
c-37 0 -69 -16 -69 -67s32 -67 69 -67c36 0 69 16 69 67z" />
    <glyph glyph-name="utilde" unicode="&#x169;" 
d="M500 0h-65v44c-66 -34 -128 -57 -193 -57c-133 0 -165 83 -165 212v344h64v-344c0 -116 26 -156 113 -156c54 0 114 21 181 53v447h65v-543zM481 737c0 -75 -20 -123 -89 -123c-37 0 -64 14 -96 44l-42 38c-24 24 -38 34 -62 34c-36 0 -42 -32 -42 -77v-34h-49v34
c0 76 24 124 91 124c37 0 60 -13 92 -42l43 -39c24 -23 39 -35 63 -35c37 0 43 31 43 76v34h48v-34z" />
    <glyph glyph-name="wacute" unicode="&#x1e83;" horiz-adv-x="810" 
d="M780 543l-129 -543h-94l-121 358c-14 42 -23 73 -29 96h-3c-7 -23 -15 -54 -29 -96l-121 -358h-94l-130 543h67l86 -369c9 -41 17 -83 22 -123h4c13 42 24 85 37 123l109 328h101l109 -328c13 -38 24 -81 37 -123h4c5 40 13 82 22 123l85 369h67zM564 770l-148 -154h-66
l134 154h80z" />
    <glyph glyph-name="wcircumflex" unicode="&#x175;" horiz-adv-x="810" 
d="M780 543l-129 -543h-94l-121 358c-14 42 -23 73 -29 96h-3c-7 -23 -15 -54 -29 -96l-121 -358h-94l-130 543h67l86 -369c9 -41 17 -83 22 -123h4c13 42 24 85 37 123l109 328h101l109 -328c13 -38 24 -81 37 -123h4c5 40 13 82 22 123l85 369h67zM585 616h-67l-114 116
l-112 -116h-67l138 154h84z" />
    <glyph glyph-name="wdieresis" unicode="&#x1e85;" horiz-adv-x="810" 
d="M780 543l-129 -543h-94l-121 358c-14 42 -23 73 -29 96h-3c-7 -23 -15 -54 -29 -96l-121 -358h-94l-130 543h67l86 -369c9 -41 17 -83 22 -123h4c13 42 24 85 37 123l109 328h101l109 -328c13 -38 24 -81 37 -123h4c5 40 13 82 22 123l85 369h67zM549 642h-60v119h60
v-119zM320 761v-119h-60v119h60z" />
    <glyph glyph-name="wgrave" unicode="&#x1e81;" horiz-adv-x="810" 
d="M780 543l-129 -543h-94l-121 358c-14 42 -23 73 -29 96h-3c-7 -23 -15 -54 -29 -96l-121 -358h-94l-130 543h67l86 -369c9 -41 17 -83 22 -123h4c13 42 24 85 37 123l109 328h101l109 -328c13 -38 24 -81 37 -123h4c5 40 13 82 22 123l85 369h67zM457 616h-67l-147 154
h80z" />
    <glyph glyph-name="ycircumflex" unicode="&#x177;" horiz-adv-x="520" 
d="M495 543l-207 -586c-42 -119 -74 -176 -183 -176c-37 0 -73 4 -95 7v52c39 -3 63 -4 93 -4c66 0 83 28 120 128l13 37l-210 542h72l130 -348c14 -41 25 -74 39 -122h2c13 48 23 80 37 123l119 347h70zM446 616h-67l-113 116l-113 -116h-67l138 154h84z" />
    <glyph glyph-name="ygrave" unicode="&#x1ef3;" horiz-adv-x="520" 
d="M495 543l-207 -586c-42 -119 -74 -176 -183 -176c-37 0 -73 4 -95 7v52c39 -3 63 -4 93 -4c66 0 83 28 120 128l13 37l-210 542h72l130 -348c14 -41 25 -74 39 -122h2c13 48 23 80 37 123l119 347h70zM325 616h-67l-148 154h80z" />
    <glyph glyph-name="zacute" unicode="&#x17a;" horiz-adv-x="479" 
d="M433 0h-391v72l319 416h-307v55h378v-67l-323 -422h324v-54zM417 770l-147 -154h-67l135 154h79z" />
    <glyph glyph-name="zdotaccent" unicode="&#x17c;" horiz-adv-x="479" 
d="M433 0h-391v72l319 416h-307v55h378v-67l-323 -422h324v-54zM278 649h-65v121h65v-121z" />
    <glyph glyph-name="kgreenlandic" unicode="&#x138;" horiz-adv-x="487" 
d="M473 0h-87l-241 275v-275h-65v543h65v-248l240 248h86l-253 -257z" />
    <glyph glyph-name="napostrophe" unicode="&#x149;" horiz-adv-x="629" 
d="M551 0h-65v344c0 116 -26 156 -113 156c-51 0 -112 -20 -181 -52v-448h-65v543h65v-44c61 32 122 58 188 58c140 0 171 -74 171 -213v-344zM121 773l-71 -229h-52l53 229h70z" />
    <glyph glyph-name="Delta" unicode="&#x2206;" horiz-adv-x="674" 
d="M637 0h-600l252 743h94zM545 59l-166 497c-16 48 -29 94 -41 139h-2c-13 -44 -25 -91 -41 -139l-167 -497h417z" />
    <glyph glyph-name="uni03A9" unicode="&#x3a9;" horiz-adv-x="663" 
d="M611 389c0 -126 -50 -229 -173 -278v-55h164v-56h-226v144c115 35 168 121 168 245v59c0 185 -92 248 -212 248s-212 -63 -212 -248v-59c0 -124 53 -210 168 -245v-144h-226v56h164v55c-123 49 -173 152 -173 278v59c0 204 109 307 279 307c171 0 279 -103 279 -307v-59z
" />
    <glyph glyph-name="uni03BC" unicode="&#x3bc;" horiz-adv-x="627" 
d="M525 0h-65v44c-66 -34 -129 -57 -194 -57c-47 0 -79 11 -99 38v-234h-66v752h65v-344c0 -116 26 -156 113 -156c54 0 114 21 181 53v447h65v-543z" />
    <glyph glyph-name="pi" unicode="&#x3c0;" horiz-adv-x="614" 
d="M577 -9c-15 -3 -36 -5 -53 -5c-85 0 -105 45 -105 136v360h-214v-482h-66v482h-94v61h532v-61h-93v-360c0 -62 8 -81 54 -81h39v-50z" />
    <glyph glyph-name="uni037E" unicode="&#x37e;" horiz-adv-x="236" 
d="M153 266h-66v138h66v-138z" />
    <glyph glyph-name="exclamdbl" unicode="&#x203c;" horiz-adv-x="431" 
d="M149 0h-67v127h67v-127zM151 765l-6 -574h-58l-7 574h71zM349 0h-67v127h67v-127zM351 765l-6 -574h-58l-7 574h71z" />
    <glyph glyph-name="franc" unicode="&#x20a3;" horiz-adv-x="576" 
d="M165 0h-66v176h-58v61h58v506h428v-60h-362v-265h338v-61h-338v-120h193v-61h-193v-176z" />
    <glyph glyph-name="lira" unicode="&#x20a4;" horiz-adv-x="613" 
d="M545 736v-55c-51 7 -125 13 -177 13c-137 0 -160 -45 -160 -187v-55h260v-56h-260v-91h260v-56h-260v-55c0 -56 -11 -95 -44 -137h381v-57h-455v52c41 44 51 89 51 142v55h-82v56h82v91h-82v56h82v55c0 167 40 246 223 246c79 0 145 -10 181 -17z" />
    <glyph glyph-name="peseta" unicode="&#x20a7;" horiz-adv-x="654" 
d="M107 558v185c54 1 117 4 185 4c167 0 273 -42 287 -189h61v-59h-61c-11 -152 -120 -197 -288 -197c-36 0 -75 0 -117 1v-303h-67v499h-69v59h69zM513 520v13c0 123 -70 154 -221 154c-45 0 -85 -2 -118 -3v-322c42 -1 81 -1 117 -1c150 0 222 36 222 159z" />
    <glyph glyph-name="Euro" unicode="&#x20ac;" horiz-adv-x="637" 
d="M404 695c-116 0 -195 -41 -218 -209h343l-15 -53h-335c-3 -38 -2 -80 1 -123h299l-14 -52h-278c24 -170 103 -211 217 -211c52 0 124 7 171 12v-56c-33 -6 -103 -16 -174 -16c-141 0 -257 57 -284 271h-68v52h63c-3 42 -4 84 -1 123h-62v53h68c25 215 143 269 284 269
c71 0 141 -10 174 -17v-55c-47 4 -119 12 -171 12z" />
    <glyph glyph-name="litre" unicode="&#x2113;" horiz-adv-x="460" 
d="M411 39c-45 -37 -91 -56 -135 -56c-89 0 -128 50 -128 153v129c-24 -22 -50 -45 -76 -69l-30 35c40 36 73 67 106 99v267c0 121 32 189 131 189c92 0 122 -59 122 -128c0 -119 -70 -212 -187 -330v-184c0 -82 20 -107 74 -107c30 0 63 16 92 40zM348 658
c0 45 -14 78 -64 78c-63 0 -70 -51 -70 -139v-200c90 98 134 167 134 261z" />
    <glyph glyph-name="Omega" unicode="&#x2126;" horiz-adv-x="663" 
d="M611 389c0 -126 -50 -229 -173 -278v-55h164v-56h-226v144c115 35 168 121 168 245v59c0 185 -92 248 -212 248s-212 -63 -212 -248v-59c0 -124 53 -210 168 -245v-144h-226v56h164v55c-123 49 -173 152 -173 278v59c0 204 109 307 279 307c171 0 279 -103 279 -307v-59z
" />
    <glyph glyph-name="estimated" unicode="&#x212e;" horiz-adv-x="646" 
d="M613 282h-452v-193c45 -40 97 -63 160 -63c118 0 174 59 221 127l33 -19c-55 -81 -122 -141 -254 -141c-172 0 -286 133 -286 290c0 159 110 290 290 290c179 0 288 -134 288 -291zM487 315v163c-38 33 -101 62 -162 62c-63 0 -122 -21 -164 -62v-163h326z" />
    <glyph glyph-name="partialdiff" unicode="&#x2202;" horiz-adv-x="604" 
d="M543 460c0 -65 -8 -146 -21 -220c-32 -172 -116 -254 -260 -254c-136 0 -200 71 -200 195c0 37 3 78 14 113c23 119 103 194 241 194c76 0 143 -30 158 -87c3 33 3 66 2 90c-4 139 -52 232 -211 232c-42 0 -91 -5 -136 -15v53c42 11 91 17 138 17
c196 0 275 -119 275 -318zM462 300c0 81 -44 131 -145 131c-102 0 -158 -55 -177 -148c-10 -31 -14 -69 -14 -102c0 -94 43 -137 142 -137c116 0 172 73 189 194c3 24 5 48 5 62z" />
    <glyph glyph-name="product" unicode="&#x220f;" horiz-adv-x="713" 
d="M677 682h-104v-748h-67v748h-297v-748h-67v748h-104v61h639v-61z" />
    <glyph glyph-name="summation" unicode="&#x2211;" horiz-adv-x="588" 
d="M513 -66h-434v60l238 339l-238 350v60h434v-61h-352l225 -332v-36l-225 -319h352v-61z" />
    <glyph glyph-name="uni2219" unicode="&#x2219;" horiz-adv-x="213" 
d="M140 300h-67v138h67v-138z" />
    <glyph glyph-name="radical" unicode="&#x221a;" horiz-adv-x="789" 
d="M738 873l-313 -947h-83l-166 495h-119v60h165l162 -496c95 295 194 593 289 888h65z" />
    <glyph glyph-name="infinity" unicode="&#x221e;" horiz-adv-x="757" 
d="M633 364c0 -71 -7 -229 -141 -229h-6c-46 0 -87 23 -119 63c-21 -39 -52 -64 -99 -64h-7c-135 0 -141 160 -141 230v19c0 70 7 229 142 229h6c46 0 86 -24 117 -65c21 43 52 65 102 65h6c134 0 140 -159 140 -230v-18zM576 364v18c0 71 -5 175 -83 175h-6
c-61 -1 -70 -67 -82 -187c-5 -45 -10 -87 -18 -118c29 -42 64 -63 99 -63h6c78 0 84 104 84 175zM367 492c-29 43 -64 65 -99 65h-6c-79 0 -85 -103 -85 -174v-19c0 -71 5 -175 84 -175h7c56 0 70 66 83 187c4 43 9 83 16 116z" />
    <glyph glyph-name="integral" unicode="&#x222b;" horiz-adv-x="515" 
d="M459 703c-16 1 -59 4 -90 4c-69 0 -78 -23 -78 -107v-646c0 -94 -15 -159 -136 -159c-36 0 -79 7 -97 11v46c16 -1 60 -4 91 -4c68 0 77 23 77 106v646c0 95 15 160 137 160c35 0 79 -7 96 -11v-46z" />
    <glyph glyph-name="approxequal" unicode="&#x2248;" horiz-adv-x="696" 
d="M573 567c0 -89 -22 -145 -105 -145c-47 0 -80 19 -115 49l-53 46c-29 25 -48 40 -72 40c-43 0 -49 -32 -49 -89v-36h-57v36c0 88 26 145 106 145c41 0 68 -19 106 -52l52 -45c26 -23 44 -39 70 -39c54 0 60 24 60 90v36h57v-36zM573 312c0 -89 -22 -145 -105 -145
c-46 0 -81 19 -115 49l-53 47c-29 25 -46 40 -72 40c-43 0 -49 -33 -49 -90v-36h-57v36c0 88 26 145 106 145c40 0 69 -19 106 -51l52 -46c30 -27 52 -39 82 -39c42 0 48 34 48 90v36h57v-36z" />
    <glyph glyph-name="notequal" unicode="&#x2260;" horiz-adv-x="696" 
d="M568 252h-239l-89 -252h-58l89 252h-141v55h162l60 169h-222v56h242l76 213h57l-75 -213h138v-56h-159l-59 -169h218v-55z" />
    <glyph glyph-name="lessequal" unicode="&#x2264;" horiz-adv-x="696" 
d="M588 0h-482v55h482v-55zM505 149h-89l-279 246l279 246h89l-278 -246z" />
    <glyph glyph-name="greaterequal" unicode="&#x2265;" horiz-adv-x="696" 
d="M588 0h-482v55h482v-55zM557 395l-278 -246h-90l279 246l-279 246h90z" />
    <glyph glyph-name="lozenge" unicode="&#x25ca;" horiz-adv-x="685" 
d="M584 360l-245 -298l-240 295l243 300zM515 360l-173 212l-174 -215l171 -210z" />
    <glyph glyph-name="uni00A0" unicode="&#xa0;" horiz-adv-x="201" 
 />
    <glyph glyph-name="uni00AD" unicode="&#xad;" horiz-adv-x="395" 
d="M320 262h-245v56h245v-56z" />
    <glyph glyph-name="uni02C9" unicode="&#x2c9;" horiz-adv-x="451" 
d="M397 664h-343v52h343v-52z" />
    <glyph glyph-name="Dotaccent" horiz-adv-x="431" 
d="M253 825h-65v121h65v-121z" />
    <glyph glyph-name="Breve" horiz-adv-x="445" 
d="M385 951c-8 -87 -45 -156 -162 -156c-118 0 -155 69 -162 156h50c7 -72 35 -112 112 -112c76 0 104 40 112 112h50z" />
    <glyph glyph-name="Ogonek" horiz-adv-x="445" 
d="M344 -207c-12 -4 -45 -10 -84 -10c-84 0 -122 37 -122 94s60 93 140 137l70 -5c-121 -64 -153 -91 -153 -129c0 -33 17 -54 70 -54c28 0 56 4 79 6v-39z" />
    <glyph glyph-name="Cedilla" horiz-adv-x="435" 
d="M278 -68l-134 -141h-68l121 141h81z" />
    <glyph glyph-name="Ring" horiz-adv-x="446" 
d="M339 850c0 -75 -50 -107 -115 -107s-116 32 -116 107c0 76 51 108 116 108s115 -32 115 -108zM293 850c0 52 -34 67 -69 67c-36 0 -69 -15 -69 -67c0 -51 33 -66 69 -66c35 0 69 15 69 66z" />
    <glyph glyph-name="Tilde" horiz-adv-x="448" 
d="M414 924c0 -76 -20 -124 -89 -124c-36 0 -63 14 -96 44l-41 38c-25 24 -39 34 -62 34c-37 0 -43 -31 -43 -77v-34h-49v34c0 76 24 124 92 124c37 0 59 -12 92 -42l42 -39c24 -22 40 -34 64 -34c37 0 42 30 42 76v33h48v-33z" />
    <glyph glyph-name="Circumflex" horiz-adv-x="453" 
d="M407 795h-68l-113 117l-112 -117h-68l139 154h83z" />
    <glyph glyph-name="Acute" horiz-adv-x="443" 
d="M370 949l-147 -154h-67l135 154h79z" />
    <glyph glyph-name="Caron" horiz-adv-x="453" 
d="M47 949h67l112 -117l114 117h67l-138 -154h-84z" />
    <glyph glyph-name="Dieresis" horiz-adv-x="441" 
d="M365 817h-59v119h59v-119zM136 936v-119h-60v119h60z" />
    <glyph glyph-name="Grave" horiz-adv-x="431" 
d="M271 797h-66l-148 154h80z" />
    <glyph glyph-name="Hungarumlaut" horiz-adv-x="449" 
d="M511 949l-147 -154h-67l135 154h79zM219 949h80l-147 -154h-68z" />
    <glyph glyph-name="Macron" horiz-adv-x="451" 
d="M397 850h-343v52h343v-52z" />
    <glyph glyph-name="commaaccent.cap" horiz-adv-x="497" 
d="M295 -68l-95 -141h-61l80 141h76z" />
    <glyph glyph-name="h.superior" horiz-adv-x="412" 
d="M65 773h58v-157c26 13 67 29 112 29c82 0 112 -42 112 -133v-210h-58v209c0 69 -19 88 -68 88c-37 0 -75 -14 -98 -25v-272h-58v471z" />
    <glyph glyph-name="zero.slash" horiz-adv-x="641" 
d="M575 313c0 -226 -95 -326 -253 -326c-75 0 -136 22 -179 72l-40 -59h-66l72 107c-26 50 -40 119 -40 206v116c0 226 95 326 253 326c73 0 134 -22 177 -70l39 58h66l-71 -105c27 -51 42 -120 42 -209v-116zM508 313v116c0 60 -7 106 -20 142l-308 -457
c34 -51 83 -70 142 -70c107 0 186 65 186 269zM136 313c0 -59 7 -104 19 -139l306 455c-33 49 -82 68 -139 68c-107 0 -186 -65 -186 -268v-116z" />
    <glyph glyph-name="percent.oldstyle" unicode="&#xfe6a;" horiz-adv-x="872" 
d="M812 164c0 -118 -50 -175 -140 -175c-91 0 -139 57 -139 175v10c0 118 48 175 139 175c90 0 140 -56 140 -175v-10zM755 164v10c0 98 -33 128 -83 128s-83 -30 -83 -128v-10c0 -98 33 -127 83 -127s83 29 83 127zM642 555l-347 -555h-61l347 555h61zM343 381
c0 -117 -49 -175 -139 -175c-91 0 -140 58 -140 175v10c0 119 49 176 140 176c90 0 139 -57 139 -176v-10zM288 381v10c0 99 -34 128 -84 128s-83 -29 -83 -128v-10c0 -98 33 -127 83 -127s84 29 84 127z" />
    <glyph glyph-name="perthousand.oldstyle" horiz-adv-x="1212" 
d="M1151 164c0 -118 -50 -175 -139 -175c-92 0 -140 57 -140 175v10c0 118 48 175 140 175c89 0 139 -56 139 -175v-10zM1095 164v10c0 98 -34 128 -83 128c-51 0 -84 -30 -84 -128v-10c0 -98 33 -127 84 -127c49 0 83 29 83 127zM812 164c0 -118 -50 -175 -140 -175
c-91 0 -139 57 -139 175v10c0 118 48 175 139 175c90 0 140 -56 140 -175v-10zM755 164v10c0 98 -33 128 -83 128s-83 -30 -83 -128v-10c0 -98 33 -127 83 -127s83 29 83 127zM642 555l-347 -555h-61l347 555h61zM343 381c0 -117 -49 -175 -139 -175c-91 0 -140 58 -140 175
v10c0 119 49 176 140 176c90 0 139 -57 139 -176v-10zM288 381v10c0 99 -34 128 -84 128s-83 -29 -83 -128v-10c0 -98 33 -127 83 -127s84 29 84 127z" />
    <glyph glyph-name="zero.taboldstyle" horiz-adv-x="641" 
d="M573 257c0 -175 -95 -270 -253 -270s-252 95 -252 270v41c0 174 94 269 252 269s253 -95 253 -269v-41zM506 257v41c0 154 -78 211 -186 211c-107 0 -185 -57 -185 -211v-41c0 -153 78 -212 185 -212c108 0 186 59 186 212z" />
    <glyph glyph-name="one.taboldstyle" horiz-adv-x="641" 
d="M514 0h-386v56l161 3v433l-162 -56v64l178 63h51v-504l158 -3v-56z" />
    <glyph glyph-name="two.taboldstyle" horiz-adv-x="641" 
d="M101 493v53c51 13 137 21 200 21c181 0 249 -52 249 -157c0 -101 -61 -162 -254 -286l-99 -64h348v-60h-454v60l165 105c178 113 227 166 227 245c0 73 -57 99 -186 99c-56 0 -144 -8 -196 -16z" />
    <glyph glyph-name="three.taboldstyle" horiz-adv-x="641" 
d="M545 9c0 -148 -84 -210 -254 -210c-77 0 -167 15 -196 21v51c36 -5 123 -14 195 -14c133 0 188 40 188 152v28c0 67 -13 134 -136 134h-220v56h220c122 0 136 67 136 136v14c0 95 -42 132 -188 132c-70 0 -148 -7 -193 -12v52c18 4 117 18 194 18c178 0 254 -53 254 -190
v-14c0 -70 -23 -136 -100 -164c79 -29 100 -94 100 -162v-28z" />
    <glyph glyph-name="four.taboldstyle" horiz-adv-x="641" 
d="M593 20h-119v-207h-67v207h-360v68l350 469h77v-479h119v-58zM407 78v390l-292 -390h292z" />
    <glyph glyph-name="five.taboldstyle" horiz-adv-x="641" 
d="M552 20c0 -152 -81 -218 -262 -218c-91 0 -177 16 -202 21v54c41 -6 122 -17 201 -17c150 0 197 48 197 160v27c0 116 -55 151 -205 151h-177l32 359h387v-60h-330l-22 -241h113c180 0 268 -55 268 -209v-27z" />
    <glyph glyph-name="six.taboldstyle" horiz-adv-x="641" 
d="M572 221c0 -189 -139 -234 -246 -234c-138 0 -257 48 -257 297v192c0 179 64 279 271 279c83 0 174 -15 202 -21v-52c-39 5 -128 15 -201 15c-177 0 -205 -85 -205 -220v-47c59 16 139 26 191 26c122 0 245 -30 245 -199v-36zM505 221v34c0 125 -77 146 -180 146
c-48 0 -121 -5 -189 -23v-99c0 -183 75 -234 190 -234c102 0 179 52 179 176z" />
    <glyph glyph-name="seven.taboldstyle" horiz-adv-x="641" 
d="M554 487l-329 -673h-74l339 683h-402v60h466v-70z" />
    <glyph glyph-name="eight.taboldstyle" horiz-adv-x="641" 
d="M578 211c0 -196 -112 -224 -256 -224h-5c-144 0 -256 29 -256 225v7c0 87 29 141 94 168c-62 25 -91 82 -91 160v10c0 157 110 197 253 197h5c143 0 253 -40 253 -197v-10c0 -79 -29 -135 -91 -160c65 -27 94 -81 94 -167v-9zM511 211v9c0 86 -26 138 -120 138h-143
c-94 0 -120 -53 -120 -139v-7c0 -140 69 -168 189 -168h5c120 0 189 28 189 167zM509 547v10c0 112 -69 140 -187 140h-5c-118 0 -187 -28 -187 -140v-10c0 -74 24 -131 118 -131h143c94 0 118 56 118 131z" />
    <glyph glyph-name="nine.taboldstyle" horiz-adv-x="641" 
d="M572 78c0 -180 -64 -279 -271 -279c-83 0 -174 15 -202 20v53c39 -5 129 -15 200 -15c178 0 206 85 206 219v48c-59 -17 -139 -26 -192 -26c-122 0 -244 30 -244 199v36c0 188 139 234 246 234c137 0 257 -48 257 -297v-192zM505 176v99c0 183 -75 234 -190 234
c-102 0 -180 -52 -180 -176v-34c0 -125 78 -146 181 -146c48 0 120 5 189 23z" />
    <glyph glyph-name="colonmonetary.taboldstyle" horiz-adv-x="548" 
d="M459 551v-55c-37 6 -82 10 -131 10c-114 0 -166 -50 -166 -187v-84c0 -138 50 -187 166 -187c41 0 84 3 131 9v-53c-21 -5 -43 -8 -64 -10v-105h-54v100h-20c-20 0 -38 2 -55 4v-104h-54v121c-78 32 -116 105 -116 225v84c0 118 39 192 116 225v119h54v-103
c16 4 38 6 57 6h18v97h54v-102c24 -2 43 -6 64 -10z" />
    <glyph glyph-name="Euro.taboldstyle" horiz-adv-x="561" 
d="M347 507c-95 0 -146 -29 -159 -141h254l-14 -48h-242c-1 -30 -1 -58 0 -86h221l-13 -48h-206c11 -108 63 -140 161 -140c41 0 94 3 133 8v-52c-36 -7 -92 -13 -136 -13c-134 0 -207 45 -223 197h-52v48h50c-1 28 -1 56 0 86h-50v48h52c15 156 90 200 221 200
c46 0 102 -7 138 -14v-54c-48 5 -96 9 -135 9z" />
    <glyph glyph-name="florin.taboldstyle" horiz-adv-x="601" 
d="M518 576l-5 -48c-23 2 -46 4 -68 4c-52 0 -75 -13 -85 -88l-16 -120h149l-7 -51h-149l-29 -224c-14 -106 -53 -140 -140 -140c-30 0 -61 4 -82 8l7 49c27 -2 45 -4 70 -4c56 0 71 23 82 91l28 220h-128l7 51h129l16 125c14 105 59 135 142 135c29 0 59 -4 79 -8z" />
    <glyph glyph-name="numbersign.taboldstyle" horiz-adv-x="606" 
d="M520 157h-106l-16 -157h-57l17 157h-140l-16 -157h-56l16 157h-71v51h77l17 161h-94v51h100l18 163h55l-17 -163h139l18 163h56l-18 -163h78v-51h-84l-17 -161h101v-51zM380 369h-139l-18 -161h141z" />
    <glyph glyph-name="sterling.taboldstyle" horiz-adv-x="561" 
d="M474 552v-55c-54 6 -103 9 -134 9c-99 0 -126 -30 -126 -137v-57h198v-55h-198v-99c0 -45 -8 -72 -30 -100h290v-58h-364v50c32 34 40 65 40 108v99h-64v55h64v57c0 137 43 196 182 196c49 0 98 -5 142 -13z" />
    <glyph glyph-name="yen.taboldstyle" horiz-adv-x="569" 
d="M316 0h-64v181h-196v49h192l-46 84h-146v48h121l-100 192h72l99 -193c13 -25 25 -51 35 -76h2c11 26 23 52 36 77l99 192h70l-100 -192h124v-48h-148l-46 -84h194v-49h-198v-181z" />
    <glyph glyph-name="dollar.taboldstyle" horiz-adv-x="554" 
d="M102 7v50c35 -4 96 -11 169 -11c85 0 127 33 127 91c0 50 -24 74 -107 109l-66 29c-89 37 -134 77 -134 155c0 79 53 124 160 133v101h59v-99c55 -3 110 -11 136 -17v-51c-28 3 -90 12 -159 12c-82 0 -131 -19 -131 -78c0 -47 25 -71 100 -102l67 -29
c98 -40 141 -78 141 -162c0 -78 -50 -136 -157 -146v-101h-59v98c-58 2 -117 10 -146 18z" />
    <glyph glyph-name="cent.taboldstyle" horiz-adv-x="549" 
d="M458 551v-51c-53 5 -87 8 -133 8c-115 0 -166 -52 -166 -188v-86c0 -137 50 -188 166 -188c42 0 86 3 133 10v-52c-38 -8 -79 -13 -116 -14v-110h-59v111c-129 14 -189 92 -189 243v86c0 148 61 229 189 243v110h60v-109c36 -1 77 -6 115 -13z" />
    <glyph glyph-name="zero.denominator" horiz-adv-x="447" 
d="M392 191c0 -137 -64 -200 -169 -200s-168 64 -168 200v58c0 136 63 199 168 199s169 -63 169 -199v-58zM332 190v59c0 118 -47 150 -109 150c-61 0 -108 -32 -108 -150v-59c0 -117 47 -149 108 -149c62 0 109 32 109 149z" />
    <glyph glyph-name="one.denominator" horiz-adv-x="379" 
d="M326 0h-272v44l105 2v340l-106 -34v49l122 42h44v-397l107 -2v-44z" />
    <glyph glyph-name="two.denominator" horiz-adv-x="421" 
d="M65 394v41c22 5 83 13 137 13c106 0 160 -29 160 -106c0 -59 -27 -94 -124 -142c-103 -51 -120 -72 -120 -147v-5h238v-48h-298v44c0 104 33 139 144 194c89 43 100 62 100 103c0 47 -32 62 -106 62c-45 0 -103 -6 -131 -9z" />
    <glyph glyph-name="three.denominator" horiz-adv-x="416" 
d="M60 394v42c17 3 79 12 130 12c112 0 168 -28 168 -113v-6c0 -41 -16 -84 -64 -102c50 -16 64 -57 64 -98v-8c0 -92 -54 -130 -168 -130c-53 0 -116 9 -130 13v41c23 -2 78 -8 125 -8c78 0 113 19 113 86v8c0 41 -10 74 -85 74h-135v45h136c74 0 84 38 84 77v6
c0 51 -28 69 -112 69c-45 0 -102 -6 -126 -8z" />
    <glyph glyph-name="four.denominator" horiz-adv-x="447" 
d="M329 0h-60v117h-225v49l227 275h58v-279h72v-45h-72v-117zM271 162v210l-170 -210h170z" />
    <glyph glyph-name="five.denominator" horiz-adv-x="422" 
d="M346 394h-209l-13 -129h69c116 0 171 -31 171 -127v-9c0 -98 -59 -138 -174 -138c-58 0 -111 9 -132 14v42c37 -5 79 -10 126 -10c89 0 119 26 119 91v10c0 65 -31 82 -118 82h-119l21 221h259v-47z" />
    <glyph glyph-name="six.denominator" horiz-adv-x="443" 
d="M366 435v-43c-32 4 -84 9 -131 9c-102 0 -120 -45 -121 -121v-22c37 9 83 14 113 14c83 0 160 -18 160 -120v-21c0 -108 -83 -140 -162 -140c-101 0 -170 38 -170 180v104c0 112 42 173 176 173c56 0 110 -8 135 -13zM327 131v20c0 68 -44 79 -104 79
c-27 0 -67 -2 -109 -12v-53c0 -104 46 -129 111 -129c58 0 102 27 102 95z" />
    <glyph glyph-name="seven.denominator" horiz-adv-x="412" 
d="M57 394v47h303v-54l-208 -387h-66l215 394h-244z" />
    <glyph glyph-name="eight.denominator" horiz-adv-x="455" 
d="M401 123c0 -116 -79 -132 -175 -132c-93 0 -172 16 -172 132v7c0 49 21 82 59 99c-37 17 -57 50 -57 97v6c0 95 77 116 173 116c93 0 170 -21 170 -116v-6c0 -46 -20 -80 -56 -97c37 -17 58 -50 58 -99v-7zM341 124v6c0 48 -17 78 -71 78h-84c-55 0 -72 -30 -72 -78v-6
c0 -74 44 -89 115 -89c68 0 112 15 112 89zM340 325v6c0 59 -44 73 -114 73c-67 0 -111 -14 -111 -73v-6c0 -42 16 -74 71 -74h84c54 0 70 33 70 74z" />
    <glyph glyph-name="nine.denominator" horiz-adv-x="443" 
d="M76 4v43c25 -3 83 -9 131 -9c102 0 121 46 121 121v23c-36 -9 -82 -14 -113 -14c-82 0 -160 18 -160 120v21c0 108 84 139 164 139c99 0 168 -37 168 -179v-104c0 -111 -42 -174 -176 -174c-55 0 -111 9 -135 13zM328 222v53c0 104 -45 129 -110 129
c-58 0 -103 -27 -103 -95v-20c0 -68 44 -79 104 -79c27 0 68 2 109 12z" />
    <glyph glyph-name="comma.denominator" horiz-adv-x="208" 
d="M157 88l-62 -143h-51l51 143h62z" />
    <glyph glyph-name="period.denominator" horiz-adv-x="166" 
d="M112 0h-57v88h57v-88z" />
    <glyph glyph-name="cent.denominator" horiz-adv-x="368" 
d="M222 397c-86 0 -117 -40 -117 -147v-56c0 -107 28 -148 117 -148c35 0 71 2 100 5v-47c-25 -5 -59 -9 -89 -10v-76h-52v79c-84 12 -135 65 -135 197v56c0 120 45 184 135 196v74h52v-72c30 -1 64 -5 89 -9v-48c-33 3 -71 6 -100 6z" />
    <glyph glyph-name="dollar.denominator" horiz-adv-x="393" 
d="M57 5v47c27 -3 76 -9 130 -9c65 0 99 22 99 70c0 38 -21 54 -75 78l-62 27c-61 26 -104 54 -104 121c0 71 52 102 125 108v75h54v-73c46 -2 92 -8 109 -12v-47c-34 4 -91 9 -129 9c-55 0 -98 -13 -98 -58c0 -35 23 -54 70 -73l63 -25c70 -28 108 -61 108 -126
c0 -76 -51 -114 -123 -122v-76h-54v74c-43 1 -89 7 -113 12z" />
    <glyph glyph-name="hyphen.denominator" horiz-adv-x="262" 
d="M207 169h-152v46h152v-46z" />
    <glyph glyph-name="parenleft.denominator" horiz-adv-x="250" 
d="M204 -78h-58c-38 46 -87 137 -87 261v4c0 124 50 216 88 263h59c-47 -63 -86 -146 -86 -263v-4c0 -116 38 -198 84 -261z" />
    <glyph glyph-name="parenright.denominator" horiz-adv-x="250" 
d="M190 183c0 -124 -50 -215 -87 -261h-59c47 63 85 145 85 261v4c0 117 -39 200 -86 263h59c38 -47 88 -139 88 -263v-4z" />
    <glyph glyph-name="zero.numerator" horiz-adv-x="451" 
d="M396 498c0 -137 -64 -200 -169 -200s-168 64 -168 200v58c0 136 63 199 168 199s169 -63 169 -199v-58zM336 497v59c0 118 -47 150 -109 150c-61 0 -108 -32 -108 -150v-59c0 -117 47 -149 108 -149c62 0 109 32 109 149z" />
    <glyph glyph-name="one.numerator" horiz-adv-x="387" 
d="M334 307h-273v44l106 2v340l-107 -34v49l122 42h45v-397l107 -2v-44z" />
    <glyph glyph-name="two.numerator" horiz-adv-x="421" 
d="M66 701v41c21 4 83 13 137 13c106 0 160 -30 160 -106c0 -60 -27 -94 -124 -142c-103 -51 -121 -72 -121 -147v-6h239v-47h-298v44c0 103 33 139 144 193c89 44 100 62 100 104c0 46 -33 61 -106 61c-46 0 -103 -5 -131 -8z" />
    <glyph glyph-name="three.numerator" horiz-adv-x="417" 
d="M191 298c-52 0 -115 9 -130 12v42c24 -2 79 -8 125 -8c79 0 113 19 113 85v8c0 41 -10 75 -85 75h-135v45h136c75 0 84 38 84 77v5c0 52 -27 70 -112 70c-44 0 -101 -6 -126 -8v41c17 4 79 13 130 13c112 0 168 -28 168 -113v-6c0 -42 -16 -84 -63 -102
c49 -17 63 -57 63 -98v-8c0 -92 -53 -130 -168 -130z" />
    <glyph glyph-name="four.numerator" horiz-adv-x="449" 
d="M329 307h-60v117h-225v49l227 275h58v-279h72v-45h-72v-117zM271 469v210l-170 -210h170z" />
    <glyph glyph-name="five.numerator" horiz-adv-x="423" 
d="M347 701h-209l-12 -129h68c116 0 171 -31 171 -127v-9c0 -98 -58 -138 -173 -138c-59 0 -112 9 -132 14v42c37 -5 79 -10 125 -10c89 0 119 26 119 91v10c0 65 -31 82 -117 82h-119l20 221h259v-47z" />
    <glyph glyph-name="six.numerator" horiz-adv-x="447" 
d="M366 742v-43c-32 4 -84 9 -131 9c-102 0 -120 -45 -121 -121v-22c37 9 83 14 113 14c83 0 160 -18 160 -120v-21c0 -108 -83 -140 -162 -140c-101 0 -170 38 -170 180v104c0 112 42 173 176 173c56 0 110 -8 135 -13zM327 438v20c0 68 -44 79 -104 79
c-27 0 -67 -2 -109 -12v-53c0 -104 46 -129 111 -129c58 0 102 27 102 95z" />
    <glyph glyph-name="seven.numerator" horiz-adv-x="414" 
d="M59 701v47h303v-54l-208 -387h-66l215 394h-244z" />
    <glyph glyph-name="eight.numerator" horiz-adv-x="462" 
d="M401 429c0 -116 -79 -132 -175 -132c-93 0 -172 16 -172 132v7c0 49 21 82 59 99c-37 17 -57 50 -57 97v6c0 95 77 116 173 116c93 0 170 -21 170 -116v-6c0 -46 -20 -80 -56 -97c37 -17 58 -50 58 -99v-7zM341 430v6c0 48 -17 78 -71 78h-84c-55 0 -72 -30 -72 -78v-6
c0 -74 44 -89 115 -89c68 0 112 15 112 89zM340 631v6c0 59 -44 73 -114 73c-67 0 -111 -14 -111 -73v-6c0 -42 16 -74 71 -74h84c54 0 70 33 70 74z" />
    <glyph glyph-name="nine.numerator" horiz-adv-x="447" 
d="M76 311v43c25 -3 83 -9 131 -9c102 0 121 46 121 121v23c-36 -9 -82 -14 -113 -14c-82 0 -160 18 -160 120v21c0 108 84 139 164 139c99 0 168 -37 168 -179v-104c0 -111 -42 -174 -176 -174c-55 0 -111 9 -135 13zM328 529v53c0 104 -45 129 -110 129
c-58 0 -103 -27 -103 -95v-20c0 -68 44 -79 104 -79c27 0 68 2 109 12z" />
    <glyph glyph-name="comma.numerator" horiz-adv-x="208" 
d="M157 393l-62 -143h-51l51 143h62z" />
    <glyph glyph-name="period.numerator" horiz-adv-x="166" 
d="M112 304h-57v89h57v-89z" />
    <glyph glyph-name="cent.numerator" horiz-adv-x="368" 
d="M322 308c-26 -5 -60 -9 -90 -10v-76h-51v79c-85 12 -136 65 -136 197v56c0 120 45 184 136 196v74h51v-72c30 -1 64 -5 90 -9v-48c-33 3 -72 6 -101 6c-85 0 -117 -40 -117 -147v-56c0 -107 29 -148 117 -148c35 0 72 2 101 5v-47z" />
    <glyph glyph-name="dollar.numerator" horiz-adv-x="393" 
d="M56 312v46c27 -2 76 -8 130 -8c65 0 99 22 99 70c0 38 -21 53 -75 77l-62 27c-61 27 -104 55 -104 122c0 70 52 101 125 108v75h54v-74c46 -1 92 -7 109 -11v-47c-34 4 -91 9 -129 9c-55 0 -98 -13 -98 -59c0 -34 22 -55 70 -73l63 -24c71 -27 108 -61 108 -127
c0 -76 -51 -113 -123 -121v-77h-54v74c-43 1 -89 8 -113 13z" />
    <glyph glyph-name="hyphen.numerator" horiz-adv-x="262" 
d="M207 474h-152v46h152v-46z" />
    <glyph glyph-name="parenleft.numerator" horiz-adv-x="250" 
d="M205 234h-59c-37 46 -87 137 -87 265c0 124 50 216 88 263h59c-46 -64 -86 -146 -86 -263c0 -120 39 -202 85 -265z" />
    <glyph glyph-name="parenright.numerator" horiz-adv-x="250" 
d="M190 494c0 -123 -49 -214 -87 -260h-58c46 63 84 145 84 260v5c0 117 -39 199 -86 263h59c38 -47 88 -139 88 -263v-5z" />
    <glyph glyph-name="parenleft.cap" horiz-adv-x="278" 
d="M234 0h-59c-55 73 -115 214 -115 374v5c0 159 60 297 115 372h59c-67 -96 -113 -223 -113 -372v-5c0 -151 46 -279 113 -374z" />
    <glyph glyph-name="parenright.cap" horiz-adv-x="278" 
d="M227 374c0 -160 -59 -301 -115 -374h-58c66 95 112 223 112 374v5c0 149 -46 276 -112 372h58c56 -75 115 -213 115 -372v-5z" />
    <glyph glyph-name="bracketleft.cap" horiz-adv-x="331" 
d="M273 0h-179v743h179v-53h-118v-638h118v-52z" />
    <glyph glyph-name="bracketright.cap" horiz-adv-x="331" 
d="M244 0h-178v52h118v638h-118v53h178v-743z" />
    <glyph glyph-name="braceleft.cap" horiz-adv-x="354" 
d="M302 0h-43c-125 0 -144 50 -144 129v97c0 66 -12 88 -62 123v45c50 35 62 57 62 123v96c0 81 19 130 144 130h43v-54h-43c-75 0 -83 -21 -83 -76v-96c0 -72 -17 -110 -67 -146c50 -36 68 -73 68 -145v-97c0 -55 7 -76 82 -76h43v-53z" />
    <glyph glyph-name="braceright.cap" horiz-adv-x="354" 
d="M297 349c-49 -35 -61 -57 -61 -123v-97c0 -79 -20 -129 -145 -129h-42v53h42c75 0 82 21 82 76v97c0 72 19 109 68 145c-50 36 -67 74 -67 146v96c0 55 -8 76 -83 76h-42v54h42c125 0 145 -49 145 -130v-96c0 -66 12 -88 61 -123v-45z" />
    <glyph glyph-name="exclamdown.cap" horiz-adv-x="231" 
d="M82 743h67v-127h-67v127zM145 552l6 -574h-71l7 574h58z" />
    <glyph glyph-name="questiondown.cap" horiz-adv-x="453" 
d="M267 -33c-123 0 -202 38 -202 154v6c0 68 22 115 103 194c93 92 101 119 101 190v39h64v-39c0 -81 -11 -126 -105 -217c-79 -75 -96 -109 -96 -167v-6c0 -78 53 -96 140 -96c44 0 99 6 152 12v-50c-49 -12 -106 -20 -157 -20zM333 613h-66v130h66v-130z" />
    <glyph glyph-name="guillemotleft.cap" horiz-adv-x="613" 
d="M215 186l-159 207l159 206h78l-156 -206l156 -207h-78zM318 393l161 206h78l-158 -206l158 -207h-78z" />
    <glyph glyph-name="guillemotright.cap" horiz-adv-x="613" 
d="M557 393l-159 -207h-78l156 207l-156 206h78zM134 599l161 -206l-161 -207h-78l158 207l-158 206h78z" />
    <glyph glyph-name="guilsinglleft.cap" horiz-adv-x="350" 
d="M294 186h-78l-160 207l160 206h78l-157 -206z" />
    <glyph glyph-name="guilsinglright.cap" horiz-adv-x="350" 
d="M295 393l-161 -207h-78l158 207l-158 206h78z" />
    <glyph glyph-name="hyphen.cap" horiz-adv-x="365" 
d="M295 367h-226v56h226v-56z" />
    <glyph glyph-name="endash.cap" horiz-adv-x="472" 
d="M404 333h-337v56h337v-56z" />
    <glyph glyph-name="emdash.cap" horiz-adv-x="628" 
d="M562 333h-495v56h495v-56z" />
    <glyph glyph-name="periodcentered.cap" horiz-adv-x="224" 
d="M145 329h-66v130h66v-130z" />
    <glyph glyph-name="at.cap" horiz-adv-x="823" 
d="M771 478c0 -176 -79 -319 -349 -319c-136 0 -193 47 -193 153c0 18 2 52 4 74c16 156 88 197 192 197c47 0 99 -6 146 -18l-35 -343c134 28 183 128 183 256c0 148 -83 231 -268 231c-183 0 -285 -80 -325 -272c-11 -47 -17 -101 -17 -158c0 -154 79 -243 272 -243
c70 0 148 7 167 10v-39c-27 -4 -98 -14 -167 -14c-221 0 -324 105 -324 287c0 58 6 115 17 163c42 213 161 311 377 311c220 0 320 -107 320 -276zM504 523c-20 3 -54 6 -78 6c-69 0 -119 -21 -132 -144c-3 -35 -5 -56 -5 -73c0 -77 38 -102 132 -102c23 0 35 1 52 2z" />
    <glyph glyph-name="T_h" horiz-adv-x="1069" 
d="M992 0h-65v342c0 122 -33 158 -120 158c-64 0 -131 -25 -173 -46v-454h-65v683h-232v-683h-67v683h-240v60h604v-236c41 21 107 50 185 50c123 0 173 -67 173 -213v-344z" />
    <glyph glyph-name="A.alt" horiz-adv-x="643" 
d="M23 0l233 685l-62 4v54h174l251 -743h-71l-87 263h-282l-88 -263h-68zM440 324l-84 249c-13 38 -22 73 -32 115h-7c-10 -41 -20 -77 -32 -115l-86 -249h241z" />
    <glyph glyph-name="B.alt" horiz-adv-x="624" 
d="M85 0v683l-57 5v55c87 0 150 3 248 3c185 0 289 -36 289 -188v-9c0 -65 -28 -137 -118 -163c91 -26 122 -96 122 -170v-14c0 -164 -115 -206 -295 -206c-87 0 -124 3 -189 4zM502 202v14c0 76 -32 142 -182 142h-168v-300c38 -1 72 -3 122 -3c151 0 228 30 228 147z
M498 549v9c0 110 -75 128 -222 128c-49 0 -83 -1 -124 -2v-268h168c149 0 178 63 178 133z" />
    <glyph glyph-name="C.alt" horiz-adv-x="550" 
d="M520 58v-56c-25 -4 -96 -15 -173 -15c-177 0 -292 80 -292 342v85c0 261 115 341 292 341c76 0 149 -11 173 -16v-129h-53l-7 80c-30 2 -71 5 -113 5c-153 0 -225 -74 -225 -281v-85c0 -207 72 -282 225 -282c66 0 132 7 173 11z" />
    <glyph glyph-name="D.alt" horiz-adv-x="659" 
d="M85 -1v684l-57 5v55c91 0 155 3 257 3c223 0 319 -115 319 -330v-88c0 -215 -91 -332 -319 -332c-86 0 -126 2 -200 3zM537 328v88c0 201 -88 270 -257 270c-45 0 -88 -1 -128 -2v-625c37 -2 85 -4 128 -4c169 0 257 72 257 273z" />
    <glyph glyph-name="E.alt" horiz-adv-x="568" 
d="M513 683h-361v-265h337v-61h-337v-298h361v-59h-428v685l-57 3v55h485v-60z" />
    <glyph glyph-name="F.alt" horiz-adv-x="558" 
d="M85 0v685l-57 3v55h485v-60h-361v-265h337v-61h-337v-357h-67z" />
    <glyph glyph-name="G.alt" horiz-adv-x="619" 
d="M554 5c-44 -7 -122 -18 -206 -18c-170 0 -293 84 -293 339v91c0 266 134 338 293 338c97 0 185 -14 206 -17v-130h-53l-7 80c-35 3 -88 7 -137 7c-142 0 -235 -54 -235 -278v-91c0 -214 87 -278 234 -278c43 0 92 1 131 5v272l-115 5v53h182v-378z" />
    <glyph glyph-name="H.alt" horiz-adv-x="708" 
d="M623 0h-67v365h-404v-365h-67v685l-57 3v55h124v-317h404v317h67v-743z" />
    <glyph glyph-name="I.alt" horiz-adv-x="240" 
d="M210 0h-180v54l57 3v628l-57 3v55h180v-55l-56 -3v-628l56 -3v-54z" />
    <glyph glyph-name="J.alt" horiz-adv-x="240" 
d="M210 688l-57 -3v-741c0 -101 -27 -157 -139 -157c-23 0 -55 4 -69 7v51c23 -1 43 -1 65 -1c71 0 77 33 77 100v741l-57 3v55h180v-55z" />
    <glyph glyph-name="K.alt" horiz-adv-x="601" 
d="M586 0h-92l-337 364v-364h-67v685l-57 3v55h124v-353l341 353h87l-353 -365z" />
    <glyph glyph-name="M.alt" horiz-adv-x="791" 
d="M706 0h-66v539c0 44 2 74 4 116h-2c-16 -35 -33 -66 -50 -99l-155 -292h-84l-153 292c-16 33 -33 66 -50 99h-2c2 -42 3 -71 3 -116v-539h-66v685l-57 3v55h145l177 -341c15 -29 30 -60 44 -89h2c14 30 30 61 44 90l179 340h87v-743z" />
    <glyph glyph-name="N.alt" horiz-adv-x="692" 
d="M607 -1h-95l-313 577c-17 32 -36 68 -53 104h-1c2 -41 3 -85 3 -128v-552h-63v685l-57 3v55h152l314 -571c16 -30 35 -69 51 -102h1c-2 47 -3 92 -3 130v543h64v-744z" />
    <glyph glyph-name="P.alt" horiz-adv-x="590" 
d="M150 0h-67v685l-56 3v55c80 0 150 4 235 4c175 0 288 -44 288 -214v-13c0 -170 -114 -218 -290 -218c-34 0 -59 0 -110 1v-303zM150 362c33 -1 74 -1 110 -1c151 0 223 36 223 159v13c-1 123 -71 154 -221 154c-46 0 -91 -2 -112 -3v-322z" />
    <glyph glyph-name="Q.alt" horiz-adv-x="671" 
d="M616 332c0 -221 -92 -329 -247 -343v-173h-66v173c-156 14 -248 121 -248 343v78c0 235 103 345 281 345c177 0 280 -110 280 -345v-78zM549 332v78c0 215 -89 285 -213 285c-125 0 -214 -70 -214 -285v-78c0 -215 90 -285 214 -285s213 70 213 285z" />
    <glyph glyph-name="R.alt" horiz-adv-x="622" 
d="M595 0h-79l-185 303c-22 -1 -50 -1 -70 -1c-37 0 -79 0 -109 1v-303h-67v685l-57 3v55c71 0 141 4 231 4c175 0 293 -46 293 -215v-8c0 -120 -53 -180 -150 -207zM484 524v8c0 122 -74 155 -225 155c-38 0 -64 -2 -107 -3v-322c33 -1 70 -1 109 -1c153 0 223 41 223 163z
" />
    <glyph glyph-name="S.alt" horiz-adv-x="572" 
d="M71 5v54c43 -5 123 -14 206 -14c109 0 172 37 172 138c0 74 -34 107 -132 154l-101 47c-100 47 -161 98 -161 199c0 119 82 172 236 172c83 0 166 -11 201 -18v-128h-52l-9 81c-38 4 -91 6 -138 6c-106 0 -171 -27 -171 -113c0 -68 38 -102 124 -143l101 -46
c115 -55 170 -105 170 -211c0 -129 -81 -196 -240 -196c-87 0 -173 11 -206 18z" />
    <glyph glyph-name="U.alt" horiz-adv-x="683" 
d="M603 319c0 -220 -81 -331 -261 -331c-182 0 -262 111 -262 331v367l-59 3v54h126v-417c0 -196 46 -278 195 -278c147 0 195 83 195 278v417h66v-424z" />
    <glyph glyph-name="Z.alt" horiz-adv-x="604" 
d="M557 59v-59h-510v73l423 610h-348l-6 -74h-53v134h479v-73l-422 -611h437z" />
    <glyph glyph-name="a.alt" horiz-adv-x="531" 
d="M458 0h-63v39c-38 -23 -100 -52 -181 -52c-106 0 -162 48 -162 156v15c0 138 89 166 248 166h92v46c0 106 -23 131 -144 131c-28 0 -59 -1 -102 -4l-6 -61h-51v102c37 7 98 19 164 19c173 0 205 -59 205 -187v-370zM392 87v186h-92c-131 0 -183 -18 -183 -115v-19
c0 -75 42 -101 110 -101s135 30 165 49z" />
    <glyph glyph-name="b.alt" horiz-adv-x="559" 
d="M504 244c0 -185 -75 -257 -237 -257c-54 0 -99 2 -187 12v716l-56 4v54h121v-248c51 24 107 33 149 33c144 0 210 -71 210 -244v-70zM438 244v70c0 141 -43 186 -151 186c-31 0 -96 -6 -142 -28v-421c39 -4 82 -6 123 -6c118 0 170 46 170 199z" />
    <glyph glyph-name="c.alt" horiz-adv-x="466" 
d="M421 4c-36 -8 -86 -17 -149 -17c-149 0 -217 78 -217 255v60c0 175 70 255 217 255c60 0 113 -8 149 -17v-106h-52l-6 61c-33 4 -63 5 -82 5c-103 0 -160 -39 -160 -198v-60c0 -162 56 -199 160 -199c28 0 72 3 140 11v-50z" />
    <glyph glyph-name="d.alt" horiz-adv-x="559" 
d="M479 0h-63v31c-38 -21 -94 -44 -161 -44c-131 0 -200 73 -200 247v67c0 197 88 256 226 256c38 0 79 -3 133 -12v170l-63 3v55h128v-773zM414 83v407c-52 7 -101 11 -129 11c-108 0 -164 -38 -164 -200v-67c0 -137 43 -191 145 -191c57 0 107 20 148 40z" />
    <glyph glyph-name="g.alt" horiz-adv-x="550" 
d="M506 -45c0 -105 -61 -174 -233 -174c-173 0 -229 67 -229 174c0 50 21 94 53 124c-32 17 -47 44 -47 77c0 40 21 70 55 93c-30 31 -42 73 -42 126c0 98 35 182 213 182h224v-46l-71 -6c30 -18 56 -61 56 -130c0 -105 -52 -178 -211 -178c-59 0 -101 9 -130 25
c-23 -16 -36 -35 -36 -60c0 -29 16 -43 54 -43h109c152 0 235 -26 235 -164zM442 -44c0 86 -35 109 -171 109h-119c-25 -22 -43 -55 -43 -109c0 -76 27 -121 164 -121c133 0 169 45 169 121zM423 375c0 74 -21 129 -149 129c-133 0 -148 -58 -148 -129
c0 -73 21 -126 148 -126s149 53 149 126z" />
    <glyph glyph-name="h.alt" horiz-adv-x="589" 
d="M504 0h-66v342c0 122 -33 158 -120 158c-65 0 -131 -25 -173 -46v-454h-65v715l-56 3v55h121v-266c41 21 106 50 185 50c122 0 174 -67 174 -213v-344z" />
    <glyph glyph-name="i.alt" horiz-adv-x="236" 
d="M151 0h-66v485l-55 3v55h121v-543zM152 649h-67v124h67v-124z" />
    <glyph glyph-name="j.alt" horiz-adv-x="236" 
d="M151 -74c0 -104 -28 -145 -123 -145c-20 0 -49 2 -65 4v49c20 -1 40 -2 59 -2c54 0 63 24 63 94v559l-55 3v55h121v-617zM152 648h-67v125h67v-125z" />
    <glyph glyph-name="k.alt" horiz-adv-x="487" 
d="M473 0h-87l-241 275v-275h-65v715l-55 3v55h120v-478l240 248h86l-253 -257z" />
    <glyph glyph-name="l.alt" horiz-adv-x="232" 
d="M149 0h-65v715l-56 3v55h121v-773z" />
    <glyph glyph-name="m.alt" horiz-adv-x="835" 
d="M759 0h-66v363c0 86 -7 137 -95 137c-42 0 -98 -18 -153 -51c5 -25 7 -51 7 -86v-363h-66v363c0 88 -5 137 -90 137c-47 0 -103 -23 -151 -51v-449h-65v485l-56 3v55h121v-43c51 35 108 57 165 57c65 0 101 -23 121 -61c64 43 125 61 175 61c146 0 153 -103 153 -194
v-363z" />
    <glyph glyph-name="n.alt" 
d="M504 0h-66v344c0 116 -25 156 -112 156c-52 0 -113 -20 -181 -52v-448h-65v485l-55 3v55h120v-44c60 32 122 58 187 58c140 0 172 -74 172 -213v-344z" />
    <glyph glyph-name="p.alt" horiz-adv-x="560" 
d="M144 -209h-64v694l-56 3v55h118v-39c46 30 109 53 169 53c130 0 193 -73 193 -261v-40c0 -204 -90 -269 -231 -269c-33 0 -81 5 -129 13v-209zM439 256v40c0 152 -40 203 -137 203c-52 0 -101 -18 -158 -46v-398c53 -8 96 -12 129 -12c107 0 166 44 166 213z" />
    <glyph glyph-name="r.alt" horiz-adv-x="361" 
d="M144 0h-64v485l-55 3v55h119v-44c64 46 141 58 204 58v-59c-60 0 -144 -14 -204 -50v-448z" />
    <glyph glyph-name="s.alt" horiz-adv-x="469" 
d="M56 7v52c41 -6 105 -16 173 -16c101 0 133 35 133 89c0 56 -24 74 -122 115l-38 16c-103 43 -153 85 -153 162c0 89 63 132 194 132c67 0 139 -11 165 -19v-103h-52l-7 59c-29 3 -74 6 -103 6c-90 0 -131 -16 -131 -75c0 -51 29 -72 113 -108l38 -16
c121 -52 162 -86 162 -168c0 -75 -45 -146 -197 -146c-73 0 -148 13 -175 20z" />
    <glyph glyph-name="u.alt" 
d="M435 543h65v-543h-65v44c-66 -34 -128 -57 -193 -57c-133 0 -165 83 -165 212v286l-56 3v55h120v-344c0 -116 26 -156 113 -156c54 0 114 21 181 53v447z" />
    <glyph glyph-name="y.alt" horiz-adv-x="582" 
d="M502 -20c0 -129 -42 -199 -209 -199c-74 0 -155 11 -189 16v49c58 -5 126 -9 189 -9c119 0 143 40 143 143v27c-23 -7 -78 -20 -129 -20c-151 0 -230 66 -230 250v306h65v-306c0 -146 48 -194 166 -194c50 0 105 12 129 19v481h65v-563z" />
    <glyph glyph-name="z.alt" horiz-adv-x="479" 
d="M433 54v-54h-391v72l319 416h-249l-6 -53h-52v108h378v-67l-323 -422h324z" />
    <glyph glyph-name="a.alt2" horiz-adv-x="559" 
d="M479 0h-63v31c-38 -21 -94 -44 -161 -44c-132 0 -200 84 -200 246v69c0 196 87 255 229 255c46 0 122 -3 195 -13v-544zM414 83v412c-51 4 -105 6 -129 6c-108 0 -165 -38 -165 -199v-69c0 -125 44 -190 146 -190c56 0 107 19 148 40z" />
    <glyph glyph-name="u.alt2" horiz-adv-x="577" 
d="M500 259c0 -175 -52 -272 -212 -272c-157 0 -212 97 -212 272v284h65v-284c0 -146 35 -215 147 -215s147 69 147 215v284h65v-284z" />
    <glyph glyph-name="Aacute.alt" horiz-adv-x="643" 
d="M478 943l-147 -154h-67l135 154h79zM23 0l233 685l-62 4v54h174l251 -743h-71l-87 263h-282l-88 -263h-68zM440 324l-84 249c-13 38 -22 73 -32 115h-7c-10 -41 -20 -77 -32 -115l-86 -249h241z" />
    <glyph glyph-name="Acircumflex.alt" horiz-adv-x="643" 
d="M500 789h-67l-113 116l-113 -116h-67l138 154h84zM23 0l233 685l-62 4v54h174l251 -743h-71l-87 263h-282l-88 -263h-68zM440 324l-84 249c-13 38 -22 73 -32 115h-7c-10 -41 -20 -77 -32 -115l-86 -249h241z" />
    <glyph glyph-name="Adieresis.alt" horiz-adv-x="643" 
d="M465 809h-60v119h60v-119zM236 928v-119h-61v119h61zM23 0l233 685l-62 4v54h174l251 -743h-71l-87 263h-282l-88 -263h-68zM440 324l-84 249c-13 38 -22 73 -32 115h-7c-10 -41 -20 -77 -32 -115l-86 -249h241z" />
    <glyph glyph-name="Agrave.alt" horiz-adv-x="643" 
d="M385 789h-67l-148 154h80zM23 0l233 685l-62 4v54h174l251 -743h-71l-87 263h-282l-88 -263h-68zM440 324l-84 249c-13 38 -22 73 -32 115h-7c-10 -41 -20 -77 -32 -115l-86 -249h241z" />
    <glyph glyph-name="Aring.alt" horiz-adv-x="643" 
d="M435 890c0 -75 -49 -108 -113 -108c-66 0 -116 33 -116 108s50 108 116 108c64 0 113 -33 113 -108zM390 890c0 51 -32 67 -68 67c-38 0 -70 -16 -70 -67c0 -50 32 -67 70 -67c36 0 68 17 68 67zM23 0l233 685l-62 4v54h174l251 -743h-71l-87 263h-282l-88 -263h-68z
M440 324l-84 249c-13 38 -22 73 -32 115h-7c-10 -41 -20 -77 -32 -115l-86 -249h241z" />
    <glyph glyph-name="Atilde.alt" horiz-adv-x="643" 
d="M510 908c0 -76 -20 -124 -89 -124c-36 0 -63 15 -96 44l-41 39c-25 23 -39 33 -62 33c-37 0 -43 -31 -43 -76v-34h-49v34c0 75 24 123 92 123c37 0 59 -12 92 -41l42 -39c24 -23 40 -35 64 -35c37 0 42 31 42 76v34h48v-34zM23 0l233 685l-62 4v54h174l251 -743h-71
l-87 263h-282l-88 -263h-68zM440 324l-84 249c-13 38 -22 73 -32 115h-7c-10 -41 -20 -77 -32 -115l-86 -249h241z" />
    <glyph glyph-name="Ccedilla.alt" horiz-adv-x="550" 
d="M379 -68l-134 -141h-69l121 141h82zM520 58v-56c-25 -4 -96 -15 -173 -15c-177 0 -292 80 -292 342v85c0 261 115 341 292 341c76 0 149 -11 173 -16v-129h-53l-7 80c-30 2 -71 5 -113 5c-153 0 -225 -74 -225 -281v-85c0 -207 72 -282 225 -282c66 0 132 7 173 11z" />
    <glyph glyph-name="Eacute.alt" horiz-adv-x="568" 
d="M455 943l-147 -154h-67l134 154h80zM513 683h-361v-265h337v-61h-337v-298h361v-59h-428v685l-57 3v55h485v-60z" />
    <glyph glyph-name="Ecircumflex.alt" horiz-adv-x="568" 
d="M471 789h-67l-113 116l-113 -116h-67l138 154h84zM513 683h-361v-265h337v-61h-337v-298h361v-59h-428v685l-57 3v55h485v-60z" />
    <glyph glyph-name="Edieresis.alt" horiz-adv-x="568" 
d="M426 808h-59v119h59v-119zM197 927v-119h-60v119h60zM513 683h-361v-265h337v-61h-337v-298h361v-59h-428v685l-57 3v55h485v-60z" />
    <glyph glyph-name="Egrave.alt" horiz-adv-x="568" 
d="M340 789h-67l-147 154h80zM513 683h-361v-265h337v-61h-337v-298h361v-59h-428v685l-57 3v55h485v-60z" />
    <glyph glyph-name="Eth.alt" horiz-adv-x="659" 
d="M604 328c0 -215 -91 -332 -319 -332c-75 0 -136 2 -200 3v358h-57v59h57v267l-57 5v55c92 0 159 3 257 3c223 0 319 -115 319 -330v-88zM152 357v-298c37 -2 85 -4 128 -4c169 0 257 72 257 273v88c0 201 -88 270 -257 270c-45 0 -88 -1 -128 -2v-268h165v-59h-165z" />
    <glyph glyph-name="Iacute.alt" horiz-adv-x="240" 
d="M263 943l-147 -154h-67l135 154h79zM210 0h-180v54l57 3v628l-57 3v55h180v-55l-56 -3v-628l56 -3v-54z" />
    <glyph glyph-name="Icircumflex.alt" horiz-adv-x="240" 
d="M300 789h-67l-113 116l-113 -116h-67l138 154h84zM210 0h-180v54l57 3v628l-57 3v55h180v-55l-56 -3v-628l56 -3v-54z" />
    <glyph glyph-name="Idieresis.alt" horiz-adv-x="240" 
d="M264 809h-60v119h60v-119zM35 928v-119h-61v119h61zM210 0h-180v54l57 3v628l-57 3v55h180v-55l-56 -3v-628l56 -3v-54z" />
    <glyph glyph-name="Igrave.alt" horiz-adv-x="240" 
d="M195 789h-67l-147 154h79zM210 0h-180v54l57 3v628l-57 3v55h180v-55l-56 -3v-628l56 -3v-54z" />
    <glyph glyph-name="Ntilde.alt" horiz-adv-x="692" 
d="M535 907c0 -75 -20 -123 -89 -123c-36 0 -63 14 -96 44l-41 38c-25 24 -39 34 -62 34c-37 0 -43 -32 -43 -77v-34h-49v34c0 76 24 124 92 124c37 0 59 -13 92 -42l42 -39c24 -23 40 -35 64 -35c37 0 42 31 42 76v34h48v-34zM607 -1h-95l-313 577c-17 32 -36 68 -53 104
h-1c2 -41 3 -85 3 -128v-552h-63v685l-57 3v55h152l314 -571c16 -30 35 -69 51 -102h1c-2 47 -3 92 -3 130v543h64v-744z" />
    <glyph glyph-name="Scaron.alt" horiz-adv-x="572" 
d="M107 943h67l113 -117l113 117h67l-138 -154h-84zM277 -13c-87 0 -173 11 -206 18v54c43 -5 123 -14 206 -14c109 0 172 37 172 138c0 74 -34 107 -132 154l-101 47c-100 47 -161 98 -161 199c0 119 82 172 236 172c83 0 166 -11 201 -18v-128h-52l-9 81
c-38 4 -91 6 -138 6c-106 0 -171 -27 -171 -113c0 -68 38 -102 124 -143l101 -46c115 -55 170 -105 170 -211c0 -129 -81 -196 -240 -196z" />
    <glyph glyph-name="Uacute.alt" horiz-adv-x="683" 
d="M500 943l-147 -154h-67l135 154h79zM603 319c0 -220 -81 -331 -261 -331c-182 0 -262 111 -262 331v367l-59 3v54h126v-417c0 -196 46 -278 195 -278c147 0 195 83 195 278v417h66v-424z" />
    <glyph glyph-name="Ucircumflex.alt" horiz-adv-x="683" 
d="M519 789h-67l-113 116l-113 -116h-67l138 154h84zM603 319c0 -220 -81 -331 -261 -331c-182 0 -262 111 -262 331v367l-59 3v54h126v-417c0 -196 46 -278 195 -278c147 0 195 83 195 278v417h66v-424z" />
    <glyph glyph-name="Udieresis.alt" horiz-adv-x="683" 
d="M484 809h-59v119h59v-119zM255 928v-119h-60v119h60zM603 319c0 -220 -81 -331 -261 -331c-182 0 -262 111 -262 331v367l-59 3v54h126v-417c0 -196 46 -278 195 -278c147 0 195 83 195 278v417h66v-424z" />
    <glyph glyph-name="Ugrave.alt" horiz-adv-x="683" 
d="M388 789h-67l-148 154h80zM603 319c0 -220 -81 -331 -261 -331c-182 0 -262 111 -262 331v367l-59 3v54h126v-417c0 -196 46 -278 195 -278c147 0 195 83 195 278v417h66v-424z" />
    <glyph glyph-name="Zcaron.alt" horiz-adv-x="604" 
d="M129 943h67l112 -117l114 117h67l-138 -154h-84zM557 59v-59h-510v73l423 610h-348l-6 -74h-53v134h479v-73l-422 -611h437z" />
    <glyph glyph-name="aacute.alt" horiz-adv-x="531" 
d="M426 770l-148 -154h-66l134 154h80zM458 0h-63v39c-38 -23 -100 -52 -181 -52c-106 0 -162 48 -162 156v15c0 138 89 166 248 166h92v46c0 106 -23 131 -144 131c-28 0 -59 -1 -102 -4l-6 -61h-51v102c37 7 98 19 164 19c173 0 205 -59 205 -187v-370zM392 87v186h-92
c-131 0 -183 -18 -183 -115v-19c0 -75 42 -101 110 -101s135 30 165 49z" />
    <glyph glyph-name="acircumflex.alt" horiz-adv-x="531" 
d="M454 616h-67l-113 116l-113 -116h-67l138 154h84zM458 0h-63v39c-38 -23 -100 -52 -181 -52c-106 0 -162 48 -162 156v15c0 138 89 166 248 166h92v46c0 106 -23 131 -144 131c-28 0 -59 -1 -102 -4l-6 -61h-51v102c37 7 98 19 164 19c173 0 205 -59 205 -187v-370z
M392 87v186h-92c-131 0 -183 -18 -183 -115v-19c0 -75 42 -101 110 -101s135 30 165 49z" />
    <glyph glyph-name="adieresis.alt" horiz-adv-x="531" 
d="M416 642h-59v119h59v-119zM187 761v-119h-60v119h60zM458 0h-63v39c-38 -23 -100 -52 -181 -52c-106 0 -162 48 -162 156v15c0 138 89 166 248 166h92v46c0 106 -23 131 -144 131c-28 0 -59 -1 -102 -4l-6 -61h-51v102c37 7 98 19 164 19c173 0 205 -59 205 -187v-370z
M392 87v186h-92c-131 0 -183 -18 -183 -115v-19c0 -75 42 -101 110 -101s135 30 165 49z" />
    <glyph glyph-name="agrave.alt" horiz-adv-x="531" 
d="M332 616h-67l-148 154h80zM458 0h-63v39c-38 -23 -100 -52 -181 -52c-106 0 -162 48 -162 156v15c0 138 89 166 248 166h92v46c0 106 -23 131 -144 131c-28 0 -59 -1 -102 -4l-6 -61h-51v102c37 7 98 19 164 19c173 0 205 -59 205 -187v-370zM392 87v186h-92
c-131 0 -183 -18 -183 -115v-19c0 -75 42 -101 110 -101s135 30 165 49z" />
    <glyph glyph-name="ampersand.alt" horiz-adv-x="729" 
d="M668 0h-85l-62 62c-49 -46 -119 -75 -222 -75c-124 0 -236 43 -236 184v6c1 89 40 147 143 202l-10 10c-67 67 -105 113 -105 198v9c0 116 84 159 210 159c128 0 204 -43 204 -159v-9c0 -95 -55 -141 -196 -219l209 -209c35 60 47 139 47 224v19h59v-19
c0 -79 -7 -187 -60 -270l104 -103v-10zM478 106l-228 230c-78 -40 -118 -83 -119 -159v-6c0 -96 79 -127 168 -127c81 0 139 23 179 62zM439 588v8c0 83 -56 101 -138 101c-81 0 -143 -18 -143 -101v-9c0 -67 24 -93 99 -168l8 -8c122 64 174 98 174 177z" />
    <glyph glyph-name="aring.alt" horiz-adv-x="531" 
d="M389 711c0 -75 -49 -108 -114 -108s-116 33 -116 108s51 108 116 108s114 -33 114 -108zM343 711c0 51 -32 67 -68 67c-38 0 -69 -16 -69 -67s31 -67 69 -67c36 0 68 16 68 67zM458 0h-63v39c-38 -23 -100 -52 -181 -52c-106 0 -162 48 -162 156v15c0 138 89 166 248 166
h92v46c0 106 -23 131 -144 131c-28 0 -59 -1 -102 -4l-6 -61h-51v102c37 7 98 19 164 19c173 0 205 -59 205 -187v-370zM392 87v186h-92c-131 0 -183 -18 -183 -115v-19c0 -75 42 -101 110 -101s135 30 165 49z" />
    <glyph glyph-name="atilde.alt" horiz-adv-x="531" 
d="M462 737c0 -75 -20 -123 -89 -123c-36 0 -63 14 -96 44l-41 38c-25 24 -39 34 -62 34c-37 0 -43 -32 -43 -77v-34h-49v34c0 76 24 124 92 124c37 0 59 -13 92 -42l42 -39c24 -23 40 -35 64 -35c37 0 42 31 42 76v34h48v-34zM458 0h-63v39c-38 -23 -100 -52 -181 -52
c-106 0 -162 48 -162 156v15c0 138 89 166 248 166h92v46c0 106 -23 131 -144 131c-28 0 -59 -1 -102 -4l-6 -61h-51v102c37 7 98 19 164 19c173 0 205 -59 205 -187v-370zM392 87v186h-92c-131 0 -183 -18 -183 -115v-19c0 -75 42 -101 110 -101s135 30 165 49z" />
    <glyph glyph-name="ccedilla.alt" horiz-adv-x="466" 
d="M331 -68l-134 -141h-68l121 141h81zM421 4c-36 -8 -86 -17 -149 -17c-149 0 -217 78 -217 255v60c0 175 70 255 217 255c60 0 113 -8 149 -17v-106h-52l-6 61c-33 4 -63 5 -82 5c-103 0 -160 -39 -160 -198v-60c0 -162 56 -199 160 -199c28 0 72 3 140 11v-50z" />
    <glyph glyph-name="dotlessi.alt" horiz-adv-x="236" 
d="M151 0h-66v485l-55 3v55h121v-543z" />
    <glyph glyph-name="iacute.alt" horiz-adv-x="236" 
d="M151 0h-66v485l-55 3v55h121v-543zM266 770l-147 -154h-67l135 154h79z" />
    <glyph glyph-name="icircumflex.alt" horiz-adv-x="236" 
d="M151 0h-66v485l-55 3v55h121v-543zM298 616h-67l-113 116l-113 -116h-67l138 154h84z" />
    <glyph glyph-name="idieresis.alt" horiz-adv-x="236" 
d="M151 0h-66v485l-55 3v55h121v-543zM264 642h-59v119h59v-119zM35 761v-119h-60v119h60z" />
    <glyph glyph-name="igrave.alt" horiz-adv-x="236" 
d="M151 0h-66v485l-55 3v55h121v-543zM180 616h-67l-147 154h79z" />
    <glyph glyph-name="lslash.alt" horiz-adv-x="232" 
d="M221 463l-72 -71v-392h-65v327l-72 -69v80l72 70v307l-56 3v55h121v-301l72 71v-80z" />
    <glyph glyph-name="ntilde.alt" 
d="M484 737c0 -75 -20 -123 -89 -123c-37 0 -64 14 -96 44l-42 38c-24 24 -38 34 -62 34c-36 0 -42 -32 -42 -77v-34h-49v34c0 76 24 124 91 124c37 0 60 -13 92 -42l43 -39c24 -23 39 -35 63 -35c37 0 43 31 43 76v34h48v-34zM504 0h-66v344c0 116 -25 156 -112 156
c-52 0 -113 -20 -181 -52v-448h-65v485l-55 3v55h120v-44c60 32 122 58 187 58c140 0 172 -74 172 -213v-344z" />
    <glyph glyph-name="scaron.alt" horiz-adv-x="469" 
d="M55 770h67l113 -117l113 117h67l-138 -154h-84zM56 7v52c41 -6 105 -16 173 -16c101 0 133 35 133 89c0 56 -24 74 -122 115l-38 16c-103 43 -153 85 -153 162c0 89 63 132 194 132c67 0 139 -11 165 -19v-103h-52l-7 59c-29 3 -74 6 -103 6c-90 0 -131 -16 -131 -75
c0 -51 29 -72 113 -108l38 -16c121 -52 162 -86 162 -168c0 -75 -45 -146 -197 -146c-73 0 -148 13 -175 20z" />
    <glyph glyph-name="uacute.alt" 
d="M455 770l-148 -154h-66l134 154h80zM435 543h65v-543h-65v44c-66 -34 -128 -57 -193 -57c-133 0 -165 83 -165 212v286l-56 3v55h120v-344c0 -116 26 -156 113 -156c54 0 114 21 181 53v447z" />
    <glyph glyph-name="ucircumflex.alt" 
d="M470 616h-67l-114 116l-112 -116h-67l138 154h84zM435 543h65v-543h-65v44c-66 -34 -128 -57 -193 -57c-133 0 -165 83 -165 212v286l-56 3v55h120v-344c0 -116 26 -156 113 -156c54 0 114 21 181 53v447z" />
    <glyph glyph-name="udieresis.alt" 
d="M430 642h-59v119h59v-119zM201 761v-119h-60v119h60zM435 543h65v-543h-65v44c-66 -34 -128 -57 -193 -57c-133 0 -165 83 -165 212v286l-56 3v55h120v-344c0 -116 26 -156 113 -156c54 0 114 21 181 53v447z" />
    <glyph glyph-name="ugrave.alt" 
d="M346 616h-67l-147 154h79zM435 543h65v-543h-65v44c-66 -34 -128 -57 -193 -57c-133 0 -165 83 -165 212v286l-56 3v55h120v-344c0 -116 26 -156 113 -156c54 0 114 21 181 53v447z" />
    <glyph glyph-name="yacute.alt" horiz-adv-x="582" 
d="M502 -20c0 -129 -42 -199 -209 -199c-74 0 -155 11 -189 16v49c58 -5 126 -9 189 -9c119 0 143 40 143 143v27c-23 -7 -78 -20 -129 -20c-151 0 -230 66 -230 250v306h65v-306c0 -146 48 -194 166 -194c50 0 105 12 129 19v481h65v-563zM458 770l-147 -154h-67l134 154
h80z" />
    <glyph glyph-name="ydieresis.alt" horiz-adv-x="582" 
d="M502 -20c0 -129 -42 -199 -209 -199c-74 0 -155 11 -189 16v49c58 -5 126 -9 189 -9c119 0 143 40 143 143v27c-23 -7 -78 -20 -129 -20c-151 0 -230 66 -230 250v306h65v-306c0 -146 48 -194 166 -194c50 0 105 12 129 19v481h65v-563zM441 642h-60v119h60v-119z
M212 761v-119h-61v119h61z" />
    <glyph glyph-name="zcaron.alt" horiz-adv-x="479" 
d="M66 770h67l112 -117l114 117h67l-138 -154h-84zM433 54v-54h-391v72l319 416h-249l-6 -53h-52v108h378v-67l-323 -422h324z" />
    <glyph glyph-name="two.alt" horiz-adv-x="584" 
d="M516 59v-59h-450v72c0 176 60 231 229 324c133 73 162 109 162 185c0 85 -55 116 -188 116c-40 0 -98 -5 -136 -9l-7 -84h-51v130c13 2 114 21 197 21c171 0 252 -53 252 -174c0 -94 -40 -152 -192 -235c-164 -88 -200 -130 -200 -273v-14h384z" />
    <glyph glyph-name="three.alt" horiz-adv-x="584" 
d="M522 196c0 -148 -84 -209 -254 -209c-91 0 -163 14 -196 20v52c37 -3 114 -15 195 -15c133 0 188 40 188 152v29c0 67 -13 133 -136 133h-220v57h220c122 0 136 66 136 135v14c0 96 -42 133 -188 133c-44 0 -99 -3 -134 -6l-7 -85h-52v130c18 4 117 19 194 19
c178 0 254 -53 254 -191v-14c0 -70 -23 -136 -100 -164c79 -28 100 -94 100 -161v-29z" />
    <glyph glyph-name="five.alt" horiz-adv-x="581" 
d="M520 206c0 -152 -81 -219 -262 -219c-87 0 -173 16 -202 23v52c37 -4 123 -17 201 -17c150 0 197 48 197 161v27c0 115 -55 150 -205 150h-177l32 360h387v-137h-52l-7 77h-271l-22 -242h113c180 0 268 -55 268 -208v-27z" />
    <glyph glyph-name="six.alt" horiz-adv-x="626" 
d="M564 221c0 -189 -139 -234 -246 -234c-138 0 -257 48 -257 297v192c0 179 64 279 271 279c83 0 174 -15 202 -21v-128h-53l-7 84c-37 3 -93 7 -141 7c-177 0 -205 -85 -205 -220v-47c59 16 139 26 191 26c122 0 245 -30 245 -199v-36zM497 221v34c0 125 -77 146 -180 146
c-48 0 -121 -5 -189 -23v-99c0 -183 75 -234 190 -234c102 0 179 52 179 176z" />
    <glyph glyph-name="seven.alt" horiz-adv-x="562" 
d="M520 672l-328 -672h-75l340 683h-344l-6 -77h-53v137h466v-71z" />
    <glyph glyph-name="dotlessj" horiz-adv-x="236" 
d="M151 -74c0 -104 -28 -145 -123 -145c-20 0 -49 2 -65 4v49c20 -1 40 -2 59 -2c54 0 63 24 63 94v617h66v-617z" />
    <glyph glyph-name="zero.tab" horiz-adv-x="641" 
d="M574 313c0 -226 -95 -326 -253 -326c-159 0 -253 100 -253 326v116c0 226 94 326 253 326c158 0 253 -100 253 -326v-116zM507 313v116c0 203 -79 268 -186 268s-186 -65 -186 -268v-116c0 -204 79 -269 186 -269s186 65 186 269z" />
    <glyph glyph-name="one.tab" horiz-adv-x="641" 
d="M550 0h-435v55l185 4v620l-185 -55v59l201 65h50v-689l184 -4v-55z" />
    <glyph glyph-name="two.tab" horiz-adv-x="641" 
d="M540 0h-449v72c0 176 59 231 228 324c133 73 163 109 163 185c0 85 -56 116 -189 116c-61 0 -140 -8 -188 -16v53c33 7 114 21 192 21c170 0 252 -53 252 -174c0 -94 -41 -152 -193 -235c-163 -88 -200 -130 -200 -273v-14h384v-59z" />
    <glyph glyph-name="three.tab" horiz-adv-x="641" 
d="M548 196c0 -148 -83 -209 -254 -209c-76 0 -167 14 -196 20v51c36 -4 123 -14 196 -14c133 0 188 40 188 152v29c0 67 -14 133 -137 133h-219v57h219c122 0 137 66 137 135v14c0 96 -43 133 -189 133c-70 0 -148 -8 -193 -13v52c18 4 117 19 194 19
c178 0 255 -53 255 -191v-14c0 -70 -24 -136 -101 -164c79 -28 100 -94 100 -161v-29z" />
    <glyph glyph-name="four.tab" horiz-adv-x="641" 
d="M592 207h-119v-207h-67v207h-360v68l350 469h77v-479h119v-58zM406 265v390l-292 -390h292z" />
    <glyph glyph-name="five.tab" horiz-adv-x="641" 
d="M552 206c0 -152 -81 -219 -262 -219c-91 0 -177 16 -202 22v53c41 -5 122 -17 201 -17c150 0 197 48 197 161v27c0 115 -55 150 -205 150h-177l32 360h387v-60h-330l-22 -242h113c180 0 268 -55 268 -208v-27z" />
    <glyph glyph-name="seven.tab" horiz-adv-x="641" 
d="M557 672l-328 -672h-75l340 683h-403v60h466v-71z" />
    <glyph glyph-name="six.tab" horiz-adv-x="641" 
d="M572 221c0 -189 -140 -234 -247 -234c-137 0 -257 48 -257 297v192c0 179 64 279 271 279c83 0 174 -15 202 -21v-52c-39 5 -128 15 -200 15c-178 0 -206 -85 -206 -220v-47c59 16 139 26 192 26c122 0 245 -30 245 -199v-36zM505 221v34c0 125 -78 146 -181 146
c-48 0 -120 -5 -189 -23v-99c0 -183 76 -234 190 -234c102 0 180 52 180 176z" />
    <glyph glyph-name="eight.tab" horiz-adv-x="641" 
d="M578 211c0 -196 -112 -224 -256 -224h-5c-144 0 -256 29 -256 225v7c0 87 29 141 94 168c-62 25 -91 82 -91 160v10c0 157 110 197 253 197h5c143 0 253 -40 253 -197v-10c0 -79 -29 -135 -91 -160c65 -27 94 -81 94 -167v-9zM511 211v9c0 86 -26 138 -120 138h-143
c-94 0 -120 -53 -120 -139v-7c0 -140 69 -168 189 -168h5c120 0 189 28 189 167zM509 547v10c0 112 -69 140 -187 140h-5c-118 0 -187 -28 -187 -140v-10c0 -74 24 -131 118 -131h143c94 0 118 56 118 131z" />
    <glyph glyph-name="nine.tab" horiz-adv-x="641" 
d="M564 265c0 -179 -64 -279 -271 -279c-83 0 -174 15 -202 21v53c39 -5 129 -16 200 -16c178 0 206 85 206 220v47c-59 -16 -139 -25 -192 -25c-122 0 -244 29 -244 198v37c0 188 139 234 246 234c137 0 257 -48 257 -297v-193zM497 363v99c0 183 -75 235 -190 235
c-102 0 -180 -52 -180 -176v-35c0 -125 78 -146 181 -146c48 0 120 6 189 23z" />
    <glyph glyph-name="uni2215" unicode="&#x2215;" horiz-adv-x="391" 
d="M464 743l-473 -743h-67l474 743h66z" />
    <glyph glyph-name="dieresisacute" horiz-adv-x="452" 
d="M69 643h-59v119h59v-119zM132 616l119 166h80l-132 -166h-67zM447 643h-59v119h59v-119z" />
    <glyph glyph-name="middot" horiz-adv-x="261" 
d="M165 300h-67v138h67v-138z" />
    <glyph glyph-name="dieresisgrave" horiz-adv-x="452" 
d="M447 643h-59v119h59v-119zM206 782l119 -166h-67l-132 166h80zM69 643h-59v119h59v-119z" />
    <glyph glyph-name="threequartersemdash" horiz-adv-x="855" 
d="M792 264h-717v56h717v-56z" />
    <glyph glyph-name="overscore" horiz-adv-x="575" 
d="M580 824h-585v44h585v-44z" />
    <glyph glyph-name="franc.taboldstyle" horiz-adv-x="559" 
d="M207 0h-66v123h-47v52h47v379h331v-61h-265v-176h249v-58h-249v-84h131v-52h-131v-123z" />
    <glyph glyph-name="lira.taboldstyle" horiz-adv-x="563" 
d="M474 549v-56c-43 5 -98 8 -134 8c-100 0 -125 -29 -125 -136v-22h197v-48h-197v-70h197v-48h-197v-21c0 -43 -10 -71 -31 -98h290v-58h-364v50c31 34 39 65 39 106v21h-63v48h63v70h-63v48h63v22c0 138 44 196 183 196c58 0 106 -5 142 -12z" />
    <glyph glyph-name="currency.taboldstyle" horiz-adv-x="615" 
d="M552 125l-47 -47l-77 76c-35 -26 -79 -39 -120 -39c-43 0 -85 12 -122 40l-77 -77l-46 47l76 76c-26 36 -39 80 -39 121c0 43 12 85 39 121l-76 77l46 46l78 -76c35 26 79 40 120 40c43 0 85 -13 122 -40l75 76l48 -46l-77 -77c26 -36 40 -78 40 -121
c0 -42 -13 -85 -39 -121zM459 322c0 84 -68 153 -152 153c-81 0 -150 -68 -150 -153c0 -83 68 -152 150 -152c83 0 150 68 152 152z" />
    <glyph glyph-name="peseta.taboldstyle" horiz-adv-x="532" 
d="M147 0h-64v367h-49v52h49v134c59 6 94 8 156 8c126 0 201 -35 212 -142h49v-52h-49c-11 -107 -87 -149 -215 -149c-24 0 -59 2 -89 4v-222zM388 388v11c0 84 -52 105 -152 105c-27 0 -67 -1 -89 -3v-223c26 -2 67 -3 87 -3c101 0 154 30 154 113z" />
    <glyph glyph-name="undercommaaccent" horiz-adv-x="497" 
d="M295 -68l-95 -141h-61l80 141h76z" />
    <glyph glyph-name="DieresisAcute" horiz-adv-x="452" 
d="M69 822h-59v119h59v-119zM132 795l119 166h80l-132 -166h-67zM447 822h-59v119h59v-119z" />
    <glyph glyph-name="DieresisGrave" horiz-adv-x="452" 
d="M447 822h-59v119h59v-119zM206 961l119 -166h-67l-132 166h80zM69 822h-59v119h59v-119z" />
    <glyph glyph-name="dblGrave" horiz-adv-x="439" 
d="M372 616h-67l-147 154h80zM43 770l135 -154h-67l-148 154h80z" />
    <glyph glyph-name="dblgrave" horiz-adv-x="439" 
d="M372 616h-67l-147 154h80zM43 770l135 -154h-67l-148 154h80z" />
    <glyph glyph-name="T_h.caron" horiz-adv-x="1069" 
d="M349 788h-84l-138 154h67l113 -117l113 117h67zM992 0h-65v342c0 122 -33 158 -120 158c-64 0 -131 -25 -173 -46v-454h-65v683h-232v-683h-67v683h-240v60h604v-236c41 21 107 50 185 50c123 0 173 -67 173 -213v-344z" />
    <glyph glyph-name="T_h.commaaccent" horiz-adv-x="1069" 
d="M347 -68l-95 -141h-62l80 141h77zM992 0h-65v342c0 122 -33 158 -120 158c-64 0 -131 -25 -173 -46v-454h-65v683h-232v-683h-67v683h-240v60h604v-236c41 21 107 50 185 50c123 0 173 -67 173 -213v-344z" />
    <glyph glyph-name="i.dot" horiz-adv-x="240" 
d="M152 0h-65v543h65v-543zM153 649h-66v124h66v-124z" />
    <glyph glyph-name="Amacron.alt" horiz-adv-x="643" 
d="M492 833h-343v52h343v-52zM23 0l233 685l-62 4v54h174l251 -743h-71l-87 263h-282l-88 -263h-68zM440 324l-84 249c-13 38 -22 73 -32 115h-7c-10 -41 -20 -77 -32 -115l-86 -249h241z" />
    <glyph glyph-name="Abreve.alt" horiz-adv-x="643" 
d="M482 945c-7 -87 -45 -156 -162 -156c-118 0 -155 69 -161 156h49c7 -72 36 -111 112 -111c77 0 105 39 112 111h50zM23 0l233 685l-62 4v54h174l251 -743h-71l-87 263h-282l-88 -263h-68zM440 324l-84 249c-13 38 -22 73 -32 115h-7c-10 -41 -20 -77 -32 -115l-86 -249
h241z" />
    <glyph glyph-name="Aringacute.alt" horiz-adv-x="643" 
d="M440 871c0 -75 -49 -108 -114 -108s-116 33 -116 108c0 74 51 107 116 107s114 -33 114 -107zM394 871c0 51 -32 66 -68 66c-38 0 -69 -15 -69 -66s31 -67 69 -67c36 0 68 16 68 67zM498 1148l-148 -154h-66l134 154h80zM23 0l233 685l-62 4v54h174l251 -743h-71l-87 263
h-282l-88 -263h-68zM440 324l-84 249c-13 38 -22 73 -32 115h-7c-10 -41 -20 -77 -32 -115l-86 -249h241z" />
    <glyph glyph-name="Aogonek.alt" horiz-adv-x="643" 
d="M23 0l233 685l-62 4v54h174l251 -743c-113 -50 -149 -82 -149 -120c0 -33 17 -54 70 -54c28 0 56 4 79 6v-39c-12 -4 -45 -10 -84 -10c-84 0 -122 37 -122 94c0 52 56 97 132 130l-84 256h-282l-88 -263h-68zM440 324l-84 249c-13 38 -23 74 -32 115h-7
c-10 -41 -20 -77 -32 -115l-86 -249h241z" />
    <glyph glyph-name="AE.alt" horiz-adv-x="942" 
d="M887 0h-427v263h-275l-87 -263h-68l231 685l-68 3v55h694v-60h-361v-265h338v-61h-338v-298h361v-59zM460 323v361h-135c-11 -36 -22 -71 -34 -108l-86 -253h255z" />
    <glyph glyph-name="AEacute.alt" horiz-adv-x="942" 
d="M887 0h-427v263h-275l-87 -263h-68l231 685l-68 3v55h694v-60h-361v-265h338v-61h-338v-298h361v-59zM460 323v361h-135c-11 -36 -22 -71 -34 -108l-86 -253h255zM713 950l-148 -154h-66l134 154h80z" />
    <glyph glyph-name="Cacute.alt" horiz-adv-x="550" 
d="M495 943l-147 -154h-67l135 154h79zM520 58v-56c-25 -4 -96 -15 -173 -15c-177 0 -292 80 -292 342v85c0 261 115 341 292 341c76 0 149 -11 173 -16v-129h-53l-7 80c-30 2 -71 5 -113 5c-153 0 -225 -74 -225 -281v-85c0 -207 72 -282 225 -282c66 0 132 7 173 11z" />
    <glyph glyph-name="Ccircumflex.alt" horiz-adv-x="550" 
d="M498 789h-67l-114 116l-112 -116h-67l138 154h84zM520 58v-56c-25 -4 -96 -15 -173 -15c-177 0 -292 80 -292 342v85c0 261 115 341 292 341c76 0 149 -11 173 -16v-129h-53l-7 80c-30 2 -71 5 -113 5c-153 0 -225 -74 -225 -281v-85c0 -207 72 -282 225 -282
c66 0 132 7 173 11z" />
    <glyph glyph-name="Ccaron.alt" horiz-adv-x="550" 
d="M144 943h67l112 -117l114 117h67l-138 -154h-84zM520 58v-56c-25 -4 -96 -15 -173 -15c-177 0 -292 80 -292 342v85c0 261 115 341 292 341c76 0 149 -11 173 -16v-129h-53l-7 80c-30 2 -71 5 -113 5c-153 0 -225 -74 -225 -281v-85c0 -207 72 -282 225 -282
c66 0 132 7 173 11z" />
    <glyph glyph-name="Cdotaccent.alt" horiz-adv-x="550" 
d="M360 809h-65v121h65v-121zM520 58v-56c-25 -4 -96 -15 -173 -15c-177 0 -292 80 -292 342v85c0 261 115 341 292 341c76 0 149 -11 173 -16v-129h-53l-7 80c-30 2 -71 5 -113 5c-153 0 -225 -74 -225 -281v-85c0 -207 72 -282 225 -282c66 0 132 7 173 11z" />
    <glyph glyph-name="Dcaron.alt" horiz-adv-x="659" 
d="M132 943h67l113 -117l113 117h67l-138 -154h-84zM85 -1v684l-57 5v55c91 0 155 3 257 3c223 0 319 -115 319 -330v-88c0 -215 -91 -332 -319 -332c-86 0 -126 2 -200 3zM537 328v88c0 201 -88 270 -257 270c-45 0 -88 -1 -128 -2v-625c37 -2 85 -4 128 -4
c169 0 257 72 257 273z" />
    <glyph glyph-name="Dcroat.alt" horiz-adv-x="659" 
d="M604 328c0 -215 -91 -332 -319 -332c-75 0 -136 2 -200 3v358h-57v59h57v267l-57 5v55c92 0 159 3 257 3c223 0 319 -115 319 -330v-88zM537 328v88c0 201 -88 270 -257 270c-45 0 -88 -1 -128 -2v-268h165v-59h-165v-298c37 -2 85 -4 128 -4c169 0 257 72 257 273z" />
    <glyph glyph-name="Ecaron.alt" horiz-adv-x="568" 
d="M114 943h67l113 -117l113 117h67l-138 -154h-84zM513 683h-361v-265h337v-61h-337v-298h361v-59h-428v685l-57 3v55h485v-60z" />
    <glyph glyph-name="Emacron.alt" horiz-adv-x="568" 
d="M458 833h-343v52h343v-52zM513 683h-361v-265h337v-61h-337v-298h361v-59h-428v685l-57 3v55h485v-60z" />
    <glyph glyph-name="Ebreve.alt" horiz-adv-x="568" 
d="M446 946c-7 -87 -44 -157 -162 -157c-117 0 -154 70 -161 157h50c6 -73 35 -112 111 -112c77 0 105 39 112 112h50zM513 683h-361v-265h337v-61h-337v-298h361v-59h-428v685l-57 3v55h485v-60z" />
    <glyph glyph-name="Edotaccent.alt" horiz-adv-x="568" 
d="M318 809h-65v121h65v-121zM513 683h-361v-265h337v-61h-337v-298h361v-59h-428v685l-57 3v55h485v-60z" />
    <glyph glyph-name="Eogonek.alt" horiz-adv-x="568" 
d="M513 -207c-12 -4 -45 -10 -84 -10c-84 0 -122 37 -122 94c0 50 51 91 117 123h-339v685l-57 3v55h485v-60h-361v-265h337v-61h-337v-298h361v-59c-113 -50 -150 -82 -150 -120c0 -33 18 -54 71 -54c28 0 56 4 79 6v-39z" />
    <glyph glyph-name="Gcircumflex.alt" horiz-adv-x="619" 
d="M501 789h-67l-113 116l-113 -116h-67l138 154h84zM554 5c-44 -7 -122 -18 -206 -18c-170 0 -293 84 -293 339v91c0 266 134 338 293 338c97 0 185 -14 206 -17v-130h-53l-7 80c-35 3 -88 7 -137 7c-142 0 -235 -54 -235 -278v-91c0 -214 87 -278 234 -278
c43 0 92 1 131 5v272l-115 5v53h182v-378z" />
    <glyph glyph-name="Gbreve.alt" horiz-adv-x="619" 
d="M499 945c-7 -87 -44 -156 -162 -156c-117 0 -154 69 -161 156h50c6 -72 35 -111 111 -111c77 0 105 39 112 111h50zM554 5c-44 -7 -122 -18 -206 -18c-170 0 -293 84 -293 339v91c0 266 134 338 293 338c97 0 185 -14 206 -17v-130h-53l-7 80c-35 3 -88 7 -137 7
c-142 0 -235 -54 -235 -278v-91c0 -214 87 -278 234 -278c43 0 92 1 131 5v272l-115 5v53h182v-378z" />
    <glyph glyph-name="Gdotaccent.alt" horiz-adv-x="619" 
d="M367 809h-64v121h64v-121zM554 5c-44 -7 -122 -18 -206 -18c-170 0 -293 84 -293 339v91c0 266 134 338 293 338c97 0 185 -14 206 -17v-130h-53l-7 80c-35 3 -88 7 -137 7c-142 0 -235 -54 -235 -278v-91c0 -214 87 -278 234 -278c43 0 92 1 131 5v272l-115 5v53h182
v-378z" />
    <glyph glyph-name="Gcommaaccent.alt" horiz-adv-x="619" 
d="M390 -68l-95 -141h-62l80 141h77zM554 5c-44 -7 -122 -18 -206 -18c-170 0 -293 84 -293 339v91c0 266 134 338 293 338c97 0 185 -14 206 -17v-130h-53l-7 80c-35 3 -88 7 -137 7c-142 0 -235 -54 -235 -278v-91c0 -214 87 -278 234 -278c43 0 92 1 131 5v272l-115 5v53
h182v-378z" />
    <glyph glyph-name="Hbar.alt" horiz-adv-x="708" 
d="M21 601h64v84l-57 3v55h124v-142h404v142h67v-142h64v-53h-64v-548h-67v365h-404v-365h-67v548h-64v53zM152 426h404v122h-404v-122z" />
    <glyph glyph-name="Hcircumflex.alt" horiz-adv-x="708" 
d="M532 789h-67l-113 116l-113 -116h-67l138 154h84zM623 0h-67v365h-404v-365h-67v685l-57 3v55h124v-317h404v317h67v-743z" />
    <glyph glyph-name="Itilde.alt" horiz-adv-x="240" 
d="M310 907c0 -75 -21 -123 -90 -123c-36 0 -63 14 -96 44l-41 38c-24 24 -38 34 -62 34c-37 0 -43 -32 -43 -77v-34h-48v34c0 76 23 124 91 124c37 0 59 -13 92 -42l42 -39c24 -23 40 -35 64 -35c37 0 43 31 43 76v34h48v-34zM210 0h-180v54l57 3v628l-57 3v55h180v-55
l-56 -3v-628l56 -3v-54z" />
    <glyph glyph-name="Imacron.alt" horiz-adv-x="240" 
d="M292 833h-343v52h343v-52zM210 0h-180v54l57 3v628l-57 3v55h180v-55l-56 -3v-628l56 -3v-54z" />
    <glyph glyph-name="Ibreve.alt" horiz-adv-x="240" 
d="M281 940c-7 -87 -44 -156 -162 -156c-117 0 -154 69 -161 156h50c6 -72 35 -111 111 -111c77 0 105 39 112 111h50zM210 0h-180v54l57 3v628l-57 3v55h180v-55l-56 -3v-628l56 -3v-54z" />
    <glyph glyph-name="Idotaccent.alt" horiz-adv-x="240" 
d="M153 809h-65v121h65v-121zM210 0h-180v54l57 3v628l-57 3v55h180v-55l-56 -3v-628l56 -3v-54z" />
    <glyph glyph-name="Iogonek.alt" horiz-adv-x="240" 
d="M210 0c-113 -50 -140 -82 -140 -120c0 -33 17 -54 70 -54c28 0 56 4 79 6v-39c-12 -4 -45 -10 -84 -10c-84 0 -122 37 -122 94c0 50 42 91 108 123h-91v54l57 3v628l-57 3v55h180v-55l-56 -3v-628l56 -3v-54z" />
    <glyph glyph-name="IJ.alt" horiz-adv-x="481" 
d="M210 0h-180v54l57 3v628l-57 3v55h180v-55l-56 -3v-628l56 -3v-54zM451 688l-57 -3v-741c0 -101 -27 -157 -139 -157c-23 0 -55 4 -69 7v51c23 -1 43 -1 65 -1c71 0 77 33 77 100v741l-57 3v55h180v-55z" />
    <glyph glyph-name="Jcircumflex.alt" horiz-adv-x="240" 
d="M299 789h-67l-113 116l-113 -116h-67l138 154h84zM210 688l-57 -3v-741c0 -101 -27 -157 -139 -157c-23 0 -55 4 -69 7v51c23 -1 43 -1 65 -1c71 0 77 33 77 100v741l-57 3v55h180v-55z" />
    <glyph glyph-name="Kcommaaccent.alt" horiz-adv-x="601" 
d="M351 -68l-95 -141h-61l80 141h76zM586 0h-92l-337 364v-364h-67v685l-57 3v55h124v-353l341 353h87l-353 -365z" />
    <glyph glyph-name="Nacute.alt" horiz-adv-x="692" 
d="M500 943l-148 -154h-66l134 154h80zM607 -1h-95l-313 577c-17 32 -36 68 -53 104h-1c2 -41 3 -85 3 -128v-552h-63v685l-57 3v55h152l314 -571c16 -30 35 -69 51 -102h1c-2 47 -3 92 -3 130v543h64v-744z" />
    <glyph glyph-name="Ncaron.alt" horiz-adv-x="692" 
d="M163 943h67l113 -117l113 117h67l-138 -154h-84zM607 -1h-95l-313 577c-17 32 -36 68 -53 104h-1c2 -41 3 -85 3 -128v-552h-63v685l-57 3v55h152l314 -571c16 -30 35 -69 51 -102h1c-2 47 -3 92 -3 130v543h64v-744z" />
    <glyph glyph-name="Ncommaaccent.alt" horiz-adv-x="692" 
d="M402 -68l-95 -141h-62l81 141h76zM607 -1h-95l-313 577c-17 32 -36 68 -53 104h-1c2 -41 3 -85 3 -128v-552h-63v685l-57 3v55h152l314 -571c16 -30 35 -69 51 -102h1c-2 47 -3 92 -3 130v543h64v-744z" />
    <glyph glyph-name="Racute.alt" horiz-adv-x="622" 
d="M442 943l-147 -154h-67l134 154h80zM595 0h-79l-185 303c-22 -1 -50 -1 -70 -1c-37 0 -79 0 -109 1v-303h-67v685l-57 3v55c71 0 141 4 231 4c175 0 293 -46 293 -215v-8c0 -120 -53 -180 -150 -207zM152 362c33 -1 70 -1 109 -1c153 0 223 41 223 163v8
c0 122 -74 155 -225 155c-38 0 -64 -2 -107 -3v-322z" />
    <glyph glyph-name="Rcaron.alt" horiz-adv-x="622" 
d="M117 943h67l113 -117l113 117h67l-138 -154h-84zM595 0h-79l-185 303c-22 -1 -50 -1 -70 -1c-37 0 -79 0 -109 1v-303h-67v685l-57 3v55c71 0 141 4 231 4c175 0 293 -46 293 -215v-8c0 -120 -53 -180 -150 -207zM152 362c33 -1 70 -1 109 -1c153 0 223 41 223 163v8
c0 122 -74 155 -225 155c-38 0 -64 -2 -107 -3v-322z" />
    <glyph glyph-name="Rcommaaccent.alt" horiz-adv-x="622" 
d="M360 -68l-95 -141h-62l81 141h76zM595 0h-79l-185 303c-22 -1 -50 -1 -70 -1c-37 0 -79 0 -109 1v-303h-67v685l-57 3v55c71 0 141 4 231 4c175 0 293 -46 293 -215v-8c0 -120 -53 -180 -150 -207zM152 362c33 -1 70 -1 109 -1c153 0 223 41 223 163v8
c0 122 -74 155 -225 155c-38 0 -64 -2 -107 -3v-322z" />
    <glyph glyph-name="Sacute.alt" horiz-adv-x="572" 
d="M443 943l-147 -154h-67l135 154h79zM277 -13c-87 0 -173 11 -206 18v54c43 -5 123 -14 206 -14c109 0 172 37 172 138c0 74 -34 107 -132 154l-101 47c-100 47 -161 98 -161 199c0 119 82 172 236 172c83 0 166 -11 201 -18v-128h-52l-9 81c-38 4 -91 6 -138 6
c-106 0 -171 -27 -171 -113c0 -68 38 -102 124 -143l101 -46c115 -55 170 -105 170 -211c0 -129 -81 -196 -240 -196z" />
    <glyph glyph-name="Scircumflex.alt" horiz-adv-x="572" 
d="M458 789h-67l-113 116l-113 -116h-67l138 154h84zM277 -13c-87 0 -173 11 -206 18v54c43 -5 123 -14 206 -14c109 0 172 37 172 138c0 74 -34 107 -132 154l-101 47c-100 47 -161 98 -161 199c0 119 82 172 236 172c83 0 166 -11 201 -18v-128h-52l-9 81
c-38 4 -91 6 -138 6c-106 0 -171 -27 -171 -113c0 -68 38 -102 124 -143l101 -46c115 -55 170 -105 170 -211c0 -129 -81 -196 -240 -196z" />
    <glyph glyph-name="Scedilla.alt" horiz-adv-x="572" 
d="M361 -68l-135 -141h-68l121 141h82zM277 -13c-87 0 -173 11 -206 18v54c43 -5 123 -14 206 -14c109 0 172 37 172 138c0 74 -34 107 -132 154l-101 47c-100 47 -161 98 -161 199c0 119 82 172 236 172c83 0 166 -11 201 -18v-128h-52l-9 81c-38 4 -91 6 -138 6
c-106 0 -171 -27 -171 -113c0 -68 38 -102 124 -143l101 -46c115 -55 170 -105 170 -211c0 -129 -81 -196 -240 -196z" />
    <glyph glyph-name="Scommaaccent.alt" horiz-adv-x="572" 
d="M71 5v54c43 -5 123 -14 206 -14c109 0 172 37 172 138c0 74 -34 107 -132 154l-101 47c-100 47 -161 98 -161 199c0 119 82 172 236 172c83 0 166 -11 201 -18v-128h-52l-9 81c-38 4 -91 6 -138 6c-106 0 -171 -27 -171 -113c0 -68 38 -102 124 -143l101 -46
c115 -55 170 -105 170 -211c0 -129 -81 -196 -240 -196c-87 0 -173 11 -206 18zM350 -68l-95 -141h-62l80 141h77z" />
    <glyph glyph-name="Utilde.alt" horiz-adv-x="683" 
d="M532 907c0 -75 -20 -123 -89 -123c-37 0 -64 14 -96 44l-42 38c-24 24 -38 34 -62 34c-36 0 -42 -32 -42 -77v-34h-49v34c0 76 24 124 91 124c37 0 60 -13 92 -42l43 -39c24 -23 39 -35 63 -35c37 0 43 31 43 76v34h48v-34zM603 319c0 -220 -81 -331 -261 -331
c-182 0 -262 111 -262 331v367l-59 3v54h126v-417c0 -196 46 -278 195 -278c147 0 195 83 195 278v417h66v-424z" />
    <glyph glyph-name="Umacron.alt" horiz-adv-x="683" 
d="M512 833h-343v52h343v-52zM603 319c0 -220 -81 -331 -261 -331c-182 0 -262 111 -262 331v367l-59 3v54h126v-417c0 -196 46 -278 195 -278c147 0 195 83 195 278v417h66v-424z" />
    <glyph glyph-name="Ubreve.alt" horiz-adv-x="683" 
d="M506 940c-7 -87 -45 -156 -162 -156c-118 0 -155 69 -161 156h49c7 -72 36 -111 112 -111c77 0 105 39 112 111h50zM603 319c0 -220 -81 -331 -261 -331c-182 0 -262 111 -262 331v367l-59 3v54h126v-417c0 -196 46 -278 195 -278c147 0 195 83 195 278v417h66v-424z" />
    <glyph glyph-name="Uring.alt" horiz-adv-x="683" 
d="M459 879c0 -75 -49 -108 -114 -108s-116 33 -116 108s51 108 116 108s114 -33 114 -108zM413 879c0 51 -32 67 -68 67c-38 0 -69 -16 -69 -67c0 -50 31 -67 69 -67c36 0 68 17 68 67zM603 319c0 -220 -81 -331 -261 -331c-182 0 -262 111 -262 331v367l-59 3v54h126v-417
c0 -196 46 -278 195 -278c147 0 195 83 195 278v417h66v-424z" />
    <glyph glyph-name="Uhungarumlaut.alt" horiz-adv-x="683" 
d="M608 943l-147 -154h-68l135 154h80zM326 943h81l-148 -154h-67zM603 319c0 -220 -81 -331 -261 -331c-182 0 -262 111 -262 331v367l-59 3v54h126v-417c0 -196 46 -278 195 -278c147 0 195 83 195 278v417h66v-424z" />
    <glyph glyph-name="Uogonek.alt" horiz-adv-x="683" 
d="M603 319c0 -175 -51 -280 -162 -317c-110 -48 -146 -82 -146 -125c0 -28 17 -51 71 -51c27 0 56 4 79 6v-39c-12 -4 -46 -10 -85 -10c-84 0 -121 37 -121 94c0 45 30 85 78 112c-165 10 -237 120 -237 330v367l-59 3v54h126v-417c0 -196 46 -278 195 -278
c147 0 195 83 195 278v417h66v-424z" />
    <glyph glyph-name="Zacute.alt" horiz-adv-x="604" 
d="M472 943l-147 -154h-67l134 154h80zM557 59v-59h-510v73l423 610h-348l-6 -74h-53v134h479v-73l-422 -611h437z" />
    <glyph glyph-name="Zdotaccent.alt" horiz-adv-x="604" 
d="M334 809h-65v121h65v-121zM557 59v-59h-510v73l423 610h-348l-6 -74h-53v134h479v-73l-422 -611h437z" />
    <glyph glyph-name="Eng.alt" horiz-adv-x="692" 
d="M607 -56c0 -101 -28 -157 -140 -157c-22 0 -54 4 -69 7v51c23 -1 44 -1 66 -1c70 0 76 33 76 100v55l-341 577c-23 40 -36 68 -53 104h-1c2 -40 3 -84 3 -126v-554h-63v685l-57 3v55h152l316 -529c21 -38 33 -67 49 -99h1c-2 46 -3 90 -3 127v501h64v-799z" />
    <glyph glyph-name="amacron.alt" horiz-adv-x="531" 
d="M443 664h-343v52h343v-52zM458 0h-63v39c-38 -23 -100 -52 -181 -52c-106 0 -162 48 -162 156v15c0 138 89 166 248 166h92v46c0 106 -23 131 -144 131c-28 0 -59 -1 -102 -4l-6 -61h-51v102c37 7 98 19 164 19c173 0 205 -59 205 -187v-370zM392 87v186h-92
c-131 0 -183 -18 -183 -115v-19c0 -75 42 -101 110 -101s135 30 165 49z" />
    <glyph glyph-name="abreve.alt" horiz-adv-x="531" 
d="M436 771c-8 -87 -45 -156 -162 -156c-118 0 -155 69 -162 156h50c7 -73 35 -111 112 -111c76 0 104 38 112 111h50zM458 0h-63v39c-38 -23 -100 -52 -181 -52c-106 0 -162 48 -162 156v15c0 138 89 166 248 166h92v46c0 106 -23 131 -144 131c-28 0 -59 -1 -102 -4
l-6 -61h-51v102c37 7 98 19 164 19c173 0 205 -59 205 -187v-370zM392 87v186h-92c-131 0 -183 -18 -183 -115v-19c0 -75 42 -101 110 -101s135 30 165 49z" />
    <glyph glyph-name="aringacute.alt" horiz-adv-x="531" 
d="M458 0h-63v39c-38 -23 -100 -52 -181 -52c-106 0 -162 48 -162 156v15c0 138 89 166 248 166h92v46c0 106 -23 131 -144 131c-28 0 -59 -1 -102 -4l-6 -61h-51v102c37 7 98 19 164 19c173 0 205 -59 205 -187v-370zM392 87v186h-92c-131 0 -183 -18 -183 -115v-19
c0 -75 42 -101 110 -101s135 30 165 49zM389 689c0 -75 -49 -108 -114 -108s-116 33 -116 108s51 108 116 108s114 -33 114 -108zM344 689c0 51 -33 67 -69 67c-37 0 -69 -16 -69 -67c0 -50 32 -67 69 -67c36 0 69 17 69 67zM442 969l-147 -154h-67l135 154h79z" />
    <glyph glyph-name="aogonek.alt" horiz-adv-x="531" 
d="M458 0c-115 -52 -143 -82 -143 -120c0 -33 17 -54 70 -54c28 0 50 4 73 6v-39c-12 -4 -39 -10 -78 -10c-84 0 -122 37 -122 94c0 60 58 95 137 130v36c-38 -24 -100 -56 -181 -56c-106 0 -162 48 -162 156v15c0 138 89 166 248 166h92v46c0 106 -23 131 -144 131
c-28 0 -59 -1 -102 -4l-6 -61h-51v102c37 7 98 19 164 19c173 0 205 -59 205 -187v-370zM392 90v183h-92c-131 0 -183 -18 -183 -115v-19c0 -75 42 -101 110 -101s135 34 165 52z" />
    <glyph glyph-name="ae.alt" horiz-adv-x="896" 
d="M845 249h-387v-56c0 -96 38 -151 182 -151c70 0 135 9 187 18v-53c-40 -9 -112 -20 -188 -20c-111 0 -177 21 -211 72c-63 -47 -131 -72 -217 -72c-100 0 -160 48 -160 153v21c0 135 89 163 248 163h93v46c0 105 -23 131 -144 131c-30 0 -66 -2 -104 -4l-6 -61h-51v102
c30 6 100 19 165 19c126 0 166 -29 186 -83c32 50 89 82 181 82c159 0 226 -101 226 -261v-46zM778 304v15c0 89 -28 181 -159 181c-132 0 -160 -94 -160 -173v-23h319zM392 93v180h-93c-131 0 -182 -17 -182 -112v-26c0 -71 42 -97 106 -97c70 0 137 32 169 55z" />
    <glyph glyph-name="aeacute.alt" horiz-adv-x="896" 
d="M845 249h-387v-56c0 -96 38 -151 182 -151c70 0 135 9 187 18v-53c-40 -9 -112 -20 -188 -20c-111 0 -177 21 -211 72c-63 -47 -131 -72 -217 -72c-100 0 -160 48 -160 153v21c0 135 89 163 248 163h93v46c0 105 -23 131 -144 131c-30 0 -66 -2 -104 -4l-6 -61h-51v102
c30 6 100 19 165 19c126 0 166 -29 186 -83c32 50 89 82 181 82c159 0 226 -101 226 -261v-46zM778 304v15c0 89 -28 181 -159 181c-132 0 -160 -94 -160 -173v-23h319zM392 93v180h-93c-131 0 -182 -17 -182 -112v-26c0 -71 42 -97 106 -97c70 0 137 32 169 55zM625 770
l-147 -154h-67l135 154h79z" />
    <glyph glyph-name="cacute.alt" horiz-adv-x="466" 
d="M430 770l-147 -154h-67l134 154h80zM421 4c-36 -8 -86 -17 -149 -17c-149 0 -217 78 -217 255v60c0 175 70 255 217 255c60 0 113 -8 149 -17v-106h-52l-6 61c-33 4 -63 5 -82 5c-103 0 -160 -39 -160 -198v-60c0 -162 56 -199 160 -199c28 0 72 3 140 11v-50z" />
    <glyph glyph-name="ccircumflex.alt" horiz-adv-x="466" 
d="M435 616h-67l-114 116l-112 -116h-67l138 154h84zM421 4c-36 -8 -86 -17 -149 -17c-149 0 -217 78 -217 255v60c0 175 70 255 217 255c60 0 113 -8 149 -17v-106h-52l-6 61c-33 4 -63 5 -82 5c-103 0 -160 -39 -160 -198v-60c0 -162 56 -199 160 -199c28 0 72 3 140 11
v-50z" />
    <glyph glyph-name="ccaron.alt" horiz-adv-x="466" 
d="M87 770h67l113 -117l113 117h67l-138 -154h-84zM421 4c-36 -8 -86 -17 -149 -17c-149 0 -217 78 -217 255v60c0 175 70 255 217 255c60 0 113 -8 149 -17v-106h-52l-6 61c-33 4 -63 5 -82 5c-103 0 -160 -39 -160 -198v-60c0 -162 56 -199 160 -199c28 0 72 3 140 11v-50
z" />
    <glyph glyph-name="cdotaccent.alt" horiz-adv-x="466" 
d="M298 649h-65v121h65v-121zM421 4c-36 -8 -86 -17 -149 -17c-149 0 -217 78 -217 255v60c0 175 70 255 217 255c60 0 113 -8 149 -17v-106h-52l-6 61c-33 4 -63 5 -82 5c-103 0 -160 -39 -160 -198v-60c0 -162 56 -199 160 -199c28 0 72 3 140 11v-50z" />
    <glyph glyph-name="dcaron.alt" horiz-adv-x="689" 
d="M679 773l-71 -229h-52l53 229h70zM479 0h-63v31c-38 -21 -94 -44 -161 -44c-131 0 -200 73 -200 247v67c0 197 88 256 226 256c38 0 79 -3 133 -12v170l-63 3v55h128v-773zM414 83v407c-52 7 -101 11 -129 11c-108 0 -164 -38 -164 -200v-67c0 -137 43 -191 145 -191
c57 0 107 20 148 40z" />
    <glyph glyph-name="dcroat.alt" horiz-adv-x="559" 
d="M479 0h-63v31c-38 -21 -94 -44 -161 -44c-131 0 -200 73 -200 247v67c0 197 88 256 226 256c38 0 79 -3 133 -12v81h-161v57h161v32l-63 3v55h128v-90h60v-57h-60v-626zM414 83v407c-52 7 -101 11 -129 11c-108 0 -164 -38 -164 -200v-67c0 -137 43 -191 145 -191
c57 0 107 20 148 40z" />
    <glyph glyph-name="gcircumflex.alt" horiz-adv-x="550" 
d="M506 -45c0 -105 -61 -174 -233 -174c-173 0 -229 67 -229 174c0 50 21 94 53 124c-32 17 -48 44 -48 77c0 40 21 70 55 93c-29 31 -42 73 -42 126c0 98 35 182 213 182h225v-46l-72 -6c30 -18 56 -61 56 -130c0 -105 -52 -178 -211 -178c-59 0 -100 9 -130 25
c-23 -16 -36 -35 -36 -60c0 -29 16 -43 55 -43h108c152 0 236 -26 236 -164zM441 -44c0 86 -34 109 -171 109h-119c-24 -22 -43 -55 -43 -109c0 -76 27 -121 165 -121c132 0 168 45 168 121zM423 375c0 74 -21 129 -150 129c-132 0 -148 -58 -148 -129
c0 -73 21 -126 148 -126s150 53 150 126zM459 616h-67l-114 116l-112 -116h-67l138 154h84z" />
    <glyph glyph-name="gbreve.alt" horiz-adv-x="550" 
d="M439 771c-7 -87 -44 -156 -162 -156c-117 0 -154 69 -161 156h50c6 -73 35 -111 111 -111c77 0 105 38 112 111h50zM506 -45c0 -105 -61 -174 -233 -174c-173 0 -229 67 -229 174c0 50 21 94 53 124c-32 17 -48 44 -48 77c0 40 21 70 55 93c-29 31 -42 73 -42 126
c0 98 35 182 213 182h225v-46l-72 -6c30 -18 56 -61 56 -130c0 -105 -52 -178 -211 -178c-59 0 -100 9 -130 25c-23 -16 -36 -35 -36 -60c0 -29 16 -43 55 -43h108c152 0 236 -26 236 -164zM441 -44c0 86 -34 109 -171 109h-119c-24 -22 -43 -55 -43 -109
c0 -76 27 -121 165 -121c132 0 168 45 168 121zM423 375c0 74 -21 129 -150 129c-132 0 -148 -58 -148 -129c0 -73 21 -126 148 -126s150 53 150 126z" />
    <glyph glyph-name="gdotaccent.alt" horiz-adv-x="550" 
d="M311 644h-65v121h65v-121zM506 -45c0 -105 -61 -174 -233 -174c-173 0 -229 67 -229 174c0 50 21 94 53 124c-32 17 -48 44 -48 77c0 40 21 70 55 93c-29 31 -42 73 -42 126c0 98 35 182 213 182h225v-46l-72 -6c30 -18 56 -61 56 -130c0 -105 -52 -178 -211 -178
c-59 0 -100 9 -130 25c-23 -16 -36 -35 -36 -60c0 -29 16 -43 55 -43h108c152 0 236 -26 236 -164zM441 -44c0 86 -34 109 -171 109h-119c-24 -22 -43 -55 -43 -109c0 -76 27 -121 165 -121c132 0 168 45 168 121zM423 375c0 74 -21 129 -150 129c-132 0 -148 -58 -148 -129
c0 -73 21 -126 148 -126s150 53 150 126z" />
    <glyph glyph-name="gcommaaccent.alt" horiz-adv-x="550" 
d="M506 -45c0 -105 -61 -174 -233 -174c-173 0 -229 67 -229 174c0 50 21 94 53 124c-32 17 -48 44 -48 77c0 40 21 70 55 93c-29 31 -42 73 -42 126c0 98 35 182 213 182h225v-46l-72 -6c30 -18 56 -61 56 -130c0 -105 -52 -178 -211 -178c-59 0 -100 9 -130 25
c-23 -16 -36 -35 -36 -60c0 -29 16 -43 55 -43h108c152 0 236 -26 236 -164zM441 -44c0 86 -34 109 -171 109h-119c-24 -22 -43 -55 -43 -109c0 -76 27 -121 165 -121c132 0 168 45 168 121zM423 375c0 74 -21 129 -150 129c-132 0 -148 -58 -148 -129
c0 -73 21 -126 148 -126s150 53 150 126zM230 616l95 141h61l-80 -141h-76z" />
    <glyph glyph-name="hbar.alt" horiz-adv-x="589" 
d="M21 683h59v32l-56 3v55h121v-90h175v-55h-175v-121c41 21 106 50 185 50c122 0 174 -67 174 -213v-344h-66v342c0 122 -33 158 -120 158c-65 0 -131 -25 -173 -46v-454h-65v628h-59v55z" />
    <glyph glyph-name="hcircumflex.alt" horiz-adv-x="589" 
d="M469 789h-67l-113 116l-113 -116h-67l138 154h84zM504 0h-66v342c0 122 -33 158 -120 158c-65 0 -131 -25 -173 -46v-454h-65v715l-56 3v55h121v-266c41 21 106 50 185 50c122 0 174 -67 174 -213v-344z" />
    <glyph glyph-name="itilde.alt" horiz-adv-x="236" 
d="M151 0h-66v485l-55 3v55h121v-543zM308 737c0 -75 -21 -123 -90 -123c-36 0 -63 14 -96 44l-41 38c-24 24 -38 34 -62 34c-37 0 -43 -32 -43 -77v-34h-48v34c0 76 23 124 91 124c37 0 59 -13 92 -42l42 -39c24 -23 40 -35 64 -35c37 0 43 31 43 76v34h48v-34z" />
    <glyph glyph-name="imacron.alt" horiz-adv-x="236" 
d="M151 0h-66v485l-55 3v55h121v-543zM290 664h-343v52h343v-52z" />
    <glyph glyph-name="ibreve.alt" horiz-adv-x="236" 
d="M151 0h-66v485l-55 3v55h121v-543zM280 771c-7 -87 -45 -156 -162 -156c-118 0 -155 69 -161 156h49c7 -73 36 -111 112 -111c77 0 105 38 112 111h50z" />
    <glyph glyph-name="iogonek.alt" horiz-adv-x="236" 
d="M220 -207c-12 -4 -49 -10 -85 -10c-84 0 -121 37 -121 94c0 51 33 94 71 126v482l-55 3v55h121v-543c-60 -45 -81 -86 -81 -120c0 -33 17 -54 71 -54c30 0 56 4 79 6v-39zM152 649h-67v124h67v-124z" />
    <glyph glyph-name="ij.alt" horiz-adv-x="500" 
d="M151 0h-66v485l-55 3v55h121v-543zM152 649h-67v124h67v-124zM413 -74c0 -104 -28 -145 -123 -145c-20 0 -49 2 -65 4v49c20 -1 40 -2 59 -2c54 0 63 24 63 94v559l-55 3v55h121v-617zM414 648h-67v125h67v-125z" />
    <glyph glyph-name="ij.alt2" horiz-adv-x="500" 
d="M151 0h-66v485l-55 3v55h121v-543zM152 649h-67v124h67v-124zM413 -74c0 -104 -28 -145 -123 -145c-20 0 -49 2 -65 4v49c20 -1 40 -2 59 -2c54 0 63 24 63 94v617h66v-617zM414 648h-67v125h67v-125z" />
    <glyph glyph-name="jcircumflex.alt" horiz-adv-x="236" 
d="M151 -73c0 -105 -28 -146 -123 -146c-20 0 -49 2 -65 5v49c20 -1 40 -2 59 -2c54 0 63 24 63 94v558l-55 3v55h121v-616zM300 616h-67l-114 116l-112 -116h-67l138 154h84z" />
    <glyph glyph-name="kcommaaccent.alt" horiz-adv-x="487" 
d="M304 -68l-95 -141h-61l80 141h76zM473 0h-87l-241 275v-275h-65v715l-55 3v55h120v-478l240 248h86l-253 -257z" />
    <glyph glyph-name="kgreenlandic.alt" horiz-adv-x="487" 
d="M473 0h-87l-241 275v-275h-65v485l-55 3v55h120v-248l240 248h86l-253 -257z" />
    <glyph glyph-name="lacute.alt" horiz-adv-x="232" 
d="M274 956l-148 -154h-66l134 154h80zM149 0h-65v715l-56 3v55h121v-773z" />
    <glyph glyph-name="lcaron.alt" horiz-adv-x="347" 
d="M337 773l-71 -229h-51l52 229h70zM149 0h-65v715l-56 3v55h121v-773z" />
    <glyph glyph-name="lcommaaccent.alt" horiz-adv-x="232" 
d="M149 -68l-95 -141h-61l80 141h76zM136 0h-65v715l-56 3v55h121v-773z" />
    <glyph glyph-name="ldot.alt" horiz-adv-x="314" 
d="M294 300h-67v138h67v-138zM149 0h-65v715l-56 3v55h121v-773z" />
    <glyph glyph-name="nacute.alt" 
d="M446 770l-148 -154h-66l134 154h80zM504 0h-66v344c0 116 -25 156 -112 156c-52 0 -113 -20 -181 -52v-448h-65v485l-55 3v55h120v-44c60 32 122 58 187 58c140 0 172 -74 172 -213v-344z" />
    <glyph glyph-name="ncaron.alt" 
d="M112 770h67l112 -117l114 117h67l-138 -154h-84zM504 0h-66v344c0 116 -25 156 -112 156c-52 0 -113 -20 -181 -52v-448h-65v485l-55 3v55h120v-44c60 32 122 58 187 58c140 0 172 -74 172 -213v-344z" />
    <glyph glyph-name="ncommaaccent.alt" 
d="M338 -68l-95 -141h-62l81 141h76zM504 0h-66v344c0 116 -25 156 -112 156c-52 0 -113 -20 -181 -52v-448h-65v485l-55 3v55h120v-44c60 32 122 58 187 58c140 0 172 -74 172 -213v-344z" />
    </font>
</defs>
</svg>
